<?xml version="1.0" encoding="utf-8"?>
<!-- Generator: Adobe Illustrator 24.0.0, SVG Export Plug-In . SVG Version: 6.00 Build 0)  -->
<svg version="1.1" id="Livello_1" xmlns="http://www.w3.org/2000/svg" xmlns:xlink="http://www.w3.org/1999/xlink" x="0px" y="0px"
	 viewBox="0 0 595.3 841.9" style="enable-background:new 0 0 595.3 841.9;" xml:space="preserve">
<style type="text/css">
	.st0{clip-path:url(#SVGID_2_);}
	.st1{clip-path:url(#SVGID_4_);fill:#1F3B71;}
	.st2{clip-path:url(#SVGID_2_);fill:#1F3B71;}
	.st3{opacity:0.9;clip-path:url(#SVGID_6_);}
	.st4{clip-path:url(#SVGID_8_);fill:#EBECED;}
	.st5{clip-path:url(#SVGID_10_);fill:#EBECED;}
	.st6{clip-path:url(#SVGID_12_);fill:#EBECED;}
	.st7{clip-path:url(#SVGID_6_);fill:#1F3B71;}
	.st8{clip-path:url(#SVGID_14_);fill:#1F3B71;}
	.st9{clip-path:url(#SVGID_16_);fill:#1F3B71;}
	.st10{clip-path:url(#SVGID_18_);fill:#1F3B71;}
</style>
<g>
	<defs>
		<rect id="SVGID_1_" x="-276.9" y="333.9" width="1056.3" height="161.9"/>
	</defs>
	<clipPath id="SVGID_2_">
		<use xlink:href="#SVGID_1_"  style="overflow:visible;"/>
	</clipPath>
	<g class="st0">
		<defs>
			<rect id="SVGID_3_" x="-276.9" y="333.9" width="1056.3" height="161.9"/>
		</defs>
		<clipPath id="SVGID_4_">
			<use xlink:href="#SVGID_3_"  style="overflow:visible;"/>
		</clipPath>
		<path class="st1" d="M145,495.7h7.9v-0.3h-7.5v-5.1h6.7v-0.3h-6.7v-5.1h7.4v-0.3H145V495.7z M132.6,495.7h0.3v-10.6l8.5,10.6h0.3
			v-11.1h-0.3v10.6l-8.5-10.6h-0.3V495.7z M128.8,495.7h0.3v-11.1h-0.3V495.7z M119.4,495.7h7.2v-0.3h-6.8v-10.8h-0.3V495.7z
			 M107,495.7h0.3v-10.6l8.5,10.6h0.3v-11.1h-0.3v10.6l-8.5-10.6H107V495.7z M98.7,495.5c-3.1,0-5.2-2.6-5.2-5.4v0
			c0-2.9,2.1-5.4,5.2-5.4c3.1,0,5.2,2.6,5.2,5.4v0C103.8,493,101.8,495.5,98.7,495.5 M98.6,495.8c3.4,0,5.5-2.7,5.5-5.7v0
			c0-3-2.2-5.7-5.5-5.7c-3.4,0-5.5,2.7-5.5,5.7v0C93.1,493.1,95.3,495.8,98.6,495.8"/>
		<path class="st1" d="M186,478.8h7.9v-0.3h-7.5v-5.1h6.7V473h-6.7V468h7.4v-0.3H186V478.8z M173.6,478.8h0.3v-10.6l8.5,10.6h0.3
			v-11.1h-0.3v10.6l-8.5-10.6h-0.3V478.8z M165.2,478.7c-3.1,0-5.2-2.6-5.2-5.4v0c0-2.9,2.1-5.4,5.2-5.4c3.1,0,5.2,2.6,5.2,5.4v0
			C170.4,476.1,168.3,478.7,165.2,478.7 M165.2,479c3.4,0,5.5-2.7,5.5-5.7v0c0-3-2.2-5.7-5.5-5.7c-3.4,0-5.5,2.7-5.5,5.7v0
			C159.7,476.3,161.8,479,165.2,479 M156.4,478.8h0.3v-11.1h-0.3V478.8z M144.9,478.8h8.5v-0.3h-8l8.1-10.6v-0.2h-8.3v0.3h7.8
			l-8.1,10.6V478.8z M134.3,475.1l3.4-7.1l3.4,7.1H134.3z M132.2,478.8h0.4l1.6-3.3h7.1l1.6,3.3h0.4l-5.4-11.2h-0.3L132.2,478.8z
			 M122.3,473.6V468h4.2c2.3,0,3.7,1.1,3.7,2.8v0c0,1.6-1.2,2.8-3.8,2.8H122.3z M121.9,478.8h0.3v-4.9h4.1l3.7,4.9h0.4l-3.7-4.9
			c2.1-0.1,3.6-1.2,3.6-3.1v0c0-0.9-0.3-1.6-0.8-2.1c-0.7-0.7-1.8-1-3.2-1h-4.5V478.8z M114.3,479c2.7,0,4.5-1.7,4.5-5.1v-6.2h-0.3
			v6.2c0,3.2-1.6,4.8-4.1,4.8c-2.5,0-4.2-1.6-4.2-4.8v-6.2h-0.3v6.2C109.8,477.3,111.6,479,114.3,479 M103.4,479
			c2,0,3.4-0.9,4.3-1.9l-0.3-0.2c-0.9,1-2.2,1.8-4.1,1.8c-2.9,0-5.1-2.5-5.1-5.4v0c0-2.9,2.1-5.4,5.1-5.4c2,0,3.1,0.8,4,1.7l0.2-0.2
			c-1-1-2.1-1.8-4.2-1.8c-3.2,0-5.5,2.6-5.5,5.8v0C97.9,476.4,100.2,479,103.4,479 M94.6,478.8H95v-11.1h-0.3V478.8z M88,478.9
			c2.4,0,3.8-1.3,3.8-3v0c0-1.5-1-2.4-3.8-3c-2.7-0.6-3.6-1.3-3.6-2.6v0c0-1.3,1.3-2.5,3.2-2.5c1.4,0,2.6,0.5,3.6,1.2l0.2-0.3
			c-1-0.8-2.3-1.3-3.8-1.3c-2.1,0-3.6,1.3-3.6,2.8v0c0,1.6,1,2.4,3.8,2.9c2.8,0.6,3.6,1.3,3.6,2.7v0c0,1.5-1.3,2.6-3.4,2.6
			c-1.6,0-3.1-0.6-4.2-1.7l-0.3,0.3C84.8,478.3,86.3,478.9,88,478.9 M78,478.9c2.4,0,3.8-1.3,3.8-3v0c0-1.5-1-2.4-3.8-3
			c-2.7-0.6-3.6-1.3-3.6-2.6v0c0-1.3,1.3-2.5,3.2-2.5c1.4,0,2.6,0.5,3.6,1.2l0.2-0.3c-1-0.8-2.3-1.3-3.8-1.3c-2.1,0-3.6,1.3-3.6,2.8
			v0c0,1.6,1,2.4,3.8,2.9c2.8,0.6,3.6,1.3,3.6,2.7v0c0,1.5-1.3,2.6-3.4,2.6c-1.6,0-3.1-0.6-4.2-1.7l-0.3,0.3
			C74.7,478.3,76.3,478.9,78,478.9 M63.4,475.1l3.4-7.1l3.4,7.1H63.4z M61.2,478.8h0.4l1.6-3.3h7.1l1.6,3.3h0.4l-5.4-11.2h-0.3
			L61.2,478.8z M60.6,469.8c0.4-0.2,0.6-0.5,0.6-1.4v-0.7h-0.6v0.8h0.3c0,0.6-0.1,0.9-0.4,1.1L60.6,469.8z M52.6,478.8h7.2v-0.3H53
			v-10.8h-0.3V478.8z"/>
		<path class="st1" d="M475.2,495.7h0.3v-10.8h4v-0.3h-8.4v0.3h4V495.7z M460,495.7h0.3v-10.6l8.5,10.6h0.3v-11.1h-0.3v10.6
			l-8.5-10.6H460V495.7z M449.5,495.7h7.9v-0.3h-7.5v-5.1h6.7v-0.3h-6.7v-5.1h7.4v-0.3h-7.8V495.7z M435.8,495.7h0.3v-10.5l4.8,6.9
			h0l4.8-6.9v10.5h0.3v-11.1h-0.3l-4.9,6.9l-4.9-6.9h-0.3V495.7z M425.3,495.7h7.9v-0.3h-7.5v-5.1h6.7v-0.3h-6.7v-5.1h7.4v-0.3h-7.8
			V495.7z M417.9,495.8c1.8,0,3.3-0.8,4.3-1.7v-4.1h-4.5v0.3h4.1v3.6c-0.9,0.8-2.3,1.5-4,1.5c-3.2,0-5.2-2.5-5.2-5.4v0
			c0-2.8,2-5.4,5.1-5.4c1.6,0,2.6,0.5,3.7,1.4l0.2-0.3c-1.1-0.9-2.2-1.4-3.9-1.4c-3.4,0-5.5,2.8-5.5,5.8v0
			C412.4,493.2,414.4,495.8,417.9,495.8 M402.4,492l3.4-7.1l3.4,7.1H402.4z M400.3,495.7h0.4l1.6-3.3h7.1l1.6,3.3h0.4l-5.4-11.2
			h-0.3L400.3,495.7z M389,495.7h0.3v-10.6l8.5,10.6h0.3v-11.1h-0.3v10.6l-8.5-10.6H389V495.7z M377.8,492l3.4-7.1l3.4,7.1H377.8z
			 M375.7,495.7h0.4l1.6-3.3h7.1l1.6,3.3h0.4l-5.4-11.2h-0.3L375.7,495.7z M363.1,495.7h0.3v-10.5l4.8,6.9h0l4.8-6.9v10.5h0.3v-11.1
			h-0.3l-4.9,6.9l-4.9-6.9h-0.3V495.7z"/>
		<path class="st1" d="M481.2,478.9c2.4,0,3.8-1.3,3.8-3v0c0-1.5-1-2.4-3.8-3c-2.7-0.6-3.6-1.3-3.6-2.6v0c0-1.3,1.3-2.5,3.2-2.5
			c1.4,0,2.6,0.5,3.6,1.2l0.2-0.3c-1-0.8-2.3-1.3-3.8-1.3c-2.1,0-3.6,1.3-3.6,2.8v0c0,1.6,1,2.4,3.8,2.9c2.8,0.6,3.6,1.3,3.6,2.7v0
			c0,1.5-1.3,2.6-3.4,2.6c-1.6,0-3.1-0.6-4.2-1.7l-0.3,0.3C478,478.3,479.5,478.9,481.2,478.9 M471.3,478.8h0.3V468h4v-0.3h-8.4v0.3
			h4V478.8z M456.6,478.8h0.3v-5.5h8v5.5h0.3v-11.1h-0.3v5.4h-8v-5.4h-0.3V478.8z M449.2,479c1.8,0,3.3-0.8,4.3-1.7v-4.1H449v0.3
			h4.1v3.6c-0.9,0.8-2.3,1.5-4,1.5c-3.2,0-5.2-2.5-5.2-5.4v0c0-2.8,2-5.4,5.1-5.4c1.6,0,2.6,0.5,3.7,1.4l0.2-0.3
			c-1.1-0.9-2.2-1.4-3.9-1.4c-3.4,0-5.5,2.8-5.5,5.8v0C443.7,476.4,445.7,479,449.2,479 M440.4,478.8h0.3v-11.1h-0.3V478.8z
			 M429.1,473.6V468h4.2c2.3,0,3.7,1,3.7,2.8v0c0,1.6-1.2,2.8-3.8,2.8H429.1z M428.8,478.8h0.3v-4.9h4.1l3.7,4.9h0.4l-3.7-4.9
			c2.1-0.1,3.6-1.2,3.6-3.1v0c0-0.9-0.3-1.6-0.8-2.1c-0.7-0.7-1.8-1-3.2-1h-4.5V478.8z M415,478.8h7.2v-0.3h-6.8v-10.8H415V478.8z
			 M403.9,475.1l3.4-7.1l3.4,7.1H403.9z M401.7,478.8h0.4l1.6-3.3h7.1l1.6,3.3h0.4l-5.4-11.2h-0.3L401.7,478.8z M391.6,478.5v-5.2
			h4.7c1.8,0,3.4,0.9,3.4,2.6v0c0,1.6-1.3,2.5-3.6,2.5H391.6z M391.6,473v-5h4.2c2.1,0,3.3,1,3.3,2.5v0c0,1.7-1.4,2.5-3,2.5H391.6z
			 M391.3,478.8h4.8c2.5,0,4-1,4-2.9v0c0-1.5-1.2-2.5-2.7-2.8c1.3-0.3,2.1-1.3,2.1-2.6v0c0-0.8-0.3-1.4-0.7-1.8
			c-0.6-0.6-1.6-1-2.9-1h-4.6V478.8z M382.9,478.7c-3.1,0-5.2-2.6-5.2-5.4v0c0-2.9,2.1-5.4,5.2-5.4c3.1,0,5.2,2.6,5.2,5.4v0
			C388.1,476.1,386.1,478.7,382.9,478.7 M382.9,479c3.4,0,5.5-2.7,5.5-5.7v0c0-3-2.2-5.7-5.5-5.7s-5.5,2.7-5.5,5.7v0
			C377.4,476.3,379.6,479,382.9,479 M369.4,478.8h7.2v-0.3h-6.8v-10.8h-0.3V478.8z M362,479c1.8,0,3.3-0.8,4.3-1.7v-4.1h-4.5v0.3
			h4.1v3.6c-0.9,0.8-2.3,1.5-4,1.5c-3.2,0-5.2-2.5-5.2-5.4v0c0-2.8,2-5.4,5.1-5.4c1.6,0,2.6,0.5,3.7,1.4l0.2-0.3
			c-1.1-0.9-2.2-1.4-3.9-1.4c-3.4,0-5.5,2.8-5.5,5.8v0C356.5,476.4,358.5,479,362,479"/>
		<path class="st1" d="M728.9,495.5c-3.1,0-5.2-2.6-5.2-5.4v0c0-2.9,2.1-5.4,5.2-5.4c3.1,0,5.2,2.6,5.2,5.4v0
			C734.1,493,732.1,495.5,728.9,495.5 M728.9,495.8c3.4,0,5.5-2.7,5.5-5.7v0c0-3-2.2-5.7-5.5-5.7c-3.4,0-5.5,2.7-5.5,5.7v0
			C723.4,493.1,725.6,495.8,728.9,495.8 M718.3,495.7h0.3v-10.8h4v-0.3h-8.4v0.3h4V495.7z M705.8,492l3.4-7.1l3.4,7.1H705.8z
			 M703.7,495.7h0.4l1.6-3.3h7.1l1.6,3.3h0.4l-5.4-11.2H709L703.7,495.7z M693.7,490.5v-5.6h4.2c2.3,0,3.7,1,3.7,2.8v0
			c0,1.6-1.2,2.8-3.8,2.8H693.7z M693.4,495.7h0.3v-4.9h4.1l3.7,4.9h0.4l-3.7-4.9c2.1-0.1,3.6-1.2,3.6-3.1v0c0-0.9-0.3-1.6-0.8-2.1
			c-0.7-0.7-1.8-1-3.2-1h-4.5V495.7z M686,495.8c1.8,0,3.3-0.8,4.3-1.7v-4.1h-4.5v0.3h4.1v3.6c-0.9,0.8-2.3,1.5-4,1.5
			c-3.2,0-5.2-2.5-5.2-5.4v0c0-2.8,2-5.4,5.1-5.4c1.6,0,2.6,0.5,3.7,1.4l0.2-0.3c-1.1-0.9-2.2-1.4-3.9-1.4c-3.4,0-5.5,2.8-5.5,5.8v0
			C680.5,493.2,682.5,495.8,686,495.8 M670.9,495.7h7.9v-0.3h-7.5v-5.1h6.7v-0.3h-6.7v-5.1h7.4v-0.3h-7.8V495.7z M664.4,495.7h0.3
			v-10.8h4v-0.3h-8.4v0.3h4V495.7z M649.2,495.7h0.3v-10.6l8.5,10.6h0.3v-11.1H658v10.6l-8.5-10.6h-0.3V495.7z M645.4,495.7h0.3
			v-11.1h-0.3V495.7z"/>
		<path class="st1" d="M726.7,478.8h7.9v-0.3H727v-5.1h6.7V473H727V468h7.4v-0.3h-7.8V478.8z M715.5,473.6V468h4.2
			c2.3,0,3.7,1,3.7,2.8v0c0,1.6-1.2,2.8-3.8,2.8H715.5z M715.2,478.8h0.3v-4.9h4.1l3.7,4.9h0.4l-3.7-4.9c2.1-0.1,3.6-1.2,3.6-3.1v0
			c0-0.9-0.3-1.6-0.8-2.1c-0.7-0.7-1.8-1-3.2-1h-4.5V478.8z M704,475.1l3.4-7.1l3.4,7.1H704z M701.9,478.8h0.4l1.6-3.3h7.1l1.6,3.3
			h0.4l-5.4-11.2h-0.3L701.9,478.8z M691,478.9h0.3l3.4-10.6l3.4,10.6h0.3l3.7-11.2h-0.3l-3.5,10.7l-3.4-10.7h-0.3l-3.4,10.7
			l-3.5-10.7h-0.4L691,478.9z M681.7,478.8h0.3V468h4v-0.3h-8.4v0.3h4V478.8z M669,478.8h0.3v-5.3h6.7v-0.3h-6.7V468h7.3v-0.3H669
			V478.8z M660.7,478.7c-3.1,0-5.2-2.6-5.2-5.4v0c0-2.9,2.1-5.4,5.2-5.4c3.1,0,5.2,2.6,5.2,5.4v0
			C665.9,476.1,663.8,478.7,660.7,478.7 M660.7,479c3.4,0,5.5-2.7,5.5-5.7v0c0-3-2.2-5.7-5.5-5.7c-3.4,0-5.5,2.7-5.5,5.7v0
			C655.1,476.3,657.3,479,660.7,479 M649.1,478.9c2.4,0,3.8-1.3,3.8-3v0c0-1.5-1-2.4-3.8-3c-2.7-0.6-3.6-1.3-3.6-2.6v0
			c0-1.3,1.3-2.5,3.2-2.5c1.4,0,2.6,0.5,3.6,1.2l0.2-0.3c-1-0.8-2.3-1.3-3.8-1.3c-2.1,0-3.6,1.3-3.6,2.8v0c0,1.6,1,2.4,3.8,2.9
			c2.8,0.6,3.6,1.3,3.6,2.7v0c0,1.5-1.3,2.6-3.4,2.6c-1.6,0-3.1-0.6-4.2-1.7l-0.3,0.3C645.9,478.3,647.4,478.9,649.1,478.9"/>
		<path class="st1" d="M-98.8,492l3.4-7.1l3.4,7.1H-98.8z M-100.9,495.7h0.4l1.6-3.3h7.1l1.6,3.3h0.4l-5.4-11.2h-0.3L-100.9,495.7z
			 M-104.9,495.7h0.3v-10.8h4v-0.3h-8.4v0.3h4V495.7z M-115.3,495.8c2.7,0,4.5-1.7,4.5-5.1v-6.2h-0.3v6.2c0,3.2-1.6,4.8-4.1,4.8
			c-2.5,0-4.2-1.6-4.2-4.8v-6.2h-0.3v6.2C-119.8,494.1-118,495.8-115.3,495.8 M-128.6,495.7h7.2v-0.3h-6.8v-10.8h-0.3V495.7z
			 M-136.9,495.5c-3.1,0-5.2-2.6-5.2-5.4v0c0-2.9,2.1-5.4,5.2-5.4c3.1,0,5.2,2.6,5.2,5.4v0C-131.8,493-133.8,495.5-136.9,495.5
			 M-137,495.8c3.4,0,5.5-2.7,5.5-5.7v0c0-3-2.2-5.7-5.5-5.7s-5.5,2.7-5.5,5.7v0C-142.5,493.1-140.3,495.8-137,495.8 M-148.9,495.7
			h0.3l5.1-11.2h-0.4l-4.8,10.7l-4.8-10.7h-0.4L-148.9,495.7z M-163.4,495.7h7.9v-0.3h-7.5v-5.1h6.7v-0.3h-6.7v-5.1h7.4v-0.3h-7.8
			V495.7z M-179,492l3.4-7.1l3.4,7.1H-179z M-181.2,495.7h0.4l1.6-3.3h7.1l1.6,3.3h0.4l-5.4-11.2h-0.3L-181.2,495.7z M-186.7,495.8
			c2,0,3.4-0.9,4.3-1.9l-0.3-0.2c-0.9,1-2.2,1.8-4.1,1.8c-2.9,0-5.1-2.5-5.1-5.4v0c0-2.9,2.1-5.4,5.1-5.4c2,0,3.1,0.8,4,1.7l0.2-0.2
			c-1-1-2.1-1.8-4.2-1.8c-3.2,0-5.5,2.6-5.5,5.8v0C-192.1,493.3-189.8,495.8-186.7,495.8 M-195.4,495.7h0.3v-11.1h-0.3V495.7z
			 M-202,495.7h0.3v-10.8h4v-0.3h-8.4v0.3h4V495.7z M-211.1,495.8c2.4,0,3.8-1.3,3.8-3v0c0-1.5-1-2.4-3.8-3
			c-2.7-0.6-3.6-1.3-3.6-2.6v0c0-1.3,1.3-2.5,3.2-2.5c1.4,0,2.6,0.5,3.6,1.2l0.2-0.3c-1-0.8-2.3-1.3-3.8-1.3c-2.1,0-3.6,1.3-3.6,2.8
			v0c0,1.6,1,2.4,3.8,2.9c2.8,0.6,3.6,1.3,3.6,2.7v0c0,1.5-1.3,2.6-3.4,2.6c-1.6,0-3.1-0.6-4.2-1.7l-0.3,0.3
			C-214.3,495.2-212.8,495.8-211.1,495.8 M-218.5,495.7h0.3v-11.1h-0.3V495.7z M-232.3,495.7h0.3v-10.5l4.8,6.9h0l4.8-6.9v10.5h0.3
			v-11.1h-0.3l-4.9,6.9l-4.9-6.9h-0.3V495.7z M-242.8,495.7h7.9v-0.3h-7.5v-5.1h6.7v-0.3h-6.7v-5.1h7.4v-0.3h-7.8V495.7z
			 M-249.3,495.7h0.3v-10.8h4v-0.3h-8.4v0.3h4V495.7z M-258.4,495.8c2.4,0,3.8-1.3,3.8-3v0c0-1.5-1-2.4-3.8-3
			c-2.7-0.6-3.6-1.3-3.6-2.6v0c0-1.3,1.3-2.5,3.2-2.5c1.4,0,2.6,0.5,3.6,1.2l0.2-0.3c-1-0.8-2.3-1.3-3.8-1.3c-2.1,0-3.6,1.3-3.6,2.8
			v0c0,1.6,1,2.4,3.8,2.9c2.8,0.6,3.6,1.3,3.6,2.7v0c0,1.5-1.3,2.6-3.4,2.6c-1.6,0-3.1-0.6-4.2-1.7l-0.3,0.3
			C-261.6,495.2-260.1,495.8-258.4,495.8 M-265.8,495.7h0.3v-11.1h-0.3V495.7z M-272.5,495.8c2.4,0,3.8-1.3,3.8-3v0
			c0-1.5-1-2.4-3.8-3c-2.7-0.6-3.6-1.3-3.6-2.6v0c0-1.3,1.3-2.5,3.2-2.5c1.4,0,2.6,0.5,3.6,1.2l0.2-0.3c-1-0.8-2.3-1.3-3.8-1.3
			c-2.1,0-3.6,1.3-3.6,2.8v0c0,1.6,1,2.4,3.8,2.9c2.8,0.6,3.6,1.3,3.6,2.7v0c0,1.5-1.3,2.6-3.4,2.6c-1.6,0-3.1-0.6-4.2-1.7l-0.3,0.3
			C-275.7,495.2-274.2,495.8-272.5,495.8"/>
		<path class="st1" d="M-142.4,475.1l3.4-7.1l3.4,7.1H-142.4z M-144.5,478.8h0.4l1.6-3.3h7.1l1.6,3.3h0.4l-5.4-11.2h-0.3
			L-144.5,478.8z M-154.9,478.8h8.5v-0.3h-8l8.1-10.6v-0.2h-8.3v0.3h7.8l-8.1,10.6V478.8z M-166.7,478.8h0.3v-10.6l8.5,10.6h0.3
			v-11.1h-0.3v10.6l-8.5-10.6h-0.3V478.8z M-177.2,478.8h7.9v-0.3h-7.5v-5.1h6.7V473h-6.7V468h7.4v-0.3h-7.8V478.8z M-183.6,478.8
			h0.3V468h4v-0.3h-8.4v0.3h4V478.8z M-192.7,478.9c2.4,0,3.8-1.3,3.8-3v0c0-1.5-1-2.4-3.8-3c-2.7-0.6-3.6-1.3-3.6-2.6v0
			c0-1.3,1.3-2.5,3.2-2.5c1.4,0,2.6,0.5,3.6,1.2l0.2-0.3c-1-0.8-2.3-1.3-3.8-1.3c-2.1,0-3.6,1.3-3.6,2.8v0c0,1.6,1,2.4,3.8,2.9
			c2.8,0.6,3.6,1.3,3.6,2.7v0c0,1.5-1.3,2.6-3.4,2.6c-1.6,0-3.1-0.6-4.2-1.7l-0.3,0.3C-195.9,478.3-194.4,478.9-192.7,478.9
			 M-200.2,478.8h0.3v-11.1h-0.3V478.8z M-206.8,478.9c2.4,0,3.8-1.3,3.8-3v0c0-1.5-1-2.4-3.8-3c-2.7-0.6-3.6-1.3-3.6-2.6v0
			c0-1.3,1.3-2.5,3.2-2.5c1.4,0,2.6,0.5,3.6,1.2l0.2-0.3c-1-0.8-2.3-1.3-3.8-1.3c-2.1,0-3.6,1.3-3.6,2.8v0c0,1.6,1,2.4,3.8,2.9
			c2.8,0.6,3.6,1.3,3.6,2.7v0c0,1.5-1.3,2.6-3.4,2.6c-1.6,0-3.1-0.6-4.2-1.7l-0.3,0.3C-210,478.3-208.5,478.9-206.8,478.9
			 M-216.9,478.9c2.4,0,3.8-1.3,3.8-3v0c0-1.5-1-2.4-3.8-3c-2.7-0.6-3.6-1.3-3.6-2.6v0c0-1.3,1.3-2.5,3.2-2.5c1.4,0,2.6,0.5,3.6,1.2
			l0.2-0.3c-1-0.8-2.3-1.3-3.8-1.3c-2.1,0-3.6,1.3-3.6,2.8v0c0,1.6,1,2.4,3.8,2.9c2.8,0.6,3.6,1.3,3.6,2.7v0c0,1.5-1.3,2.6-3.4,2.6
			c-1.6,0-3.1-0.6-4.2-1.7l-0.3,0.3C-220.1,478.3-218.6,478.9-216.9,478.9 M-231.5,475.1l3.4-7.1l3.4,7.1H-231.5z M-233.6,478.8h0.4
			l1.6-3.3h7.1l1.6,3.3h0.4l-5.4-11.2h-0.3L-233.6,478.8z"/>
	</g>
	<polygon class="st2" points="26,393.3 -7,373 -7,414.3 26,434.7 	"/>
	<polygon class="st2" points="25.8,437.4 8.1,426.5 8.1,448.7 25.8,459.6 	"/>
	<polygon class="st2" points="5.9,425.3 -4.1,419.1 -4.1,431.6 5.9,437.8 	"/>
	<polygon class="st2" points="6.9,440 1.4,436.6 1.4,443.5 6.9,446.9 	"/>
	<polygon class="st2" points="31.4,393.3 64.4,373 64.4,414.3 31.4,434.7 	"/>
	<polygon class="st2" points="66.9,372.1 83.9,361.6 83.9,383 66.9,393.5 	"/>
	<polygon class="st2" points="66.9,396.4 77.5,389.8 77.5,403.1 66.9,409.7 	"/>
	<polygon class="st2" points="78.5,387.8 83.4,384.8 83.4,391 78.5,394 	"/>
	<polygon class="st2" points="-7,366.2 28.7,344.1 64.4,366.2 28.7,388.2 	"/>
	<polygon class="st2" points="-29.1,351.7 -9.3,339.5 10.6,351.7 -9.3,364 	"/>
	<polygon class="st2" points="3.1,344.1 12.7,338.1 22.4,344.1 12.7,350.1 	"/>
	<polygon class="st2" points="-6,340.1 0.9,335.8 7.8,340.1 0.9,344.4 	"/>
	<path class="st2" d="M64.4,370.2L64.4,370.2L64.4,370.2z"/>
	<g class="st0">
		<defs>
			<rect id="SVGID_5_" x="-276.9" y="333.9" width="1056.3" height="161.9"/>
		</defs>
		<clipPath id="SVGID_6_">
			<use xlink:href="#SVGID_5_"  style="overflow:visible;"/>
		</clipPath>
		<g class="st3">
			<g>
				<defs>
					<rect id="SVGID_7_" x="-11.3" y="378.2" width="40.1" height="48.7"/>
				</defs>
				<clipPath id="SVGID_8_">
					<use xlink:href="#SVGID_7_"  style="overflow:visible;"/>
				</clipPath>
				<path class="st4" d="M-2.3,413.8l0.2-4.6l11-5.4c0.1-0.1,0.4-0.2,0.9-0.4c0.4-0.2,0.7-0.3,0.9-0.4c0.1-0.1,0.4-0.2,0.8-0.4
					c0.4-0.2,0.6-0.4,0.8-0.5c0.1-0.1,0.3-0.4,0.6-0.6c0.2-0.3,0.4-0.5,0.5-0.8c0.1-0.3,0.2-0.6,0.3-1c0.1-0.4,0.2-0.8,0.2-1.2
					c0.1-1.3-0.3-2.6-1-3.9c-0.7-1.3-1.8-2.4-3.3-3.3c-0.9-0.5-1.6-0.8-2.2-0.8c-0.6,0-1.1,0.1-1.5,0.5c-0.3,0.4-0.6,0.9-0.8,1.4
					c-0.2,0.6-0.3,1.2-0.3,2l0,1.1l-6-3.5l0-1.1c0.1-3,1.1-4.8,2.8-5.5c1.8-0.7,4.5,0,8.1,2.1c3.4,2,6,4.2,7.8,6.7
					c1.7,2.5,2.6,5.1,2.5,7.7c0,1-0.2,1.8-0.5,2.6c-0.3,0.7-0.7,1.3-1.2,1.8c-0.5,0.5-1,0.9-1.4,1.2c-0.4,0.3-1,0.6-1.8,1l-11,4.2
					l15.1,8.6l-0.2,4.6L-2.3,413.8z"/>
			</g>
		</g>
		<g class="st3">
			<g>
				<defs>
					<rect id="SVGID_9_" x="26.7" y="376.3" width="42" height="49.5"/>
				</defs>
				<clipPath id="SVGID_10_">
					<use xlink:href="#SVGID_9_"  style="overflow:visible;"/>
				</clipPath>
				<path class="st5" d="M47.7,421.8c-3.9,2.3-6.8,3.3-8.9,2.9c-2-0.4-3.1-2-3.1-4.9v-1.2l6.8-4c0,0.8,0,1.4,0.1,1.9
					c0.1,0.5,0.2,1,0.4,1.4c0.2,0.5,0.5,0.7,0.8,0.9c0.4,0.1,0.9,0.1,1.5,0c0.6-0.2,1.4-0.5,2.3-1c0.9-0.5,1.7-1.1,2.3-1.7
					c0.6-0.6,1.1-1.2,1.5-1.7c0.4-0.6,0.6-1.2,0.8-1.9c0.2-0.7,0.3-1.3,0.4-1.9c0.1-0.6,0.1-1.3,0.1-2c0-2-0.5-3.2-1.6-3.7
					c-1.1-0.4-2.8,0-5.3,1.5v-5c2.5-1.5,4.3-2.9,5.3-4.2c1-1.4,1.6-2.9,1.6-4.8c0-1.6-0.4-2.7-1.1-3.1c-0.7-0.4-2.1,0-4,1.1
					c-0.9,0.5-1.7,1.1-2.3,1.7c-0.6,0.6-1.1,1.2-1.5,1.7c-0.4,0.6-0.6,1.2-0.8,1.9c-0.2,0.7-0.3,1.3-0.4,1.9c-0.1,0.6-0.1,1.3-0.1,2
					l-6.8,4v-1.2c0-2.8,1-5.7,3.1-8.5c2.1-2.8,5-5.4,8.9-7.6c3.9-2.3,6.9-3.3,8.9-2.9c2,0.4,3.1,2,3.1,4.9c0,2-0.6,3.9-1.8,5.9
					c-1.2,2-2.9,3.8-5,5.6c2.2-0.8,3.9-0.8,5.1,0c1.2,0.8,1.7,2.3,1.7,4.6c0,3.3-1,6.4-2.9,9.3C54.9,416.7,51.8,419.3,47.7,421.8"/>
			</g>
		</g>
		<g class="st3">
			<g>
				<defs>
					<rect id="SVGID_11_" x="17" y="343.4" width="23.5" height="38.2"/>
				</defs>
				<clipPath id="SVGID_12_">
					<use xlink:href="#SVGID_11_"  style="overflow:visible;"/>
				</clipPath>
				<rect x="26" y="350.4" class="st6" width="5.5" height="30.2"/>
			</g>
		</g>
		<path class="st7" d="M97.2,394.4l-5.4-21.3h2.9l2.5,10.8c0.6,2.7,1.2,5.3,1.6,7.4h0.1c0.3-2.1,1-4.7,1.7-7.4l2.8-10.8h2.9
			l2.6,10.8c0.6,2.5,1.2,5.1,1.5,7.3h0.1c0.4-2.3,1-4.7,1.7-7.4l2.8-10.8h2.8l-6,21.3h-2.9l-2.7-11.1c-0.7-2.7-1.1-4.8-1.4-7h-0.1
			c-0.4,2.1-0.9,4.2-1.6,7l-3,11.1H97.2z"/>
		<path class="st7" d="M129.1,385.3c0-1.8-0.7-4.5-3.9-4.5c-2.8,0-4,2.6-4.3,4.5H129.1z M120.9,387.2c0.1,3.8,2.5,5.3,5.3,5.3
			c2,0,3.2-0.3,4.2-0.8l0.5,2c-1,0.4-2.7,0.9-5.1,0.9c-4.7,0-7.5-3.1-7.5-7.7c0-4.6,2.7-8.3,7.2-8.3c5,0,6.3,4.4,6.3,7.2
			c0,0.6-0.1,1-0.1,1.3H120.9z"/>
		<path class="st7" d="M138,388.3c0,0.3,0.1,0.7,0.1,1c0.5,1.9,2.2,3.3,4.2,3.3c2.9,0,4.6-2.4,4.6-5.9c0-3.1-1.6-5.7-4.6-5.7
			c-1.9,0-3.7,1.3-4.2,3.4c-0.1,0.3-0.2,0.7-0.2,1.1V388.3z M135.1,394.4c0.1-1,0.1-2.6,0.1-4v-18.5h2.8v9.6h0.1
			c1-1.7,2.8-2.8,5.2-2.8c3.8,0,6.5,3.2,6.5,7.8c0,5.5-3.4,8.2-6.9,8.2c-2.2,0-4-0.9-5.1-2.9h-0.1l-0.1,2.5H135.1z"/>
		<path class="st7" d="M156.1,392.3c0.5,0.1,1.3,0.1,2.3,0.1c2.8,0,5.5-1,5.5-4.1c0-2.9-2.5-4.1-5.5-4.1h-2.3V392.3z M156.1,382.1
			h2.5c2.9,0,4.6-1.5,4.6-3.6c0-2.5-1.9-3.5-4.7-3.5c-1.3,0-2,0.1-2.4,0.2V382.1z M153.3,373.4c1.2-0.3,3.1-0.4,5-0.4
			c2.8,0,4.5,0.5,5.9,1.5c1.1,0.8,1.8,2.1,1.8,3.8c0,2.1-1.4,3.9-3.6,4.7v0.1c2,0.5,4.4,2.2,4.4,5.3c0,1.8-0.7,3.2-1.8,4.3
			c-1.5,1.4-3.9,2-7.4,2c-1.9,0-3.4-0.1-4.3-0.3V373.4z"/>
		<path class="st7" d="M170.4,383.9c0-1.8,0-3.4-0.1-4.8h2.4l0.1,3h0.1c0.7-2.1,2.4-3.4,4.2-3.4c0.3,0,0.5,0,0.8,0.1v2.6
			c-0.3-0.1-0.6-0.1-0.9-0.1c-2,0-3.4,1.5-3.7,3.6c-0.1,0.4-0.1,0.8-0.1,1.3v8.2h-2.8V383.9z"/>
		<path class="st7" d="M182.1,386.8c0,3.4,1.9,5.9,4.7,5.9c2.7,0,4.7-2.5,4.7-5.9c0-2.6-1.3-5.9-4.6-5.9
			C183.5,380.8,182.1,383.9,182.1,386.8 M194.3,386.6c0,5.7-3.9,8.1-7.6,8.1c-4.1,0-7.3-3-7.3-7.9c0-5.1,3.4-8.1,7.6-8.1
			C191.3,378.7,194.3,381.9,194.3,386.6"/>
		<path class="st7" d="M200.5,386.1L200.5,386.1c0.4-0.5,1-1.2,1.4-1.7l4.5-5.3h3.4l-5.9,6.3l6.7,9h-3.4l-5.3-7.3l-1.4,1.6v5.8h-2.8
			v-22.5h2.8V386.1z"/>
		<path class="st7" d="M222.3,385.3c0-1.8-0.7-4.5-3.9-4.5c-2.8,0-4,2.6-4.3,4.5H222.3z M214.2,387.2c0.1,3.8,2.5,5.3,5.3,5.3
			c2,0,3.2-0.3,4.2-0.8l0.5,2c-1,0.4-2.7,0.9-5.1,0.9c-4.7,0-7.5-3.1-7.5-7.7c0-4.6,2.7-8.3,7.2-8.3c5,0,6.3,4.4,6.3,7.2
			c0,0.6-0.1,1-0.1,1.3H214.2z"/>
		<path class="st7" d="M228.5,383.9c0-1.8,0-3.4-0.1-4.8h2.4l0.1,3h0.1c0.7-2.1,2.4-3.4,4.2-3.4c0.3,0,0.5,0,0.8,0.1v2.6
			c-0.3-0.1-0.6-0.1-0.9-0.1c-2,0-3.4,1.5-3.7,3.6c-0.1,0.4-0.1,0.8-0.1,1.3v8.2h-2.8V383.9z"/>
		<path class="st7" d="M437.2,375.5c0.7-0.4,1.5-0.7,2.2-1.1c1-0.4,2-0.6,3.1-0.6c1.6,0,3.2,0.4,4.5,1.4c1.3,1.1,2,2.7,1.9,4.4v0.7
			c4.5-4.5,8.1-9.8,10.6-15.7c-0.3,0.2-0.6,0.4-0.9,0.6c-2-1.6-4.4-2.8-6.9-3.5c-2.6-0.8-5.3-1.2-8.1-1.2c-3.6,0-7.1,0.5-10.6,1.5
			c-3,0.8-5.9,2.2-8.5,3.9c-1.2,0.8-2.3,1.8-3.2,3c-0.8,1.3-1.2,2.8-1.2,4.3v20.5c5.9-0.6,11.7-2.3,17-5L437.2,375.5z"/>
		<path class="st7" d="M477.4,403.5c-0.1,1.4,0.2,2.8,0.7,4.1c0.4,1,1,1.8,1.8,2.5c0.9,0.6,1.9,1,3,1.2c1.3,0.2,2.6,0.3,4,0.3
			c1.5,0,3-0.1,4.5-0.3c1.1-0.1,2.1-0.3,3.2-0.6v-31.5c0-1.4-0.1-2.9-0.4-4.3c-3.7,10.2-9.4,19.5-16.7,27.6L477.4,403.5z"/>
		<path class="st7" d="M420.8,407.5c0.4,1,1,1.8,1.9,2.5c0.9,0.6,1.9,1,3,1.2c1.3,0.2,2.6,0.3,4,0.3c1.5,0,3-0.1,4.5-0.3
			c1.1-0.1,2.1-0.3,3.1-0.6v-21.9c-5.3,2.7-11.1,4.5-17,5v9.8C420.1,404.9,420.3,406.2,420.8,407.5"/>
		<path class="st7" d="M488.2,364.7c-1.9-1.5-4.2-2.5-6.5-3.2c-2.4-0.7-4.9-1-7.5-1c-3.1-0.1-6.1,0.4-9.1,1.3c-2,0.7-4,1.6-5.8,2.7
			c-2.4,5.9-6,11.2-10.6,15.7v23.2c-0.1,1.4,0.2,2.8,0.7,4.1c0.4,1,1,1.8,1.9,2.5c0.9,0.6,1.9,1,3,1.2c1.3,0.2,2.6,0.3,4,0.3
			c1.5,0,2.9-0.1,4.4-0.3c1.1-0.1,2.2-0.3,3.3-0.6v-34c0-0.3,0-0.5-0.1-0.8c0.7-0.6,1.5-1,2.4-1.4c0.9-0.4,2-0.6,3-0.6
			c1.6-0.1,3.3,0.4,4.6,1.4c1.2,1.1,1.9,2.7,1.7,4.4v22.8c7.3-8,12.9-17.4,16.7-27.6c-0.2-1.5-0.7-3-1.3-4.4
			C491.7,368.2,490.1,366.2,488.2,364.7"/>
		<path class="st7" d="M379.3,403.5c-0.1,1.4,0.2,2.8,0.7,4.1c0.4,1,1,1.8,1.9,2.5c0.9,0.6,1.9,1,3,1.2c1.3,0.2,2.6,0.3,4,0.3
			c1.5,0,3-0.1,4.5-0.3c1.1-0.1,2.1-0.3,3.1-0.6v-21.9c-5.3,3.5-11,6.4-17,8.6L379.3,403.5z"/>
		<path class="st7" d="M399.5,375.4c1.2-0.3,2.6-0.6,4-0.9c1.4-0.3,2.8-0.5,4.3-0.6c1.5-0.1,2.9-0.2,4.3-0.2c0.4-0.8,0.8-1.6,1-2.4
			c0.3-0.9,0.4-1.8,0.4-2.8c0-2.8-0.9-4.8-2.8-6.1c-2.3-1.3-4.9-2-7.6-1.9c-1.9,0-3.9,0.2-5.8,0.5c-1.9,0.3-3.8,0.7-5.6,1.2
			c-1.7,0.5-3.4,1.1-5.1,1.9c-1.4,0.6-2.7,1.4-4,2.4c-1,0.8-1.8,1.8-2.5,3c-0.6,1.2-0.9,2.6-0.8,4v23.8c6-2.2,11.7-5.1,17-8.6v-12.3
			C397.4,376,398.4,375.7,399.5,375.4"/>
		<path class="st7" d="M355.9,407.9c0.2,2.4-1.1,4.7-3.2,5.8c-1.9,1-3.9,1.5-6,1.7c-4.9,4-10.3,7.4-16.1,10.2
			c0.5,0.3,0.9,0.6,1.4,0.8c3.5,1.6,8.2,2.5,14.3,2.5c3.4,0,6.7-0.4,10-1.2c2.9-0.7,5.7-2,8.1-3.7c2.3-1.7,4.2-3.9,5.5-6.4
			c1.4-2.8,2.1-6,2-9.2v-26.9c-3.8,9.4-9.2,17.9-16,25.4L355.9,407.9z"/>
		<path class="st7" d="M340.4,361.6c-0.5,0.1-0.9,0.2-1.4,0.4c-3,0.9-5.8,2.4-8.2,4.4c-2.4,2-4.2,4.6-5.4,7.5c-1.4,3.4-2,7-2,10.6
			c0,1.2,0.1,2.3,0.2,3.4C332,381.2,337.9,372,340.4,361.6"/>
		<path class="st7" d="M344.1,415.5c-2.6,0-5.1-0.4-7.6-1.1c-2.3-0.7-4.5-1.6-6.6-2.7c-0.9,0.7-1.6,1.6-2.1,2.7
			c-0.7,1.2-1,2.6-1,4.1c-0.1,2.9,1.3,5.6,3.8,7.2c5.7-2.8,11.1-6.2,16.1-10.2C345.9,415.5,345,415.5,344.1,415.5"/>
		<path class="st7" d="M355.6,378.7v14.8c-1.9,1.4-4.2,2-6.5,1.9c-2.4,0.1-4.6-0.9-6.3-2.6c-0.2-0.2-0.4-0.5-0.5-0.7
			c-1.2-1.7-1.9-4.2-1.9-7.6c0-3.4,0.8-6,2.5-7.9c1.6-1.8,4.1-2.8,7.4-2.8c1.1,0,2.3,0.1,3.4,0.4c0.7,0.2,1.4,0.5,2.1,0.8
			L355.6,378.7z M370.7,368.9c-0.9-1.2-1.9-2.3-3.2-3.1c-2.3-1.6-4.9-2.9-7.6-3.7c-0.1,0-0.1-0.1-0.2-0.1c-3.4-1-6.9-1.5-10.4-1.5
			c-3,0-6,0.4-9,1.1c-2.5,10.4-8.4,19.6-16.8,26.2c0.2,2.5,0.8,5,1.7,7.4c0.2,0.5,0.4,1,0.7,1.4c1,2.2,2.5,4.2,4.2,5.9
			c2,1.9,4.5,3.3,7.1,4.2c2.8,0.9,5.7,1.4,8.6,1.3c3.4,0.1,6.8-0.5,10-1.8v0.5c6.8-7.4,12.2-16,16-25.4v-8.1
			C372,371.7,371.6,370.2,370.7,368.9"/>
		<path class="st7" d="M381.8,423.3h1.3v1.6c-0.4,0.1-0.7,0.1-1.1,0.1c-0.6,0-1.1-0.2-1.5-0.6c-0.4-0.5-0.6-1.1-0.5-1.8
			c0-0.6,0.2-1.3,0.6-1.8c0.4-0.4,1-0.7,1.6-0.6c0.5,0,1.1,0.1,1.5,0.4l0.4-0.9c-0.6-0.3-1.2-0.4-1.9-0.4c-0.9-0.1-1.8,0.3-2.4,0.9
			c-0.6,0.6-0.9,1.5-0.9,2.4c-0.1,0.9,0.2,1.7,0.8,2.4c0.6,0.6,1.4,0.9,2.2,0.9c0.8,0,1.5-0.1,2.3-0.3v-3.2h-2.4L381.8,423.3z"/>
	</g>
	<rect x="385.5" y="419.1" class="st2" width="1" height="6.8"/>
	<g class="st0">
		<defs>
			<rect id="SVGID_13_" x="-276.9" y="333.9" width="1056.3" height="161.9"/>
		</defs>
		<clipPath id="SVGID_14_">
			<use xlink:href="#SVGID_13_"  style="overflow:visible;"/>
		</clipPath>
		<path class="st8" d="M390,425.1c-0.8,0-1.2-0.5-1.2-1.7c0-0.4,0.1-0.9,0.3-1.2c0.2-0.3,0.6-0.5,0.9-0.4c0.8,0,1.2,0.6,1.2,1.7
			C391.3,424.6,390.8,425.1,390,425.1L390,425.1z M390.1,421c-0.6,0-1.3,0.2-1.7,0.7c-0.4,0.5-0.6,1.2-0.6,1.8
			c0,0.5,0.1,0.9,0.3,1.3c0.2,0.4,0.4,0.7,0.8,0.9c0.4,0.2,0.8,0.3,1.2,0.3c0.6,0,1.3-0.2,1.7-0.7c0.4-0.5,0.6-1.2,0.6-1.8
			c0-0.7-0.2-1.3-0.6-1.8C391.3,421.2,390.7,421,390.1,421"/>
		<path class="st8" d="M396.5,424.7c-0.2,0.3-0.5,0.4-0.8,0.4c-0.3,0-0.7-0.1-0.9-0.4c-0.2-0.4-0.3-0.8-0.3-1.3v-0.1
			c0-0.4,0.1-0.9,0.3-1.2c0.2-0.3,0.5-0.4,0.9-0.4c0.8,0,1.1,0.6,1.1,1.6C396.8,423.9,396.7,424.3,396.5,424.7 M396,421
			c-0.6,0-1.1,0.2-1.4,0.7h0c0-0.1,0-0.2,0-0.4c0-0.2,0-0.4,0-0.5v-1.6h-1v6.8h0.8l0.2-0.6h0.1c0.7,0.8,1.8,0.9,2.6,0.2
			c0.1-0.1,0.1-0.1,0.2-0.2c0.4-0.5,0.5-1.2,0.5-1.8c0-0.7-0.1-1.3-0.5-1.8C397,421.2,396.5,421,396,421"/>
		<path class="st8" d="M401.8,424c0,0.3-0.1,0.6-0.3,0.9c-0.2,0.2-0.6,0.3-0.9,0.3c-0.2,0-0.4,0-0.6-0.2c-0.1-0.1-0.2-0.3-0.2-0.5
			c0-0.3,0.1-0.5,0.3-0.7c0.3-0.2,0.7-0.2,1.1-0.2l0.6,0L401.8,424z M400.9,421c-0.3,0-0.6,0-0.9,0.1c-0.3,0.1-0.6,0.2-0.9,0.3
			l0.3,0.7c0.2-0.1,0.4-0.2,0.7-0.2c0.2-0.1,0.5-0.1,0.7-0.1c0.2,0,0.5,0.1,0.7,0.2c0.2,0.2,0.2,0.4,0.2,0.7v0.3l-0.8,0
			c-0.6,0-1.2,0.1-1.7,0.4c-0.4,0.3-0.6,0.7-0.6,1.1c0,0.4,0.1,0.8,0.4,1.1c0.3,0.3,0.7,0.4,1.1,0.4c0.3,0,0.6,0,0.9-0.2
			c0.3-0.1,0.5-0.3,0.7-0.6h0l0.2,0.7h0.7v-3.2c0-0.5-0.1-0.9-0.5-1.3C401.9,421.1,401.4,421,400.9,421"/>
	</g>
	<rect x="404.2" y="419.1" class="st2" width="1" height="6.8"/>
	<g class="st0">
		<defs>
			<rect id="SVGID_15_" x="-276.9" y="333.9" width="1056.3" height="161.9"/>
		</defs>
		<clipPath id="SVGID_16_">
			<use xlink:href="#SVGID_15_"  style="overflow:visible;"/>
		</clipPath>
		<path class="st9" d="M410.9,422.5h-0.7v-2.1h0.7c0.4,0,0.7,0.1,1.1,0.2c0.3,0.2,0.4,0.5,0.4,0.8c0,0.3-0.1,0.6-0.3,0.8
			C411.7,422.4,411.3,422.5,410.9,422.5L410.9,422.5z M413.4,421.4c0-0.5-0.2-1.1-0.6-1.4c-0.5-0.4-1.2-0.5-1.8-0.5h-1.8v6.4h1v-2.5
			h1l1.5,2.5h1.2l-1.8-2.8C412.9,422.8,413.4,422.2,413.4,421.4"/>
	</g>
	<rect x="414.7" y="421.1" class="st2" width="1" height="4.8"/>
	<g class="st0">
		<defs>
			<rect id="SVGID_17_" x="-276.9" y="333.9" width="1056.3" height="161.9"/>
		</defs>
		<clipPath id="SVGID_18_">
			<use xlink:href="#SVGID_17_"  style="overflow:visible;"/>
		</clipPath>
		<path class="st10" d="M415.3,419.2c-0.2,0-0.3,0-0.4,0.1c-0.2,0.2-0.2,0.6,0,0.8c0.1,0.1,0.3,0.2,0.4,0.2c0.2,0,0.3,0,0.4-0.2
			c0.2-0.2,0.2-0.6,0-0.8C415.6,419.3,415.4,419.2,415.3,419.2"/>
		<path class="st10" d="M418.9,423.6c-0.2,0-0.5-0.1-0.7-0.2c-0.2-0.2-0.2-0.5-0.2-0.7c0-0.3,0.1-0.5,0.2-0.7
			c0.2-0.2,0.4-0.3,0.7-0.3c0.2,0,0.5,0.1,0.7,0.3c0.2,0.2,0.2,0.5,0.2,0.7C419.7,423.2,419.5,423.6,418.9,423.6L418.9,423.6z
			 M418.5,425.9h0.8c0.3,0,0.6,0,0.8,0.1c0.2,0.1,0.2,0.3,0.2,0.4c0,0.3-0.2,0.5-0.4,0.6c-0.4,0.2-0.8,0.3-1.2,0.2
			c-0.3,0-0.6,0-0.8-0.2c-0.2-0.1-0.3-0.3-0.3-0.5c0-0.2,0.1-0.4,0.3-0.6C418,425.9,418.2,425.9,418.5,425.9L418.5,425.9z
			 M419.3,421c-0.1,0-0.3,0-0.4,0c-0.5,0-1,0.1-1.4,0.4c-0.3,0.3-0.5,0.8-0.5,1.2c0,0.3,0.1,0.6,0.2,0.9c0.1,0.2,0.4,0.4,0.6,0.5
			c-0.2,0.1-0.3,0.2-0.5,0.4c-0.1,0.1-0.2,0.3-0.1,0.5c0,0.3,0.2,0.6,0.5,0.7c-0.3,0.1-0.6,0.2-0.8,0.4c-0.2,0.2-0.3,0.5-0.3,0.7
			c0,0.4,0.2,0.8,0.5,1c0.5,0.3,1,0.4,1.5,0.3c0.7,0,1.4-0.1,2-0.4c0.4-0.3,0.7-0.8,0.7-1.3c0-0.4-0.1-0.7-0.4-1
			c-0.4-0.2-0.8-0.4-1.2-0.3h-0.8c-0.2,0-0.4,0-0.6-0.1c-0.1,0-0.2-0.1-0.2-0.2c0-0.2,0.1-0.4,0.3-0.5c0.1,0,0.3,0,0.4,0
			c0.5,0,1-0.1,1.4-0.4c0.3-0.3,0.5-0.7,0.5-1.2c0-0.3-0.1-0.6-0.3-0.8l0.8-0.1v-0.6h-1.7C419.6,421,419.4,421,419.3,421"/>
		<path class="st10" d="M424.7,421c-0.3,0-0.6,0.1-0.9,0.2c-0.2,0.1-0.5,0.3-0.6,0.5h-0.1c0-0.3,0.1-0.6,0.1-0.9v-1.7h-1v6.8h1v-2.4
			c0-0.5,0.1-0.9,0.3-1.3c0.2-0.3,0.6-0.4,1-0.4c0.3,0,0.5,0.1,0.7,0.3c0.2,0.2,0.3,0.5,0.2,0.8v3h1v-3.1c0.1-0.8-0.5-1.6-1.3-1.8
			C425,421,424.8,421,424.7,421"/>
		<path class="st10" d="M429.2,425c-0.1-0.2-0.2-0.4-0.2-0.6v-2.6h1.4v-0.8H429V420h-0.6l-0.3,1l-0.7,0.4v0.5h0.7v2.6
			c0,1,0.5,1.5,1.5,1.5c0.2,0,0.4,0,0.6,0c0.1,0,0.3-0.1,0.4-0.1V425c-0.2,0.1-0.5,0.1-0.7,0.1C429.5,425.2,429.3,425.1,429.2,425"
			/>
		<path class="st10" d="M434.1,423.5c-0.3-0.2-0.6-0.3-0.9-0.4c-0.3-0.1-0.6-0.3-0.9-0.4c-0.1-0.1-0.2-0.2-0.2-0.4
			c0-0.3,0.3-0.5,0.8-0.5c0.5,0,0.9,0.1,1.3,0.3l0.3-0.8c-0.5-0.2-1.1-0.3-1.6-0.3c-0.5,0-0.9,0.1-1.4,0.3c-0.3,0.2-0.5,0.6-0.5,1
			c0,0.3,0.1,0.6,0.3,0.8c0.3,0.3,0.7,0.5,1.1,0.6c0.2,0.1,0.5,0.2,0.7,0.3c0.1,0.1,0.2,0.2,0.3,0.3c0.1,0.1,0.1,0.2,0.1,0.3
			c0,0.4-0.3,0.6-1,0.6c-0.5,0-1.1-0.1-1.6-0.4v0.9c0.5,0.2,1,0.3,1.5,0.3c0.5,0,1-0.1,1.5-0.4c0.3-0.2,0.5-0.7,0.5-1.1
			c0-0.2,0-0.4-0.1-0.6C434.4,423.7,434.2,423.6,434.1,423.5"/>
		<path class="st10" d="M441.4,424.6L441.4,424.6l-1.8-5.1h-1.5v6.4h0.9v-3.1c0-0.7,0-1.4-0.1-2.2h0l1.8,5.3h0.9l1.9-5.3h0
			c0,0.1,0,0.4,0,0.9c0,0.5,0,0.9,0,1.2v3.1h1v-6.4h-1.5L441.4,424.6z"/>
		<path class="st10" d="M449,424c0,0.3-0.1,0.7-0.3,0.9c-0.2,0.2-0.6,0.3-0.9,0.3c-0.2,0-0.4,0-0.6-0.2c-0.1-0.1-0.2-0.3-0.2-0.5
			c0-0.3,0.1-0.5,0.3-0.7c0.3-0.2,0.7-0.2,1.1-0.2l0.6,0L449,424z M448.2,421c-0.3,0-0.6,0-0.9,0.1c-0.3,0.1-0.6,0.2-0.9,0.3
			l0.3,0.7c0.2-0.1,0.4-0.2,0.7-0.2c0.2-0.1,0.5-0.1,0.7-0.1c0.2,0,0.5,0.1,0.7,0.2c0.2,0.2,0.2,0.4,0.2,0.7v0.3l-0.8,0
			c-0.6,0-1.2,0.1-1.7,0.4c-0.4,0.3-0.6,0.7-0.6,1.1c0,0.4,0.1,0.8,0.4,1.1c0.3,0.3,0.7,0.4,1.1,0.4c0.3,0,0.6,0,0.9-0.2
			c0.3-0.1,0.5-0.3,0.7-0.6h0l0.2,0.7h0.7v-3.2c0-0.5-0.1-0.9-0.5-1.3C449.2,421.1,448.7,421,448.2,421"/>
		<path class="st10" d="M454,421c-0.3,0-0.6,0.1-0.9,0.2c-0.3,0.1-0.5,0.3-0.6,0.5h-0.1l-0.1-0.6h-0.8v4.8h1v-2.4
			c0-0.5,0.1-0.9,0.3-1.3c0.2-0.3,0.6-0.4,0.9-0.4c0.3,0,0.5,0.1,0.7,0.3c0.2,0.2,0.2,0.5,0.2,0.8v3h1v-3.1c0.1-0.8-0.5-1.6-1.3-1.8
			C454.3,421,454.1,421,454,421"/>
		<path class="st10" d="M459.9,424c0,0.3-0.1,0.7-0.3,0.9c-0.2,0.2-0.6,0.3-0.9,0.3c-0.2,0-0.4,0-0.6-0.2c-0.1-0.1-0.2-0.3-0.2-0.5
			c0-0.3,0.1-0.5,0.3-0.7c0.3-0.2,0.7-0.2,1-0.2l0.6,0L459.9,424z M459,421c-0.3,0-0.6,0-0.9,0.1c-0.3,0.1-0.6,0.2-0.9,0.3l0.3,0.7
			c0.2-0.1,0.4-0.2,0.6-0.2c0.2-0.1,0.5-0.1,0.7-0.1c0.2,0,0.5,0.1,0.7,0.2c0.2,0.2,0.2,0.4,0.2,0.7v0.3l-0.8,0
			c-0.6,0-1.2,0.1-1.7,0.4c-0.4,0.3-0.6,0.7-0.6,1.1c0,0.4,0.1,0.8,0.4,1.1c0.3,0.3,0.7,0.4,1.1,0.4c0.3,0,0.6,0,0.9-0.2
			c0.3-0.1,0.5-0.3,0.7-0.6h0l0.2,0.7h0.7v-3.2c0-0.5-0.1-0.9-0.5-1.3C460,421.1,459.5,420.9,459,421"/>
		<path class="st10" d="M463.9,423.6c-0.2,0-0.5-0.1-0.7-0.2c-0.2-0.2-0.2-0.5-0.2-0.7c0-0.3,0.1-0.5,0.2-0.7c0.4-0.3,1-0.3,1.3,0
			c0.2,0.2,0.2,0.5,0.2,0.7C464.8,423.2,464.5,423.6,463.9,423.6L463.9,423.6z M463.5,425.9h0.8c0.3,0,0.6,0,0.8,0.1
			c0.2,0.1,0.2,0.3,0.2,0.4c0,0.3-0.2,0.5-0.4,0.6c-0.4,0.2-0.8,0.3-1.2,0.2c-0.3,0-0.6,0-0.8-0.2c-0.2-0.1-0.3-0.3-0.3-0.5
			c0-0.2,0.1-0.4,0.3-0.6C463,425.9,463.3,425.9,463.5,425.9L463.5,425.9z M464.4,421c-0.1,0-0.3,0-0.4,0c-0.5,0-1,0.1-1.4,0.4
			c-0.3,0.3-0.5,0.8-0.5,1.2c0,0.3,0.1,0.6,0.2,0.9c0.1,0.2,0.4,0.4,0.6,0.5c-0.2,0.1-0.3,0.2-0.4,0.4c-0.1,0.1-0.2,0.3-0.2,0.5
			c0,0.1,0,0.3,0.1,0.4c0.1,0.1,0.2,0.2,0.3,0.3c-0.3,0.1-0.6,0.2-0.8,0.4c-0.2,0.2-0.3,0.5-0.3,0.7c0,0.4,0.2,0.8,0.5,1
			c0.5,0.3,1,0.4,1.5,0.3c0.7,0,1.4-0.1,2-0.4c0.4-0.3,0.7-0.8,0.7-1.3c0-0.4-0.1-0.7-0.4-1c-0.4-0.2-0.8-0.4-1.2-0.3h-0.8
			c-0.2,0-0.4,0-0.6-0.1c-0.1,0-0.2-0.1-0.2-0.2c0-0.2,0.1-0.4,0.3-0.5c0.1,0,0.3,0,0.4,0c0.5,0,1-0.1,1.4-0.4
			c0.3-0.3,0.5-0.7,0.5-1.2c0-0.2,0-0.3-0.1-0.5c0-0.1-0.1-0.3-0.2-0.4l0.8-0.1v-0.6h-1.7C464.6,421,464.5,421,464.4,421"/>
		<path class="st10" d="M468.1,423c0-0.3,0.1-0.7,0.4-0.9c0.2-0.2,0.5-0.3,0.8-0.3c0.3,0,0.6,0.1,0.8,0.3c0.2,0.3,0.3,0.6,0.3,0.9
			L468.1,423z M469.2,421c-0.6,0-1.2,0.2-1.6,0.7c-0.4,0.5-0.6,1.2-0.6,1.8c0,0.7,0.2,1.3,0.6,1.8c0.5,0.5,1.1,0.7,1.8,0.6
			c0.3,0,0.6,0,0.9-0.1c0.3,0,0.5-0.1,0.8-0.2v-0.8c-0.3,0.1-0.5,0.2-0.8,0.3c-0.3,0.1-0.5,0.1-0.8,0.1c-0.4,0-0.7-0.1-1-0.4
			c-0.3-0.3-0.4-0.7-0.4-1.1h3.2v-0.6c0-0.6-0.2-1.2-0.6-1.6C470.3,421.2,469.7,421,469.2,421"/>
		<path class="st10" d="M477.9,421c-0.3,0-0.6,0.1-0.9,0.2c-0.2,0.1-0.5,0.3-0.6,0.6h-0.1c-0.3-0.5-0.9-0.8-1.5-0.8
			c-0.3,0-0.6,0.1-0.8,0.2c-0.2,0.1-0.5,0.3-0.6,0.5h0l-0.1-0.6h-0.8v4.8h1v-2.4c0-0.4,0.1-0.9,0.3-1.3c0.2-0.3,0.5-0.4,0.9-0.4
			c0.3,0,0.5,0.1,0.7,0.3c0.2,0.2,0.2,0.5,0.2,0.8v3h1v-2.5c0-0.4,0.1-0.8,0.3-1.1c0.2-0.3,0.5-0.4,0.9-0.4c0.2,0,0.5,0.1,0.7,0.3
			c0.2,0.2,0.2,0.5,0.2,0.8v3h1v-3.1c0-0.5-0.1-1-0.4-1.3C478.8,421.1,478.3,420.9,477.9,421"/>
		<path class="st10" d="M481.7,423c0-0.3,0.1-0.7,0.3-0.9c0.2-0.2,0.5-0.3,0.8-0.3c0.3,0,0.6,0.1,0.8,0.3c0.2,0.3,0.3,0.6,0.3,0.9
			L481.7,423z M482.9,421c-0.6,0-1.2,0.2-1.6,0.7c-0.4,0.5-0.6,1.2-0.6,1.8c0,0.7,0.2,1.3,0.6,1.8c0.5,0.5,1.1,0.7,1.8,0.6
			c0.3,0,0.6,0,0.9-0.1c0.3,0,0.5-0.1,0.8-0.2v-0.8c-0.3,0.1-0.5,0.2-0.8,0.3c-0.3,0.1-0.5,0.1-0.8,0.1c-0.4,0-0.7-0.1-1-0.4
			c-0.3-0.3-0.4-0.7-0.4-1.1h3.2v-0.6c0-0.6-0.2-1.2-0.6-1.6C484,421.2,483.4,421,482.9,421"/>
		<path class="st10" d="M488.6,421c-0.3,0-0.6,0.1-0.9,0.2c-0.3,0.1-0.5,0.3-0.6,0.5h0l-0.1-0.6h-0.8v4.8h1v-2.4
			c0-0.5,0.1-0.9,0.3-1.3c0.2-0.3,0.6-0.4,0.9-0.4c0.3,0,0.5,0.1,0.7,0.3c0.2,0.2,0.2,0.5,0.2,0.8v3h1v-3.1c0.1-0.8-0.5-1.6-1.3-1.8
			C488.9,421,488.7,421,488.6,421"/>
		<path class="st10" d="M493.1,425c-0.1-0.1-0.2-0.3-0.2-0.6v-2.6h1.4v-0.8h-1.4V420h-0.6l-0.3,1l-0.7,0.4v0.5h0.7v2.6
			c0,1,0.5,1.5,1.5,1.5c0.2,0,0.4,0,0.6,0c0.1,0,0.3-0.1,0.4-0.1V425c-0.2,0.1-0.5,0.1-0.8,0.1C493.4,425.2,493.2,425.1,493.1,425"
			/>
		<path class="st10" d="M777.8,422.2L777.8,422.2c0-0.6,0-1.3-0.1-1.9c-0.2-1.6-1.7-3-3.2-3.1c-1.8-0.1-3.6,0.4-4.1,2.4
			c-0.3,1.3-0.6,2.6-0.4,3.9c0.5,2.7,1.8,3.7,4.2,3.7c1.9,0,3.9-2.1,3.6-4.1C777.7,422.7,777.8,422.5,777.8,422.2 M779.5,423.4
			c-0.2,0.4-0.3,0.9-0.5,1.3c-0.8,2.3-2.9,3.8-5.2,3.7c-2.7-0.1-4.8-1.9-5.2-4.5c-0.4-2.2-0.4-4.3,1.2-6.1c1.3-1.5,3-2.2,5-1.8
			c2.2,0.4,3.8,1.6,4.3,3.9c0.1,0.3,0.3,0.6,0.4,0.9V423.4z"/>
		<path class="st10" d="M658.1,365.2c1.2-1.6,2.1-3,3.2-4.2c2.3-2.5,5.1-4,8.4-4.7c3.8-0.9,7.6-0.8,11.3,0.4
			c5.9,1.9,9.2,6.1,10.5,11.9c0.7,3,0.9,6,0.9,9.1c-0.1,9.3,0,18.7,0,28v2.2c-1.6,0.5-7.8,0.7-11.2,0.3c0-0.7-0.1-1.5-0.1-2.4
			c0-10.1,0-20.2,0-30.3c0-1.6-0.1-3.2-0.5-4.7c-0.8-3.1-2.8-5.2-6.1-5.9c-2-0.5-4-0.2-5.9,0.3c-3.5,1-6.2,5-6.3,8.3
			c0,0.9,0,1.8,0,2.7c0,9.8,0,19.6,0,29.5v2.2c-1.5,0.6-7.5,0.7-11.2,0.3c0-0.7-0.1-1.5-0.1-2.3c0-10.4,0-20.8,0-31.1
			c0-1.6-0.3-3.2-0.7-4.7c-0.8-3-2.8-4.5-5.9-5.2c-3.9-0.8-7.1,0.6-9.9,3c-0.5,0.4-0.9,0.9-1.3,1.3c-0.7,0.6-1,1.3-0.9,2.2
			c0,1.2,0,2.4,0,3.6c0,10.2,0,20.5,0,30.7c0,0.8-0.1,1.6-0.1,2.6h-10.9c-0.4-1.8-0.5-49.4,0-51.6c2.4-0.2,4.8-0.2,7.2,0
			c0.9,0.1,1.7,0.7,2,1.6c0.3,0.8,0.4,1.6,0.6,2.4c0.1,0.6,0.2,1.2,0.4,1.9c1.9-1.5,3.6-3.1,5.5-4.3c4.6-3,9.6-3.4,14.5-1.2
			c2.8,1.2,4.8,3.5,6.1,6.4C657.6,364,657.8,364.5,658.1,365.2"/>
		<path class="st10" d="M738.5,382.5c-0.3,3.1,0.1,6.2,1.2,9.3c1.4,4.1,4,7.1,8.5,8.1c2.7,0.6,5.3,0.5,8-0.1
			c3.1-0.7,5.4-2.4,6.9-5.2c0.7-1.3,1.2-2.8,1.7-4.2c1.1-3.2,0.8-6.6,0.8-9.9c0-3.3-0.8-6.5-2.2-9.4c-0.9-1.9-2.2-3.5-4.1-4.6
			c-2.9-1.8-6.1-2.1-9.3-1.7c-4.4,0.5-7.8,2.7-9.7,6.9C738.8,375,738.2,378.5,738.5,382.5 M752.4,409.3c-6.1-0.3-11.4-1.5-16-5.1
			c-3.4-2.7-5.9-6.1-7.5-10.1c-1.5-3.9-2.2-8.1-2.1-12.2c0.2-5.8,1.3-11.5,4.9-16.3c4-5.4,9.3-8.5,16-9.5c4.4-0.6,8.6-0.3,12.8,0.9
			c3.9,1.1,7.2,3.2,10,6.1c4.2,4.5,6.1,9.8,6.6,15.8c0.4,4.7,0.1,9.3-1.3,13.8c-1,3.3-2.7,6.2-5,8.8c-3.9,4.4-8.8,6.7-14.5,7.4
			C754.8,409,753.4,409.2,752.4,409.3"/>
		<path class="st10" d="M716.2,408.2h-10.5c-0.4-1.6-0.5-49-0.1-51.5c0.5-0.1,1-0.2,1.5-0.2c2.2,0,4.3,0,6.5,0c2.6,0,2.6,0,2.6,2.7
			c0,4.1,0,8.2,0,12.3c0,11.3,0,22.7,0,34V408.2z"/>
		<path class="st10" d="M601.6,357.8c2.6,0,4.9-0.1,7.5,0.1c-0.4,2-0.7,3.8-1.1,5.6c-1.4,6.7-2.9,13.4-4.3,20.1c-0.9,4-1.7,8-2.4,12
			c-0.3,1.7-0.7,3.6,0.7,5.2c0.4,0.5,1,1,1.7,1.1c1.5,0.3,3.1,0.9,4.7,0.2c0.2-0.1,0.5,0,1,0c0.1,1.9-0.4,3.5-1,5.2
			c-0.1,0.4-0.7,0.7-1.2,0.8c-3.2,0.8-6.4,0.8-9.5-0.7c-2.9-1.4-5-5.9-4.3-9c1-5.1,2.1-10.2,3.1-15.2c1.5-7.3,3-14.6,4.5-22
			C601.2,360.2,601.4,359.1,601.6,357.8"/>
		<path class="st10" d="M710.8,334c4,0,7.2,3.3,7.1,7.4c-0.1,4.2-3.6,7.1-7.4,7.2c-3.4,0.1-7.3-3.8-7.1-7.2
			C703.6,336.8,706.7,333.8,710.8,334"/>
		<path class="st10" d="M614.1,339.7c0,3-2,5.1-4.8,5.1c-3.2,0-5.1-2.9-5.2-5.3c-0.1-2.5,2.7-4.8,5.4-4.8
			C612.1,334.8,614.1,336.9,614.1,339.7"/>
		<path class="st10" d="M733.3,422.5c1.9,0,3-1,3-2.7c0-1.7-1.3-2.8-3.2-2.7c-1.9,0.1-3,1.1-2.9,2.8
			C730.2,421.7,731.3,422.6,733.3,422.5 M733.4,431.5c1.4-0.1,2.6-0.3,3.5-1.4c1-1.2,0.7-2.3-0.8-2.6c-1.5-0.3-3-0.3-4.6-0.3
			c-0.9,0-1.6,0.5-1.8,1.4c-0.2,0.9,0.1,1.7,0.9,2.1C731.5,431.1,732.5,431.3,733.4,431.5 M729.8,426.6c-0.8-1.8-0.8-1.8,0.4-3.5
			c-0.2-0.4-0.5-0.8-0.7-1.2c-1-1.5-0.8-2.9,0.2-4.3c0.9-1.3,2.4-1.7,3.9-1.6c0.9,0,1.7,0.5,2.6,0.7c0.9,0.1,1.7,0.1,2.7,0.6
			c-0.5,0.3-0.9,0.6-1.4,0.9c0,0.2-0.1,0.4-0.1,0.5c0.7,3.4-1.2,5.5-4.7,5.3c-0.3,0-0.7-0.3-1-0.1c-0.4,0.2-0.9,0.5-1,0.9
			c-0.1,0.3,0.3,0.9,0.7,1c0.6,0.2,1.4,0.2,2,0.3c1.2,0.1,2.4,0.2,3.5,0.5c1.8,0.4,2.5,2.2,1.5,3.8c-0.4,0.7-1.1,1.3-1.8,1.7
			c-1.8,1-3.7,1.1-5.6,0.5c-2.9-1-3.5-3.1-1.4-5.3C729.7,426.8,729.7,426.7,729.8,426.6"/>
		<path class="st10" d="M620.7,427.8c-1.2,0.3-1.2-0.5-1.2-1.1c0-1.8,0-3.6,0-5.4c0-1.1,0-2.2,0-3.4c-0.6-0.3-1.2-0.6-2.2-1
			c0.9-0.2,1.4-0.4,1.9-0.5c0.1-0.2,0.2-0.4,0.2-0.6c0.2-1,0.3-2.1,0.6-3c0.4-1,1.3-1.5,2.4-1.8c0.8-0.2,1.5-0.1,2.2,0.8
			c-0.7,0.1-1.2,0.2-1.7,0.4c-0.8,0.2-1.5,0.5-1.8,1.5c-0.7,2.5-0.5,2.9,2.2,2.9c1.1,0,2.2-0.1,3.1-0.1c1.1-1.4-0.2-3.2,1.2-4.5
			c1.3,1.3,0.1,3,0.9,4.4c1,0.5,2.3-0.2,3.6,0.6c-1.2,0.9-2.5,0.2-3.8,0.8c0,2.5-0.1,5.2,0,7.8c0,1.1,1,1.7,2.1,1.4
			c0.4-0.1,0.8-0.4,1.7-0.8c-0.3,0.8-0.4,1.3-0.7,1.5c-0.9,0.7-2,0.9-3.1,0.3c-1.1-0.5-1.5-1.3-1.5-2.5c0-1.9,0-3.8,0-5.6
			c0-0.7,0-1.4,0-2.1c-2.1-0.4-4-0.2-6-0.2C620.6,421.2,621.1,424.5,620.7,427.8"/>
		<path class="st10" d="M633.3,416.3c1.3-0.1,1.4,1,1.6,1.8c0.8,2.5,1.6,5,2.5,7.9c0.4-0.9,0.6-1.5,0.9-2.2c0.7-2.2,1.4-4.4,2.2-6.5
			c0.1-0.4,0.6-0.9,1-0.9c0.3,0,0.8,0.5,0.9,0.9c0.7,2,1.3,3.9,2,5.9c0.3,0.8,0.6,1.6,1,2.9c0.6-2,1.1-3.6,1.6-5.1
			c0.4-1.3,0.8-2.5,1.3-3.8c0.2-0.7,0.3-0.6,1.5-0.8c-0.1,0.4-0.1,0.8-0.2,1.2c-1,3.1-2.1,6.2-3.1,9.3c-0.2,0.5-0.3,1.2-1,1
			c-0.4-0.1-0.9-0.6-1.1-1c-1-2.7-1.8-5.4-2.8-8.4c-0.3,0.7-0.5,1.1-0.7,1.6c-0.8,2.3-1.6,4.6-2.4,6.9c-0.1,0.4-0.6,0.9-0.9,0.9
			c-0.3,0-0.9-0.4-1-0.7c-1.2-3.5-2.3-7-3.4-10.5C633.1,416.6,633.2,416.5,633.3,416.3"/>
		<path class="st10" d="M755.7,422.7c-1.7-0.3-3.2,0.1-4.6,0.9c-0.8,0.4-1.1,1.2-0.9,2.1c0.2,0.9,0.9,1.3,1.8,1.4
			c2.7,0.2,4.1-1.2,3.9-3.9C756,423.1,755.9,423,755.7,422.7 M757.2,428.1c-0.4-0.5-0.8-0.8-1.2-1.3c-0.2,0.1-0.4,0.3-0.7,0.4
			c-1.4,1-2.8,1.5-4.5,0.9c-1.3-0.4-2-1.4-2.2-2.6c-0.2-1.2,0.6-2.2,1.6-2.7c1.1-0.6,2.5-0.9,3.7-1.1c1.8-0.3,2.1-0.5,2.1-1.9
			c0-1.6-0.9-2.6-2.3-2.6c-1.1-0.1-2,0.4-2.8,1.1c-0.6,0.6-1.1,0.5-1.5-0.4c1.7-1.3,3.4-2.4,5.7-1.7c1.6,0.5,2.5,1.6,2.6,3.2
			c0.1,2.7,0,5.4,0,8.1C757.6,427.6,757.5,427.7,757.2,428.1"/>
		<path class="st10" d="M606.6,422.1c0,0.6-0.1,1.1,0,1.7c0.2,1.7,1.6,3.1,3.3,3.3c2.1,0.2,3.4-0.5,4.1-2.4c0.7-1.7,0.7-3.4,0-5.1
			c-0.7-1.8-2.2-2.7-4.1-2.4c-1.6,0.2-3.1,1.6-3.3,3.3C606.5,421,606.6,421.6,606.6,422.1 M615.8,421.8c0.2,3.9-1.6,5.8-4.4,6.5
			c-2.2,0.5-4.7-0.7-5.7-2.8c-1-2.1-1.1-4.3-0.1-6.4c1-2.2,3.3-3.5,5.6-3.1c2.7,0.4,4.5,2.3,4.7,4.8
			C615.8,421.2,615.8,421.7,615.8,421.8"/>
		<path class="st10" d="M724.8,420.8c0-2.4-1-3.5-2.8-3.7c-2.4-0.2-3.7,0.9-4.2,3.7h4.8H724.8z M726,421.7h-8.3
			c-0.2,2,0.4,3.5,1.8,4.6c1.3,1.1,2.8,1,4.3,0.3c1.4-0.6,1.4-0.6,2.3-0.3c-1.4,1.6-3.1,2.1-5,1.9c-1.9-0.2-3.6-1.1-4.4-3.1
			c-0.7-1.9-0.7-3.8-0.2-5.7c0.6-2.5,3.9-4.4,6.9-3.2C725.6,417.2,726.6,419.1,726,421.7"/>
		<path class="st10" d="M680.1,420.7c-0.3-2.5-1.2-3.4-3.1-3.5c-2.3-0.1-3.5,0.9-4.1,3.5H680.1z M681.5,421.8H673
			c-0.5,3.9,1.9,6.1,5.3,5.1c0.8-0.2,1.6-0.6,2.9-1c-0.4,0.7-0.4,1.2-0.7,1.3c-3.9,2.5-8.4,0.8-9.2-3.6c-0.3-1.8-0.1-3.4,0.8-5
			c1.5-2.7,5.2-3.5,7.6-1.7C681.1,418,681.5,419.6,681.5,421.8"/>
		<path class="st10" d="M658.7,422.7c-2.1-0.3-3.8,0.1-5.4,1.2c-0.6,0.4-0.9,1-0.6,1.6c0.3,0.6,0.7,1.4,1.2,1.5
			c1.4,0.3,2.7,0.2,3.9-0.8C659.1,425.2,658.9,424.1,658.7,422.7 M659.9,428.3c-0.7-0.6-1-0.9-1.3-1.2c-1.1,0.4-2,1-3.1,1.2
			c-1.7,0.4-3.7-0.6-4.1-2.1c-0.4-1.6,0.5-3.3,2.3-3.9c0.9-0.3,1.9-0.5,2.8-0.6c2-0.2,2.4-0.4,2.3-1.7c-0.1-1.7-1.2-3-2.7-2.8
			c-0.9,0.1-1.7,0.5-2.5,0.9c-0.4,0.1-0.7,0.4-1.2,0.8c0-0.6-0.1-1.1,0-1.3c0.8-1.2,3.4-1.9,4.9-1.5c1.8,0.5,2.8,1.7,2.8,3.6
			c0.1,2.4,0,4.7,0,7.1C660.2,427.2,660,427.5,659.9,428.3"/>
		<path class="st10" d="M696.6,416.3c0.3,0.3,0.7,0.6,1.1,1c0.4-0.2,0.8-0.5,1.3-0.7c3.5-1.9,6.6,0.6,6.4,3.7c-0.2,2.1,0,4.3,0,6.5
			c0,0.6,0,1.3-1.2,1c0-0.6-0.1-1.3-0.1-1.9c0-1.7,0-3.5,0-5.2c0-2.3-1.2-3.5-3-3.5c-2.1,0.1-3.6,1.5-3.6,3.5c0,1.9,0,3.9,0,5.8
			c0,0.6,0.1,1.3-1.1,1.4c-0.6-1.9-0.2-3.8-0.3-5.7c-0.1-1.9,0-3.9,0-5.8C696.2,416.4,696.4,416.4,696.6,416.3"/>
		<path class="st10" d="M602.2,418.1c-0.8-0.3-1.4-0.6-1.9-0.7c-0.9-0.1-1.8-0.2-2.6,0.1c-1.5,0.5-1.7,2.2-0.4,3.1
			c0.4,0.3,1,0.5,1.5,0.7c0.7,0.2,1.4,0.3,2,0.6c2.7,1.1,2.6,4.3,0.6,5.7c-2,1.4-5,1.1-6.6-1.1c0.6,0.1,1,0.1,1.5,0.2
			c0.9,0.2,1.7,0.5,2.6,0.5c1.3,0.1,2.3-0.7,2.5-1.7c0.2-1-0.3-1.8-1.6-2.4c-0.4-0.2-0.9-0.3-1.4-0.4c-0.7-0.3-1.5-0.5-2.1-0.9
			c-1.5-1-2-2.3-0.8-4.1c1.2-1.9,5.2-2.1,6.7-0.5C602.3,417.2,602.2,417.5,602.2,418.1"/>
		<path class="st10" d="M761.5,417.9c-0.7-0.3-1.1-0.5-1.5-0.6c0.1-0.2,0.1-0.4,0.2-0.4c0.5-0.2,1-0.4,1.4-0.5c0.7-1.4-0.3-3,1-4.3
			c1.3,1.3,0.1,3,1,4.5c1,0.1,2.1,0.2,3.6,0.3c-1.3,1.2-2.7,0.4-3.9,1.1c0,1.3,0,2.8,0,4.3c0,1,0,2.1,0,3.1c0.1,1.6,0.6,1.9,2.1,1.5
			c0.4-0.1,0.8-0.3,1.1-0.4c0.7,0.5,0.5,0.9,0,1.3c-2.2,1.4-4.6,0.3-4.9-2.3c-0.1-1.3,0-2.6,0-4
			C761.5,420.3,761.5,419.2,761.5,417.9"/>
		<path class="st10" d="M710.9,417.9c0,2.4-0.1,4.9,0,7.4c0.1,1.7,0.9,2.1,2.6,1.6c0.4-0.1,0.7-0.2,1.2-0.3
			c-0.5,1.4-1.6,2.1-2.8,1.9c-1.3-0.2-2.3-1-2.3-2.3c-0.1-1.2,0-2.5,0-3.7c0-1.5,0-2.9,0-4.5c-0.7-0.2-1.3-0.4-2.2-0.8
			c0.6-0.3,0.9-0.4,1.2-0.5c0.3-0.1,0.5-0.1,0.8-0.2c0.6-1.4-0.3-3.1,1.2-4.4c0.9,1.4,0,3,0.8,4.3c1,0.1,2.1,0.3,3.7,0.5
			C713.4,418,712.1,417.3,710.9,417.9"/>
		<path class="st10" d="M741.9,415.9c0.4,0.8,0.6,1.2,0.9,1.6c2.4-2.1,4-2.2,4.7-0.3c-0.4,0.1-0.7,0.3-1.1,0.3
			c-2.6,0.2-3.7,1.3-3.8,3.9c0,1.7,0,3.5,0,5.2c0,0.5,0.1,1.2-0.8,1.4c-0.2-0.2-0.4-0.4-0.5-0.7C741,425.4,741.3,417.4,741.9,415.9"
			/>
		<path class="st10" d="M670.1,416.6c-0.3,1-1,0.9-1.6,0.9c-2.1,0.2-3.2,1.3-3.3,3.5c0,1.6,0,3.2,0,4.8c0,0.3,0.1,0.7,0,1
			c-0.1,0.4-0.4,0.7-0.7,1.1c-0.2-0.4-0.6-0.8-0.6-1.1c-0.1-2.3,0-4.6,0-6.9c0-0.8-0.1-1.5-0.1-2.3c0-0.4,0.2-1.1,0.4-1.2
			c0.6-0.3,0.8,0.3,1,0.8c0,0.1,0.1,0.2,0.2,0.4C667.4,415.7,668.3,415.6,670.1,416.6"/>
		<path class="st10" d="M692.4,422.1c0,1.4,0,2.8,0,4.2c0,0.4,0,0.8-0.1,1.2c-0.1,0.2-0.4,0.5-0.6,0.4c-0.3,0-0.6-0.2-0.8-0.4
			c-0.1-0.1-0.1-0.4-0.1-0.6c0-3.2,0-6.4,0-9.5c0-0.6,0.2-1.2,0.9-1c0.3,0.1,0.7,0.7,0.7,1C692.4,418.9,692.4,420.5,692.4,422.1
			L692.4,422.1z"/>
		<path class="st10" d="M691.3,413.4c-0.2-0.2-0.8-0.6-0.9-1.1c0-0.3,0.6-0.9,1-1c0.6-0.2,1.2,0.2,1.3,0.9
			C692.8,412.8,692.3,413.3,691.3,413.4"/>
		<path class="st10" d="M-217.8,355.7c0.6,0.5,1.1,1,1.7,1.5c-0.2,0.2-0.3,0.4-0.5,0.6c-0.6-0.6-1.2-1.1-1.7-1.6
			c-0.7,0.7-1.3,1.3-2,2.1c0.5,0.5,1.1,1,1.8,1.6c0,0.1-0.1,0.2-0.1,0.3c0,0.1-0.1,0.2-0.2,0.3c-0.7-0.6-1.4-1.1-2.1-1.7
			c-0.6,0.7-1.2,1.5-1.9,2.2c0.8,0.6,1.5,1.1,2.2,1.6c-0.1,0.2-0.2,0.3-0.3,0.5c-0.8-0.5-1.5-1-2.3-1.6c-0.6,0.8-1.1,1.6-1.7,2.4
			c0.9,0.5,1.7,1,2.5,1.5c-0.1,0.2-0.2,0.4-0.3,0.6c-0.9-0.5-1.7-1-2.5-1.5c-0.6,0.8-1,1.6-1.5,2.6c0.9,0.5,1.8,0.9,2.7,1.3
			c-0.1,0.2-0.1,0.4-0.2,0.6c-1-0.4-1.9-0.9-2.9-1.3c-0.4,0.9-0.8,1.8-1.3,2.7c1.1,0.4,2,0.8,3,1.1c-0.1,0.6-0.2,0.6-0.6,0.5
			c-0.6-0.2-1.3-0.5-1.9-0.7c-0.2-0.1-0.4-0.1-0.8-0.2c-0.3,0.9-0.7,1.8-1,2.8c1,0.4,2,0.5,3,0.9c0,0.6-0.1,0.6-0.5,0.5
			c-0.6-0.1-1.2-0.3-1.8-0.5c-0.3-0.1-0.5-0.1-0.9-0.2c-0.3,1-0.5,1.9-0.8,2.9c1.1,0.2,2.1,0.4,3.1,0.6c0,0.6,0,0.6-0.5,0.6
			c-0.6-0.1-1.2-0.2-1.8-0.3c-0.3,0-0.6-0.1-0.9-0.1c-0.2,1-0.4,1.9-0.6,2.9c0.6,0.1,1,0.1,1.5,0.2c0.5,0.1,0.9,0.1,1.4,0.1
			c0.1,0,0.3,0.2,0.3,0.3c0,0.2-0.1,0.3-0.4,0.3c-0.4,0-0.7-0.1-1.1-0.1c-0.6,0-1.1-0.1-1.7-0.1c-0.3,1-0.2,1.9-0.4,2.9
			c1.1,0.2,2.1,0,3.2,0.2v0.6h-3.1v3.1c1.1-0.1,2.1-0.1,3.1-0.2c0,0.2,0,0.4,0.1,0.6c-1.1,0.1-2.1,0.2-3.2,0.3c0,1,0.1,2,0.3,3
			c1-0.2,2-0.3,3-0.5c0.2,0.6,0.2,0.6-0.3,0.7c-0.7,0.1-1.4,0.3-2.1,0.4c-0.2,0-0.4,0.1-0.6,0.1c0,1,0.2,2,0.4,3
			c1.1-0.1,2-0.6,3-0.7c0.3,0.5,0.3,0.6-0.2,0.7c-0.6,0.2-1.3,0.4-1.9,0.5c-0.2,0.1-0.4,0.1-0.7,0.2c0.2,1,0.5,2,0.7,3
			c1.1-0.4,2-0.7,3-1.1c0.3,0.6,0.3,0.6-0.1,0.7c-0.6,0.2-1.1,0.4-1.7,0.6c-0.3,0.1-0.5,0.2-0.9,0.4c0.3,1,0.6,1.9,1,2.9
			c1-0.4,1.9-0.9,2.9-1.3c0.1,0.2,0.2,0.3,0.3,0.6c-1,0.5-1.9,0.9-2.9,1.4c0.4,1,0.8,1.9,1.3,2.9c0.9-0.5,1.8-1.1,2.7-1.6
			c0.1,0.2,0.2,0.4,0.3,0.6c-0.9,0.6-1.8,1.1-2.8,1.6c0.5,0.9,1,1.8,1.6,2.8c0.9-0.6,1.7-1.2,2.6-1.8c0.1,0.2,0.2,0.3,0.4,0.5
			c-0.9,0.6-1.7,1.2-2.6,1.9c0.6,0.9,1.2,1.7,1.8,2.6c0.9-0.6,1.6-1.4,2.5-2c0.1,0.1,0.2,0.3,0.4,0.5c-0.8,0.7-1.6,1.4-2.4,2.1
			c0.7,0.8,1.3,1.6,2.1,2.4c0.8-0.8,1.5-1.5,2.2-2.3c0.2,0.1,0.3,0.3,0.5,0.4c-0.8,0.8-1.5,1.5-2.3,2.3c0.7,0.8,1.5,1.5,2.2,2.3
			c0.7-0.8,1.4-1.6,2.1-2.5c0.2,0.2,0.3,0.3,0.5,0.4c-0.7,0.8-1.3,1.6-2,2.5c0.1,0.2,0.2,0.3,0.4,0.4c0.6,0.6,1.3,1.1,2,1.7
			c0.7-0.8,1.2-1.7,1.9-2.6c0.2,0.1,0.3,0.2,0.5,0.3c-0.6,0.9-1.2,1.8-1.8,2.7c0.9,0.6,1.7,1.2,2.6,1.9c0.6-1,1.1-1.9,1.6-2.8
			c0.2,0.1,0.3,0.2,0.6,0.3c-0.5,0.9-1,1.8-1.6,2.8c0.9,0.5,1.8,1.1,2.8,1.6c0.5-1,0.9-1.9,1.3-2.9c0.6,0.2,0.6,0.2,0.4,0.7
			c-0.3,0.6-0.5,1.2-0.8,1.8c-0.1,0.2-0.2,0.4-0.3,0.8c1,0.4,1.9,0.9,2.9,1.3c0.4-1.1,0.8-2,1.1-3c0.2,0.1,0.4,0.1,0.6,0.2
			c-0.3,1-0.7,2-1.1,3c1,0.5,1.9,0.9,3,1.1c0.4-1,0.5-2,0.9-3.1c0.2,0,0.4,0.1,0.6,0.1c-0.3,1.1-0.5,2.1-0.8,3.2
			c1,0.3,2,0.6,3.1,0.9c0.2-1.1,0.4-2.1,0.6-3.2c0.2,0,0.4,0.1,0.6,0.1c-0.2,1.1-0.3,2.1-0.5,3.1c1,0.3,2.1,0.4,3.2,0.6
			c0.1-0.3,0.1-0.6,0.2-0.9c0.1-0.6,0.1-1.2,0.2-1.8c0-0.2,0.1-0.4,0.3-0.4c0.3,0,0.3,0.2,0.3,0.5c0,0.5-0.1,1.1-0.1,1.6
			c0,0.4,0,0.7,0,1.1c1,0.2,2,0.1,3.1,0.3c0.2-1.1,0-2.2,0.2-3.2c0.4-0.2,0.6,0,0.6,0.4c0,0.6,0,1.3,0,1.9c0,0.3,0,0.5,0,0.8
			c1.1,0,2.1,0.1,3.2-0.1c-0.1-1.1-0.2-2.1-0.2-3.1c0.6-0.1,0.6-0.1,0.7,0.3c0.1,0.6,0.1,1.3,0.2,1.9c0,0.3,0.1,0.5,0.1,0.9
			c1.1,0,2.1-0.2,3.2-0.3c-0.2-1.1-0.3-2.1-0.5-3.1c0.4-0.2,0.6-0.2,0.7,0.2c0.1,0.7,0.2,1.3,0.4,2c0,0.2,0.1,0.5,0.2,0.8
			c1.1,0,2.1-0.3,3.2-0.6c-0.3-1-0.5-2-0.7-3c0.5-0.4,0.6-0.3,0.7,0.1c0.2,0.6,0.3,1.2,0.5,1.8c0.1,0.3,0.2,0.5,0.3,0.9
			c1.1-0.2,2.1-0.6,3.1-1c-0.4-1-0.7-2-1-2.9c0.5-0.3,0.6-0.3,0.7,0.1c0.2,0.6,0.4,1.2,0.6,1.8c0.1,0.2,0.2,0.5,0.3,0.8
			c1-0.3,2-0.7,3.1-1.2c-0.4-1-0.8-1.9-1.3-2.9c0.2-0.1,0.3-0.2,0.5-0.3c0.5,1,0.9,1.9,1.4,2.9c1-0.5,1.9-1,3-1.5
			c-0.5-1-1-1.9-1.6-2.8c0.2-0.1,0.3-0.2,0.5-0.3c0.5,0.9,1.1,1.8,1.6,2.8c0.9-0.6,1.8-1.2,2.8-1.8c-0.5-1-1.2-1.8-1.8-2.7
			c0.2-0.1,0.3-0.2,0.5-0.4c0.6,0.9,1.2,1.7,1.8,2.6c0.9-0.6,1.8-1.3,2.7-2c-0.7-0.8-1.3-1.6-2-2.5c0.2-0.1,0.3-0.3,0.5-0.4
			c0.7,0.8,1.4,1.6,2.1,2.5c0.9-0.8,1.6-1.5,2.5-2.2c-0.8-0.8-1.5-1.5-2.2-2.3c0.1-0.2,0.2-0.3,0.4-0.5c0.8,0.8,1.5,1.5,2.3,2.3
			c0.8-0.8,1.5-1.6,2.3-2.5c-0.8-0.7-1.6-1.4-2.4-2.1c0.1-0.2,0.3-0.3,0.4-0.5c0.8,0.7,1.6,1.3,2.4,2c0.7-0.9,1.4-1.7,2.1-2.6
			c-0.9-0.6-1.7-1.2-2.6-1.9c0.1-0.2,0.2-0.3,0.4-0.5c0.9,0.6,1.7,1.2,2.6,1.8c0.6-1,1.2-1.9,1.8-2.9c-0.9-0.6-1.8-1.1-2.7-1.6
			c0.1-0.2,0.2-0.4,0.3-0.6c0.9,0.5,1.8,1,2.6,1.5c0.4-0.4,1.1-1.6,1.6-2.9c-0.9-0.4-1.8-0.9-2.8-1.4c0.1-0.2,0.1-0.4,0.2-0.6
			c1,0.5,1.9,0.9,2.9,1.3c0.5-1,0.8-2,1.2-3.1c-1-0.4-2-0.8-3-1.1c0.1-0.2,0.2-0.4,0.2-0.6c1,0.4,2,0.7,3,1.1c0.5-1,0.7-2.1,1-3.2
			c-1.1-0.3-2-0.6-3.1-0.9c0.1-0.2,0.1-0.4,0.2-0.6c1,0.3,2,0.5,3.1,0.8c0.4-1.1,0.6-2.2,0.7-3.3c-1-0.2-2-0.4-3-0.6
			c0-0.6,0-0.6,0.4-0.6c0.7,0.1,1.4,0.2,2.1,0.4c0.2,0,0.3,0,0.6,0.1c0.3-1.1,0.4-2.1,0.4-3.3c-1-0.1-2-0.2-3-0.3
			c-0.1-0.6-0.1-0.6,0.4-0.6c0.5,0,1.1,0.1,1.6,0.1c0.4,0,0.7,0,1.2,0c0.1-1.1,0.1-2.1,0.2-3.3c-0.4,0-0.6-0.1-0.9-0.1
			c-0.6,0-1.3,0-1.9,0c-0.4,0-0.5-0.2-0.3-0.7h3.1c0-1.2,0.1-2.3-0.1-3.4c-1,0.1-2,0.2-3.1,0.2c0-0.2-0.1-0.4-0.1-0.6
			c1-0.1,2-0.2,3.1-0.3c0-1.1-0.2-2.1-0.4-3.3c-0.3,0-0.6,0-0.9,0.1c-0.6,0.1-1.2,0.2-1.8,0.3c-0.4,0.1-0.4,0-0.5-0.5
			c0.4-0.3,1-0.3,1.5-0.4c0.5-0.1,1-0.2,1.6-0.3c-0.1-1.1-0.4-2.2-0.7-3.3c-1,0.3-2,0.5-3.1,0.8c-0.1-0.2-0.1-0.4-0.2-0.6
			c1-0.3,2-0.6,3-0.8c-0.2-1.1-0.6-2.1-0.9-3.2c-1,0.4-2,0.7-3,1.1c-0.1-0.2-0.1-0.4-0.2-0.6c1-0.4,1.9-0.7,3-1.1
			c-0.4-1.1-0.8-2.1-1.2-3.1c-0.5,0.2-0.9,0.4-1.3,0.6c-0.4,0.2-0.8,0.4-1.2,0.6c-0.2,0.1-0.4,0.1-0.5-0.1c-0.1-0.3,0-0.4,0.2-0.5
			c0.6-0.3,1.2-0.6,1.8-0.8c0.2-0.1,0.5-0.2,0.8-0.4c-0.5-1-1-2-1.6-3c-1,0.6-1.8,1.1-2.8,1.6c-0.1-0.2-0.2-0.3-0.4-0.5
			c0.9-0.6,1.8-1.1,2.8-1.7c-0.6-1-1.2-1.9-1.8-2.9c-0.9,0.6-1.7,1.2-2.6,1.8c-0.1-0.2-0.2-0.3-0.4-0.5c0.9-0.6,1.7-1.3,2.6-1.9
			c-0.7-0.9-1.3-1.8-2-2.7c-0.9,0.6-1.6,1.4-2.5,2c-0.1-0.2-0.2-0.3-0.4-0.5c0.8-0.7,1.6-1.4,2.4-2.1c-0.7-0.9-1.5-1.7-2.2-2.5
			c-0.8,0.8-1.5,1.5-2.3,2.3c-0.2-0.1-0.3-0.3-0.5-0.4c0.8-0.8,1.5-1.5,2.3-2.3c-0.8-0.8-1.6-1.5-2.4-2.3c-0.7,0.9-1.4,1.6-2.1,2.5
			c-0.2-0.1-0.3-0.3-0.5-0.4c0.7-0.8,1.3-1.6,2-2.5c-0.9-0.7-1.7-1.4-2.6-2.1c-0.6,0.9-1.2,1.7-1.8,2.6c-0.2-0.1-0.3-0.2-0.6-0.3
			c0.6-0.9,1.2-1.8,1.8-2.7c-0.9-0.6-1.8-1.2-2.8-1.8c-0.6,1-1.1,1.8-1.6,2.8c-0.2-0.1-0.3-0.2-0.6-0.3c0.5-0.9,1-1.8,1.6-2.8
			c-0.5-0.3-1-0.6-1.5-0.8c-0.5-0.3-0.9-0.5-1.5-0.8c-0.5,1-0.9,1.9-1.3,2.8c-0.6-0.2-0.6-0.2-0.4-0.6c0.4-0.8,0.7-1.6,1.1-2.4
			c-0.4-0.4-1.9-1.1-3.1-1.4c-0.3,1-0.7,1.9-1.1,2.9c-0.6-0.1-0.6-0.2-0.5-0.6c0.2-0.6,0.4-1.2,0.7-1.9c0.1-0.2,0.1-0.5,0.2-0.8
			c-1-0.5-2.1-0.7-3.1-1.1c-0.3,1.1-0.6,2.1-0.9,3c-0.6-0.1-0.6-0.1-0.5-0.6c0.1-0.6,0.3-1.2,0.5-1.8c0.1-0.3,0.1-0.5,0.2-0.8
			c-1-0.4-2.1-0.6-3.2-0.8c-0.2,1.1-0.4,2.1-0.6,3.1c-0.2,0-0.4-0.1-0.6-0.1c0.2-1.1,0.4-2.2,0.6-3.3c1,0.2,2,0.3,2.9,0.5
			c3.8,0.8,7.5,2,11,3.8c4.2,2.1,8.1,4.7,11.6,7.9c5.5,5.1,9.7,11.1,12.5,18.2c1.5,3.9,2.5,7.9,3.1,12c0.4,2.7,0.5,5.5,0.4,8.2
			c-0.1,4.2-0.7,8.4-1.9,12.4c-1.1,3.9-2.6,7.6-4.7,11.1c-2.2,3.8-4.8,7.4-7.9,10.6c-6.8,7-15,11.5-24.4,13.9
			c-2.7,0.7-5.4,1.1-8.2,1.2c-4.3,0.3-8.6,0.1-12.8-0.7c-11.1-2.2-20.6-7.3-28.4-15.7c-3.8-4.1-6.9-8.8-9.3-13.9
			c-2-4.3-3.4-8.8-4.2-13.5c-0.6-3.5-0.9-7.1-0.8-10.7c0.2-6.9,1.6-13.6,4.4-20c2.7-6.3,6.4-11.9,11.2-16.7c1.9-2,4-3.8,6.2-5.5
			c0.2-0.2,0.4-0.3,0.7-0.5c-0.9-2.3-1.7-4.5-2.6-6.8c0.1-0.1,0.1-0.1,0.1-0.1c0,0,0,0,0.1,0c0.1,0,0.2,0,0.4,0
			c8.7,1.4,17.5,2.7,26.3,4.1c0,0.4-0.2,0.5-0.4,0.8c-2.5,3.1-5,6.3-7.4,9.4c-2.8,3.6-5.7,7.2-8.5,10.8c-0.2,0.2-0.3,0.4-0.6,0.7
			c-0.9-2.2-1.7-4.3-2.5-6.4C-215.6,353.6-217.2,355-217.8,355.7"/>
		<path class="st10" d="M-191.9,392.8c0,1.1-0.1,2.1,0.1,3.1c0.2,0.9,0.7,1.5,1.6,1.8c0.3,0.1,0.6,0.2,0.8,0.2
			c1.2,0,2.4,0.1,3.7,0.1c0.7,0,1.4-0.2,2.1-0.3c0.8-0.2,1.3-0.8,1.4-1.6c0.1-0.5,0-1.1,0-1.6c-0.1-0.7-0.5-1.2-1.2-1.3
			c-0.7-0.2-1.4-0.3-2-0.3c-1.9,0-3.7,0-5.6,0C-191.3,392.8-191.6,392.8-191.9,392.8 M-191.8,388.1c0.4,0,0.6,0,0.9,0
			c2.3,0,4.6,0,6.8,0c1.3,0,2.5,0.3,3.7,0.7c2.7,0.9,4,2.8,4.3,5.6c0.1,1.1,0,2.3-0.2,3.4c-0.4,1.8-1.5,3-3.1,3.8
			c-1.5,0.7-3.2,1-4.8,1.1c-2.1,0-4.1,0-6.2,0c-1.3,0-2.6-0.3-3.8-0.8c-2.1-0.9-3.3-2.6-3.6-4.8c-0.1-0.6-0.2-1.1-0.2-1.7
			c0-3,0-5.9,0-8.8c0-1,0.2-1.9,0.6-2.9c0.5-1.4,1.4-2.5,2.7-3.2c1.2-0.6,2.5-1,3.8-1.1c1.5-0.1,3-0.1,4.5-0.1c1.1,0,2.3,0,3.4,0.1
			c1.8,0.2,3.4,0.8,4.9,2c1,0.9,1.6,2,1.7,3.3c0.1,1.2-0.5,2-1.7,2c-0.5,0-1.1,0-1.6,0c-0.9,0.1-1.7-0.3-2.1-1.1
			c-0.7-1.2-1.8-1.7-3.1-1.7c-1.3,0-2.5,0-3.8,0c-0.3,0-0.6,0.1-0.9,0.1c-1.1,0.2-1.8,0.9-2,2.1
			C-191.9,386.7-191.9,387.3-191.8,388.1"/>
		<path class="st10" d="M-166.9,384v3.9c0.3,0,0.6,0,0.9,0c2,0,4,0,6,0.1c1.1,0.1,2.1,0.3,3.2,0.6c2.4,0.8,3.8,2.4,4.2,5
			c0.2,1.5,0.2,2.9-0.2,4.3c-0.4,1.6-1.4,2.7-2.8,3.5c-1.7,0.9-3.4,1.2-5.3,1.2c-1.7,0-3.4,0-5,0c-2.2-0.1-4.2-0.6-6-2
			c-1-0.8-1.7-1.8-1.9-3.2c-0.2-1.5,0.4-2.4,1.9-2.4c0.6,0,1.1,0,1.7,0c0.8,0,1.4,0.4,1.8,1.1c0.8,1.5,2.1,1.8,3.6,1.9
			c1.2,0,2.4,0,3.7-0.1c0.3,0,0.6-0.1,0.9-0.2c1.1-0.3,1.6-1,1.7-2.2c0-0.2,0-0.4,0-0.6c0-1.1-0.5-1.8-1.6-2.1
			c-0.8-0.2-1.7-0.3-2.5-0.3c-2.9,0-5.8,0-8.6,0c-0.4,0-0.8,0-1.1-0.3c-0.5-0.4-0.7-0.8-0.6-1.4c0-1.1,0-2.1,0-3.2
			c0-2.2,0-4.3,0-6.5c0-0.5,0.1-1,0.5-1.4c0.3-0.2,0.6-0.3,0.9-0.4c0.2-0.1,0.5,0,0.8,0c5,0,10,0,15.1,0c1.9,0,2.3,0.9,2.2,2.3
			c0,0.4,0,0.7-0.1,1.1c-0.1,0.8-0.7,1.2-1.4,1.3c-0.2,0-0.4,0-0.6,0c-3.4,0-6.8,0-10.2,0H-166.9z"/>
		<path class="st10" d="M-202.5,390.9c0.3,0.3,0.5,0.5,0.8,0.7c1.3,1.2,1.7,2.8,1.6,4.5c0,0.7-0.2,1.3-0.3,1.9
			c-0.4,1.6-1.4,2.7-2.8,3.4c-1.7,0.9-3.5,1.1-5.3,1.2c-1.6,0-3.1,0-4.7,0c-2.6-0.1-5.1-0.9-7.1-2.7c-1.2-1-1.7-2.4-1.6-4
			c0.1-0.9,0.6-1.6,1.5-1.6c0.7,0,1.5,0,2.2,0c0.7,0,1.2,0.5,1.7,1c0.1,0.2,0.3,0.4,0.4,0.6c0.5,1.1,1.4,1.7,2.5,1.9
			c1.4,0.2,2.8,0.2,4.2,0.1c0.5,0,1.1-0.1,1.6-0.3c1-0.3,1.4-0.9,1.5-2.1c0-1.2-0.4-1.9-1.4-2.2c-0.7-0.2-1.5-0.3-2.2-0.3
			c-0.9-0.1-1.9,0-2.8,0c-1,0-1.6-0.6-1.7-1.6c0-0.4,0-0.8,0-1.2c0-1,0.7-1.6,1.6-1.6c1,0,2,0,3-0.1c0.6,0,1.1-0.1,1.7-0.3
			c1-0.3,1.4-1,1.4-2.1c0-1.1-0.4-1.7-1.4-2c-0.3-0.1-0.7-0.2-1.1-0.2c-1.4-0.1-2.7-0.2-4.1,0c-1.1,0.2-2,0.8-2.6,1.9
			c-0.5,1-1.3,1.5-2.4,1.5c-0.5,0-1,0-1.4,0c-1.1,0-1.8-0.7-1.8-1.8c0-1,0.3-1.8,0.8-2.6c0.9-1.3,2.2-2.2,3.6-2.8
			c1.5-0.6,3-0.9,4.6-0.9c1.5,0,3,0,4.5,0.1c1.3,0.1,2.5,0.4,3.7,0.9c2.4,1.1,3.6,3,3.7,5.7c0,1,0,1.9-0.4,2.8
			C-201.2,389.5-201.8,390.2-202.5,390.9"/>
		<path class="st10" d="M-181.7,358c0.3-0.3,0.6-0.5,0.9-0.8c-0.5-0.5-1-1-1.5-1.5c-0.3,0.3-0.6,0.5-0.8,0.8
			C-182.6,357-182.1,357.5-181.7,358 M-192.8,368.5c0.6,0,1-0.5,1-1.1c0-0.5-0.4-0.9-0.9-0.9c-0.6,0-1,0.5-1,1.1
			C-193.6,368.2-193.3,368.5-192.8,368.5 M-186.5,363.5c-0.2,0.2-0.4,0.4-0.6,0.7c-1.3,1.6-2.7,3.1-4,4.7c-0.2,0.2-0.3,0.3-0.5,0.5
			c-0.8,0.6-1.9,0.5-2.6-0.2c-0.6-0.7-0.7-1.7-0.2-2.6c0.2-0.3,0.5-0.6,0.8-0.9c1.7-1.6,3.4-3.2,5.1-4.8c0.1-0.1,0.3-0.2,0.5-0.4
			c-0.2-0.2-0.2-0.4-0.4-0.5c-1.2-1.2-2.4-2.5-3.7-3.7c-0.2-0.2-0.5-0.4-0.9-0.5c-0.5-0.2-0.9-0.5-1.2-0.9c-0.4-0.7-0.9-1.3-1.4-2
			c0.4-0.3,0.7-0.6,1.1-0.9c0.8,0.6,1.6,1.2,2.4,1.8c0.1,0.1,0.2,0.4,0.3,0.6c0.1,0.5,0.4,1,0.8,1.3c1.1,1.1,2.1,2.2,3.2,3.2
			c0.2,0.2,0.4,0.4,0.6,0.6c0.6-0.5,1.3-1,1.6-1.7c0.3-0.4,0.4-1,0.5-1.5c0.1-0.7,0.1-1.4,0.1-2.1c0-0.3,0.1-0.7,0.3-0.9
			c0.5-0.6,1.1-1.2,1.8-1.7c0.6-0.5,1.4-0.6,2.1-0.5c0.1,0,0.3,0.1,0.5,0.2c-0.7,0.7-1.4,1.4-2,2.1c0.6,0.5,1.1,1.1,1.7,1.6
			c0.6-0.6,1.3-1.3,2.1-2.1c0.4,1.4,0.1,2.5-0.7,3.5c0.2,0.2,0.4,0.4,0.6,0.6c0.5,0.6,0.4,1.2-0.4,1.5c-0.8,0.3-1.6,0.5-2.4,0.7
			c-1.1,0.3-2,0.8-2.8,1.7c0.2,0.2,0.4,0.4,0.5,0.6c1.5,1.6,3.1,3.1,4.6,4.7c0.3,0.3,0.5,0.6,0.6,1c0.2,0.7,0,1.5-0.6,1.9
			c-0.6,0.4-1.4,0.5-2,0c-0.2-0.2-0.4-0.3-0.6-0.5c-1.4-1.4-2.8-2.9-4.3-4.3C-186.1,363.9-186.3,363.7-186.5,363.5"/>
		<path class="st10" d="M-181.5,449.7c0-0.6-0.1-1.1-0.1-1.5c-0.2-1.7-0.4-3.4-0.5-5.2c0-0.1,0-0.2,0-0.4c0-0.6,0.2-0.8,0.7-0.9
			c0.4-0.1,0.8-0.1,1.1-0.1c0.7,0,1,0.2,1.1,1c0.1,0.9,0.2,1.8,0.3,2.8c0.2,2.2,0.5,4.4,0.7,6.5c0,0.1,0,0.2,0,0.4
			c0,0.6-0.2,0.9-0.8,1c-0.8,0.1-1.6,0.2-2.4,0.3c-0.6,0.1-1.1-0.3-1.5-0.7c-0.9-1.1-1.8-2.2-2.7-3.4c-0.6-0.7-1.1-1.4-1.7-2.1
			c-0.1-0.1-0.2-0.3-0.5-0.4c0,0.4,0,0.7,0.1,1c0.2,1.6,0.3,3.1,0.5,4.7c0,0,0,0.1,0,0.1c0.1,1.1-0.1,1.3-1.2,1.4
			c-0.3,0-0.6,0.1-0.9,0.1c-0.5,0-0.8-0.2-0.9-0.7c-0.1-0.6-0.1-1.2-0.2-1.7c-0.3-2.6-0.5-5.2-0.8-7.9c-0.1-0.9,0.1-1.2,1-1.3
			c0.5-0.1,1-0.1,1.4-0.2c0.8-0.1,1.4,0.2,1.9,0.8c1.3,1.7,2.7,3.3,4,5c0.3,0.3,0.5,0.7,0.8,1C-181.8,449.4-181.7,449.5-181.5,449.7
			"/>
		<path class="st10" d="M-138.8,420.3c0.5,0.3,0.9,0.5,1.3,0.7c0.5,0.2,1,0.2,1.3-0.3c0.6-0.8,1.1-1.7,1.5-2.6c0.3-0.6,0-1-0.5-1.4
			c-0.6-0.4-1.2-0.4-1.7,0.3C-137.5,418.1-138.1,419.2-138.8,420.3 M-140.7,419c0.5-0.9,0.9-1.7,1.5-2.5c0.4-0.7,0.9-1.4,1.4-2
			c1.2-1.3,2.5-1.5,4.1-0.6c0.4,0.2,0.7,0.4,1,0.7c0.8,0.7,1.1,1.6,0.9,2.6c-0.2,1.6-2.2,5.1-3.5,6.2c-0.9,0.7-1.9,1-3,0.6
			c-0.2-0.1-0.4-0.1-0.5-0.2c-1.5-0.9-3-1.7-4.4-2.7c-1.5-1-1.9-2.3-1.3-4c0.6-1.6,1.5-3.1,2.5-4.5c0.5-0.7,1.2-1.2,2.1-1.4
			c0.6-0.2,1.2-0.1,1.7,0.2c0.3,0.2,0.5,0.5,0.5,0.9c-0.1,0.8-0.9,1.6-1.7,1.7c-0.6,0.1-1,0.4-1.3,0.9c-0.3,0.5-0.6,1-0.9,1.6
			C-142.3,417.7-142.1,418.4-140.7,419"/>
		<path class="st10" d="M-250.4,403.9c0.5,1.6,1,3.1,1.6,4.7c1.3-0.4,2.5-0.9,3.9-1.3c-0.3-0.8-0.5-1.5-0.7-2.1
			c-0.4-1-1.1-1.5-2.2-1.4c-0.6,0-1.2,0.1-1.9,0.1C-249.9,403.8-250.1,403.8-250.4,403.9 M-251.1,409.4c-0.6-1.8-1.2-3.5-1.7-5.3
			c-0.6,0-1.2,0-1.8,0c-0.9,0-1.2-0.1-1.4-1c-0.1-0.4-0.3-0.7-0.4-1.1c-0.2-0.6,0-0.8,0.6-0.9c0.5-0.1,1-0.1,1.5-0.1
			c2.1-0.1,4.2-0.3,6.2-0.4c1.5-0.1,2.6,0.5,3.4,1.7c0.5,0.7,0.9,1.6,1.2,2.4c0.5,1.2,0.9,2.5,1.3,3.8c0.3,0.8,0.1,1.1-0.6,1.3
			c-3,1-6,2-8.9,3c-0.7,0.2-1,0.1-1.3-0.7c-0.1-0.2-0.2-0.5-0.2-0.7c-0.4-1.1-0.2-1.3,0.8-1.7C-252,409.7-251.6,409.5-251.1,409.4"
			/>
		<path class="st10" d="M-159.5,435.4c-0.8,0.5-1.5,0.9-2.2,1.4c-0.5,0.4-0.8,1-0.8,1.6c0.1,1,0.5,2,0.7,3.1
			c1.5-0.9,2.8-1.7,4.3-2.5C-158.2,437.8-158.8,436.6-159.5,435.4 M-156.3,441.1c-1.6,1-3.2,1.9-4.8,2.8c0.1,0.5,0.3,1,0.4,1.5
			c0.3,1.1,0.2,1.3-0.8,1.9c-0.3,0.2-0.6,0.4-0.9,0.5c-0.4,0.2-0.7,0.1-0.9-0.4c-0.1-0.2-0.1-0.4-0.2-0.6c-0.6-2.3-1.2-4.6-1.9-6.9
			c-0.5-1.7-0.1-3.1,1.2-4.3c0.5-0.5,1-0.9,1.6-1.2c1.2-0.7,2.4-1.4,3.6-2.2c0.8-0.4,1.1-0.4,1.5,0.4c1.6,2.7,3.1,5.4,4.7,8.1
			c0.4,0.7,0.3,1.1-0.4,1.5c-0.3,0.2-0.7,0.4-1,0.6c-0.5,0.3-0.9,0.2-1.2-0.3C-155.7,442.2-156,441.7-156.3,441.1"/>
		<path class="st10" d="M-235.6,435.8c-0.5-0.2-1-0.2-1.4-0.5c-0.6-0.3-1.1-0.7-1.6-1.2c-0.9-0.9-1.8-1.9-2.7-3
			c-0.7-0.8-1-1.8-1.1-2.8c-0.1-0.8,0.1-1.5,0.7-2c0.4-0.4,0.8-0.4,1.3,0c0.2,0.2,0.3,0.4,0.5,0.5c0.4,0.4,0.6,0.9,0.4,1.4
			c-0.2,0.7,0,1.3,0.4,1.8c0.6,0.7,1.3,1.5,1.9,2.2c0.2,0.2,0.3,0.3,0.5,0.5c0.3,0.2,0.6,0.3,0.9,0c0.3-0.2,0.3-0.5,0.2-0.9
			c-0.2-0.4-0.3-0.9-0.6-1.3c-0.4-0.8-0.9-1.5-1.3-2.3c-0.4-0.8-0.8-1.6-1.1-2.5c-0.5-1.3-0.1-2.5,0.9-3.3c1-0.9,2.2-1,3.4-0.3
			c0.4,0.2,0.8,0.5,1.1,0.8c1,1.1,2,2.1,3,3.2c0.6,0.7,0.9,1.6,1,2.5c0.1,0.8-0.1,1.6-0.7,2.1c-0.2,0.2-0.5,0.4-0.8,0.3
			c-0.8-0.2-1.5-1.4-1.3-2.2c0.2-0.7,0-1.3-0.4-1.8c-0.6-0.6-1.1-1.3-1.7-1.9c-0.2-0.2-0.4-0.4-0.7-0.5c-0.3-0.2-0.6-0.1-0.8,0.1
			c-0.2,0.2-0.3,0.5-0.2,0.7c0.2,0.4,0.3,0.9,0.5,1.3c0.6,1.1,1.3,2.2,1.9,3.3c0.4,0.7,0.6,1.4,0.7,2.1
			C-232.3,434.1-233.7,435.7-235.6,435.8"/>
		<path class="st10" d="M-220,447c-0.6-0.2-1.2-0.3-1.8-0.5c-1.6-0.6-3-1.6-4.4-2.5c-0.9-0.6-1.5-1.5-1.8-2.6
			c-0.2-0.6-0.1-1.1,0.2-1.6c0.2-0.5,0.6-0.7,1.1-0.5c0.4,0.2,0.9,0.4,1.2,0.7c0.2,0.2,0.3,0.6,0.3,0.9c0,0.7,0.3,1.1,0.8,1.4
			c0.9,0.6,1.8,1.1,2.7,1.6c0.3,0.1,0.6,0.2,0.9,0.2c0.5,0,0.8-0.5,0.6-1c-0.2-0.3-0.4-0.6-0.6-0.9c-0.6-0.6-1.3-1.2-1.9-1.8
			c-0.8-0.8-1.5-1.6-2.2-2.4c-1-1.3-0.8-2.8,0.4-4c0.6-0.6,1.4-0.9,2.3-0.8c0.8,0.2,1.6,0.4,2.3,0.8c1,0.5,2,1.1,3,1.8
			c0.9,0.6,1.5,1.4,1.9,2.4c0.3,0.7,0.3,1.3,0,2c-0.3,0.6-0.7,0.7-1.3,0.5c-0.2-0.1-0.5-0.3-0.7-0.4c-0.4-0.2-0.7-0.6-0.6-1.1
			c0-0.8-0.4-1.4-1.1-1.7c-0.7-0.4-1.3-0.8-2-1.2c-0.2-0.1-0.5-0.3-0.8-0.3c-0.3-0.1-0.6,0-0.8,0.3c-0.2,0.3-0.1,0.6,0,0.8
			c0.2,0.3,0.4,0.6,0.6,0.8c0.7,0.7,1.4,1.3,2.1,2c0.5,0.5,1.1,1,1.6,1.6c0.3,0.3,0.5,0.7,0.7,1.1C-216.3,444.8-218.1,447.1-220,447
			"/>
		<path class="st10" d="M-250.1,417c0.1-0.8,0.2-1.6,0.9-2.2c0.7-0.7,1.2-0.6,1.8,0.2c0.5,0.7,0.7,1.3,0.2,2.1
			c-0.2,0.3-0.2,0.8,0,1.1c0.6,1.1,1.2,2.2,1.9,3.4c0.1,0.1,0.2,0.3,0.4,0.3c0.5,0.3,1.1,0.1,1.1-0.5c0-0.3,0-0.5-0.1-0.8
			c-0.2-0.8-0.5-1.6-0.8-2.4c-0.3-1-0.6-2.1-0.8-3.1c-0.1-0.4-0.1-0.9,0-1.3c0.3-2.1,2.7-3.1,4.5-2c0.5,0.3,1,0.8,1.3,1.3
			c0.8,1.3,1.6,2.6,2.3,3.9c0.5,0.9,0.6,2,0.3,3c-0.1,0.6-0.4,1.1-1,1.5c-0.5,0.3-1,0.2-1.3-0.3c-0.2-0.3-0.3-0.5-0.5-0.8
			c-0.2-0.4-0.2-0.9,0.1-1.3c0.4-0.6,0.3-1.2,0-1.7c-0.4-0.8-0.9-1.6-1.4-2.4c-0.1-0.2-0.3-0.4-0.5-0.6c-0.5-0.4-1.1-0.1-1.1,0.6
			c0,0.4,0.1,0.9,0.2,1.3c0.4,1.2,0.8,2.4,1.1,3.6c0.3,0.9,0.4,1.7,0.3,2.7c-0.2,1.9-2.7,3.1-4.3,2c-0.5-0.3-0.9-0.7-1.3-1.2
			c-1.1-1.4-2-2.9-2.7-4.6C-249.9,418.4-249.9,417.7-250.1,417"/>
		<path class="st10" d="M-200.1,448.9c-0.1,0.7-0.1,1.4-0.2,2.2c0.3,0.1,0.6,0.1,0.9,0.2c1.8,0.2,3.6,0.4,5.4,0.6
			c0.1,0,0.3,0,0.4,0.1c0.6,0.1,0.8,0.4,0.8,1c0,0.1,0,0.3,0,0.4c-0.1,0.7-0.4,0.9-1.1,0.9c-0.9-0.1-1.9-0.2-2.8-0.3
			c-2-0.2-3.9-0.5-5.9-0.7c-0.8-0.1-1-0.4-1-1.2c0.4-3.1,0.7-6.2,1.1-9.4c0.1-0.9,0.4-1.1,1.3-1c2.8,0.3,5.6,0.7,8.4,1
			c0.8,0.1,1,0.4,1,1.2c0,0.1,0,0.2,0,0.3c-0.1,0.7-0.4,0.9-1.1,0.9c-1.1-0.1-2.1-0.2-3.1-0.4c-1-0.1-1.9-0.2-2.9-0.3
			c-0.2,0-0.4,0-0.6,0c-0.1,0.7-0.2,1.4-0.3,2.1c0.3,0.1,0.5,0.1,0.8,0.2c1.6,0.2,3.2,0.4,4.9,0.6c0.8,0.1,1,0.4,0.9,1.2
			c0,0.2-0.1,0.5-0.2,0.7c-0.2,0.4-0.6,0.5-1.1,0.4c-1.7-0.2-3.4-0.4-5.1-0.6C-199.7,448.9-199.8,448.9-200.1,448.9"/>
		<path class="st10" d="M-137,407.1c0.4,0.2,0.8,0.3,1.1,0.4c0.2,0.1,0.4,0.1,0.7,0.2c0.1-0.3,0.2-0.5,0.3-0.8
			c0.3-0.8,0.5-1.6,0.8-2.3c0.3-0.8,0.7-1.4,1.3-2c0.7-0.7,1.5-1,2.5-0.8c0.7,0.1,1.4,0.3,2,0.7c0.8,0.6,1.3,1.3,1.3,2.4
			c0,0.6,0,1.1-0.2,1.7c-0.3,1.2-0.7,2.4-1.2,3.6c-0.4,0.9-1,1.7-1.8,2.2c-0.6,0.3-1.2,0.5-1.8,0.3c-0.7-0.2-0.9-0.6-0.7-1.3
			c0.1-0.2,0.1-0.4,0.2-0.6c0.1-0.6,0.5-0.9,1.1-1.1c0.6-0.1,0.9-0.4,1.1-0.9c0.3-0.8,0.6-1.6,0.8-2.4c0.2-0.9-0.3-1.5-1.1-1.6
			c-0.5-0.1-0.9,0.1-1.1,0.5c-0.2,0.4-0.4,0.7-0.5,1.1c-0.4,1.3-0.9,2.5-1.3,3.8c-0.3,0.9-0.6,1.1-1.5,0.8c-1.3-0.5-2.7-0.9-4-1.4
			c-0.9-0.3-1-0.6-0.7-1.5c0.8-2.4,1.6-4.8,2.5-7.2c0.3-0.9,0.6-1,1.5-0.7c0.9,0.3,1,0.6,0.7,1.5c-0.5,1.5-1,2.9-1.5,4.4
			C-136.8,406.5-136.9,406.8-137,407.1"/>
		<path class="st10" d="M-142.7,424.5c0.2,0,0.4,0,0.6,0c1.7,0,3.3,1.8,3,3.5c-0.1,0.6-0.3,1.1-0.6,1.6c-0.8,1.4-1.9,2.6-3.1,3.6
			c-0.6,0.6-1.4,0.9-2.3,1.1c-0.8,0.2-1.6,0-2.2-0.5c-0.5-0.4-0.5-0.9-0.2-1.4c0.1-0.2,0.3-0.3,0.4-0.4c0.4-0.5,0.9-0.7,1.5-0.5
			c0.9,0.2,1.5-0.1,2.1-0.8c0.5-0.5,0.9-1.1,1.3-1.6c0.3-0.5,0.3-1-0.1-1.3c-0.4-0.5-0.9-0.6-1.5-0.2c-0.3,0.2-0.5,0.5-0.8,0.7
			c-0.3,0.3-0.6,0.7-0.9,1c-0.4,0.4-0.8,0.4-1.2,0.1c-0.1-0.1-0.3-0.2-0.4-0.3c-0.4-0.4-0.4-0.8-0.1-1.2c0.2-0.3,0.5-0.5,0.7-0.8
			c0.2-0.3,0.5-0.6,0.6-0.9c0.3-0.6,0.3-1-0.2-1.4c-0.4-0.4-0.9-0.5-1.4,0c-0.6,0.5-1.1,1.1-1.6,1.8c-0.3,0.4-0.4,1-0.2,1.5
			c0.4,1-0.2,1.6-1,2.3c-0.3,0.2-0.8,0.1-1.1-0.2c-0.5-0.5-0.7-1.1-0.7-1.7c-0.1-1.1,0.3-2.1,0.9-3c0.8-1.1,1.7-2.1,2.7-2.9
			c0.2-0.1,0.4-0.3,0.6-0.4c2.1-1.2,4.5,0,4.9,2.4C-142.7,424.3-142.7,424.3-142.7,424.5"/>
		<path class="st10" d="M-171.6,441.5c-0.4,0.1-0.6,0.2-0.9,0.3c-1.5,0.5-3.1,1-4.6,1.5c-0.4,0.1-0.8,0.3-1.1-0.2
			c-0.3-0.4-0.5-0.9-0.4-1.5c0.1-0.3,0.4-0.5,0.7-0.6c1.1-0.4,2.1-0.7,3.2-1.1c1.7-0.6,3.4-1.1,5.1-1.7c0.8-0.3,1.1-0.1,1.4,0.7
			c0.3,0.8,0.3,1.6-0.2,2.4c-1.1,2.1-2.2,4.3-3.3,6.4c-0.2,0.3-0.3,0.6-0.6,1.1c0.3-0.1,0.4-0.1,0.6-0.1c1.6-0.5,3.1-1.1,4.7-1.6
			c0.2-0.1,0.4-0.1,0.6-0.2c0.4-0.1,0.7,0.1,0.8,0.4c0.1,0.3,0.2,0.5,0.3,0.8c0.1,0.5,0,0.8-0.5,1c-0.2,0.1-0.4,0.1-0.5,0.2
			c-2.5,0.8-4.9,1.7-7.4,2.5c-0.3,0.1-0.5,0.2-0.8,0.2c-0.5,0.1-0.8,0-1-0.5c-0.4-0.9-0.4-1.8,0-2.7c1.1-2.2,2.2-4.3,3.3-6.5
			C-171.9,442.1-171.8,441.9-171.6,441.5"/>
		<path class="st10" d="M-207.5,442.5c-0.1,0.3-0.2,0.5-0.3,0.7c-0.7,2.2-1.4,4.4-2.2,6.7c-0.1,0.2-0.1,0.4-0.2,0.6
			c-0.2,0.5-0.5,0.6-1,0.5c-0.4-0.1-0.8-0.3-1.2-0.4c-0.7-0.3-0.9-0.6-0.6-1.3c0.6-1.9,1.2-3.8,1.9-5.8c0.2-0.7,0.4-1.3,0.7-2.1
			c-0.5-0.2-0.9-0.3-1.3-0.5c-0.6-0.2-1.2-0.4-1.8-0.6c-0.7-0.2-0.8-0.5-0.6-1.2c0.1-0.2,0.1-0.4,0.2-0.6c0.2-0.4,0.5-0.6,0.9-0.5
			c0.1,0,0.3,0.1,0.4,0.1c3,1,5.9,2,8.9,3c0.1,0,0.3,0.1,0.4,0.2c0.1,0.1,0.2,0.1,0.3,0.2c0.3,0.4,0.2,0.9-0.1,1.6
			c-0.2,0.4-0.5,0.5-1,0.3c-0.8-0.2-1.6-0.5-2.4-0.8C-206.9,442.6-207.2,442.6-207.5,442.5"/>
		<path class="st10" d="M-231.5,440.2c0,0-0.2,0-0.3-0.1c-0.4-0.3-0.9-0.6-1.2-1c-0.3-0.3-0.4-0.7-0.1-1.1c0.1-0.2,0.3-0.4,0.4-0.5
			c1.8-2.3,3.6-4.7,5.4-7c0.1-0.2,0.2-0.3,0.4-0.4c0.3-0.3,0.7-0.4,1-0.1c0.4,0.3,0.8,0.6,1.2,0.9c0.4,0.3,0.4,0.7,0.1,1.1
			c0,0.1-0.1,0.2-0.2,0.2c-1.9,2.5-3.8,5-5.8,7.5C-230.8,440-231,440.2-231.5,440.2"/>
	</g>
</g>
</svg>
