<?xml version="1.0" encoding="utf-8"?>
<!-- Generator: Adobe Illustrator 24.0.0, SVG Export Plug-In . SVG Version: 6.00 Build 0)  -->
<svg version="1.1" id="Livello_1" xmlns="http://www.w3.org/2000/svg" xmlns:xlink="http://www.w3.org/1999/xlink" x="0px" y="0px"
	 viewBox="0 0 595.3 841.9" style="enable-background:new 0 0 595.3 841.9;" xml:space="preserve">
<style type="text/css">
	.st0{fill:#FFFFFF;}
</style>
<path class="st0" d="M1326.3,114.6v-2.5H648.2L575.5,158c-0.2-0.4-0.5-0.7-0.7-1c-1.3-1.5-3.1-2.3-5.3-2.3c-2,0-3.7,0.7-5,2
	l-86.8-36.4l-3.4-0.9l-1.3-0.5l0.3,0.3l-31.8-7.9h89.8l26.4-25.1h768.7v-2.5H556.5l-26.4,25.1h-98.8l-1.5-0.4
	c-1-2.2-3.1-3.8-6.2-3.8c-2.5,0-4.4,1.1-5.5,2.7l-38.2-1.1l-65.7-20.7c0-0.1,0-0.1,0-0.2c0-3.6-2.4-7.2-7-7.2c-2.2,0-4,0.8-5.3,2.3
	c-1.1,1.3-1.7,3.1-1.7,4.9c0,0.6,0.1,1.2,0.2,1.8l-59.1,17.3c-1.1-1.9-3.1-3.2-5.9-3.2c-2.2,0-4,0.8-5.3,2.3c-0.8,0.9-1.3,2-1.6,3.2
	l-63.3,5.3c-0.5-3.1-2.8-6-6.9-6c-2.2,0-4,0.8-5.3,2.3c-0.6,0.6-1,1.4-1.3,2.2H-46.2l-28.6-30.1l-0.4-0.4h-576.7v2.5h575.6l29,30.5
	h198.9c0,0.1,0,0.1,0,0.2c0,1.3,0.3,2.6,0.9,3.7l-4.9,3.7H-63.5l-23.8-25l-0.4-0.4h-564.2v2.5h563.1l23.8,25l0.4,0.4h208.9l-7.4,5.6
	H-68.9l-23.8-23.1l-0.4-0.4h-558.8v2.5h557.8l23.8,23.1l0.4,0.4h192.8c-0.2,0.2-0.3,0.3-0.5,0.5c-1.1,1.3-1.7,3.1-1.7,4.9
	c0,1.5,0.4,2.9,1.2,4.2l-0.5,0.4l0.7-0.2c0.1,0.1,0.1,0.2,0.2,0.2l-0.7,0.8h-773.4v2.5h771.2l-16.7,19c-0.9-0.4-1.8-0.6-3-0.6
	c-3.8,0-6.1,2.5-6.8,5.4H30.5l-12.1-14.4h-670.3v2.5H17.2l12.1,14.4h63.4c0,0.5,0.1,0.9,0.2,1.4l-36.1,26.3
	c-1.1-0.9-2.5-1.4-4.3-1.4c-2.2,0-4,0.8-5.3,2.3c-0.5,0.6-0.9,1.2-1.1,1.9H-0.5l-33.7-24.8l-0.2-0.1h-617.6v2.5h616.8l33.8,24.9
	h46.8c0,0.2,0,0.4,0,0.5c0,1.4,0.4,2.8,1.1,3.9l-32.2,39.2c-0.9-0.4-1.9-0.7-3.1-0.7c-2.2,0-4,0.8-5.3,2.3c-1.1,1.3-1.7,3.1-1.7,4.9
	c0,0.2,0,0.4,0,0.5h-82l-24.1-17.8h-550v2.5h549.2l24.1,17.8H4.9c0.2,0.5,0.5,1,0.8,1.5l-5.5,7.4h-191.6l-11.1,11.1h-449.5v2.5
	h450.5l11.1-11.1H-1.6L-14.3,286h-168.2l-12.1,12.1h-457.3v2.5h458.4l12.1-12.1h165.3l-13.5,18.2c-1.2-1.1-2.7-1.8-4.8-1.8
	c-3.4,0-5.6,2-6.5,4.5h-611v2.5h610.5c0,0.1,0,0.1,0,0.2c0,3.6,2.4,7.2,7,7.2c0.1,0,0.2,0,0.3,0l0,49.4c-1.7,0.5-2.6,2.1-2.6,3.7
	c0,1.7,1,3.4,2.9,3.8l4.5,60.1c-0.8,0.2-1.5,0.6-2,1.2c-0.5,0.6-0.8,1.4-0.9,2.3h-619.6v2.5h620.2c0.6,1,1.7,1.8,3.2,1.8
	c0.1,0,0.2,0,0.3,0l0.2,2.4l0.6-1.6l23.1,46.3c-1.1,1.3-1.7,3.1-1.7,4.9c0,0.2,0,0.4,0,0.5h-63.2l-27.9-28l-0.2-0.2h-554.6v2.5
	h553.6l27.9,28l0.2,0.2h64.8c1,2.3,3.1,4.2,6.4,4.2c2.7,0,4.6-1.3,5.8-3l33,14.3c-0.1,0.5-0.1,0.9-0.1,1.4c0,0.2,0,0.4,0,0.5h-128
	l-15.6-15.6h-548v2.5h546.9l15.6,15.6H40.2c1,2.3,3.1,4.2,6.4,4.2c0.5,0,1.1-0.1,1.6-0.2l9.7,24.6H-49.3L-61.5,560h-590.4v2.5h591.4
	l12.2-12.2H58.9l8.8,22.3c-2,1.3-3.1,3.7-3.1,6.1c0,3.6,2.4,7.2,7,7.2c2.9,0,5-1.5,6.1-3.5l58.2,27.4H43.8l-13.7-13.7h-682v2.5H29.1
	l13.7,13.7h97.8v-0.3l21.6,10.2c-0.2,0.7-0.3,1.4-0.3,2.2c0,0.2,0,0.4,0,0.5h-813.8v2.5h814.4c1,2.3,3.1,4.2,6.4,4.2
	c2.2,0,4-0.8,5.3-2.3c1.1-1.3,1.7-3.1,1.7-4.9c0-0.1,0-0.2,0-0.3l98.1-18.7c0.6,3,2.9,5.6,6.8,5.6c0.6,0,1.2-0.1,1.7-0.2L293,653
	c-2.9,1.1-4.4,3.9-4.4,6.8c0,3.1,1.8,6.3,5.4,7.1v59.6l67.6-49.4c1.1,1,2.7,1.7,4.7,1.7c2.2,0,4-0.8,5.3-2.3
	c1.1-1.3,1.7-3.1,1.7-4.9c0-2.4-1.1-4.8-3.2-6.2l13.8-68.4h942.4v-2.5H388.7c1.4-1.4,2.2-3.4,2.2-5.4c0-1.9-0.6-3.6-1.7-4.9
	c-1.3-1.5-3.1-2.3-5.3-2.3c-1.4,0-2.6,0.3-3.6,0.9l-32.8-51.6c0.7-1.2,1-2.5,1-4c0-0.7-0.1-1.3-0.2-2l113.3-59.5
	c1,2.2,3.1,3.9,6.3,3.9c3.2,0,5.3-1.7,6.3-4l87.7,80.6l0.4,0.3H672l36.1,26.1h618.2v-2.5H708.9l-35.8-25.8l-0.3-0.2H563.2
	l-88.4-81.3c0-0.1,0-0.3,0-0.4c0-0.6-0.1-1.1-0.2-1.7l29.2-3.7l78.6,68l0.4,0.3h85.3l42.5,33.8l0.3,0.3h615.3v-2.5H711.8l-42.5-33.8
	l-0.3-0.3h-85.2l-76.5-66.2l36.3-4.6c0.5,3.1,2.9,5.9,6.9,5.9c1.9,0,3.4-0.6,4.5-1.6l59.6,54.4l0.4,0.3h59.1l46.6,37l0.3,0.3h605.5
	v-2.5H721.7l-46.6-37l-0.3-0.3h-59l-59.3-54.2c0.5-1,0.8-2.1,0.9-3.3h48c0.5,3.2,2.8,6,6.9,6c2.2,0,4-0.8,5.3-2.3
	c0.4-0.4,0.7-0.9,1-1.5H711l78.8,56.1l0.3,0.2h536.2v-2.5H790.9l-78.8-56.1l-0.3-0.2h-92.7c0-0.3,0.1-0.6,0.1-1
	c0-0.8-0.1-1.6-0.4-2.4l17.1-12.4h88l73.5,54.4h528.8V487H798.3l-73.2-54.1l-0.3-0.2h-85.4l24.7-17.8c1.1,0.9,2.6,1.4,4.4,1.4
	c3.8,0,6.1-2.5,6.8-5.4l650.9-0.6v-2.5l-650.8,0.6c-0.1-1.6-0.7-3.1-1.7-4.2c-0.2-0.3-0.5-0.5-0.7-0.7l13-30.3h97.1l83.3-54.7h459.8
	v-2.5H865.8l-83.3,54.7h-95.3l6.8-15.8h83.8l80.8-52.4h467.7v-2.5H857.9L777,352.3h-82l7.9-18.4c0.6,0.2,1.3,0.3,2,0.3
	c3.8,0,6.1-2.5,6.8-5.4h58l79.1-52.9h477.4v-2.5H848.1L769,326.3H712c-0.3-3.4-2.6-6.6-7-6.6c-0.4,0-0.8,0-1.2,0.1l-19.4-49
	c1.3-1.2,2-3,2.2-4.8h56.8l79.1-69.2h503.8v-2.5H821.5l-79.1,69.2h-56c-0.7-2.9-3-5.4-6.8-5.4c-1.3,0-2.5,0.3-3.5,0.9l-25.4-20.7
	h85.8l77.1-68.5h512.8v-2.5H812.6l-77.1,68.5h-87.9l-12.2-9.9c0-0.1,0-0.2,0-0.3h91.1l79.1-70.5h520.7v-2.5H804.6l-79.1,70.5h-90.4
	c-0.8-2.7-3-5-6.7-5c-0.3,0-0.7,0-1,0.1l-39.2-41.8L656,133h670.2v-2.5h-671l-68.9,44l-10.1-10.8c0.1-0.6,0.2-1.1,0.2-1.7
	c0-0.5,0-1-0.1-1.5l72.6-45.9H1326.3z M699.7,322c-0.6,0.7-1.1,1.6-1.4,2.5l-52.5-7.8l30.5-44.7c0.9,0.4,2,0.7,3.2,0.7
	c0.6,0,1.1-0.1,1.6-0.2l19.3,48.8C700.2,321.5,700,321.7,699.7,322z M663.3,404.1c-0.1,0.1-0.2,0.2-0.3,0.4l-75.3-58.8l0-0.1
	l55.4-27.1l0.2,1.7l0.6-0.8l21.9,82.9C664.8,402.7,664,403.3,663.3,404.1z M585.1,178.3l0.2-0.1l38.8,41.3c-0.3,0.3-0.6,0.6-0.9,0.9
	L544,190c-0.2-1.3-0.8-2.5-1.6-3.5l1.7-1.3l21.8-16.9c1,0.6,2.2,0.9,3.6,0.9c2.3,0,4-0.9,5.2-2.2l9.7,10.4L585.1,178.3z M645,238.3
	l28.6,23.3c-0.6,1.1-1,2.4-1,3.8c0,1.9,0.7,3.8,2,5.1l-29.7,43.5l-11.6-83.4c0.1-0.1,0.3-0.3,0.4-0.4c0.2-0.2,0.4-0.5,0.5-0.7
	l9.9,8.1v0.7H645z M297.5,666.7c1.3-0.3,2.4-1,3.3-2c1.1-1.3,1.7-3.1,1.7-4.9c0-0.2,0-0.4,0-0.6l56.8,11.2c-0.1,0.4-0.1,0.8-0.1,1.2
	c0,0.8,0.1,1.7,0.4,2.5l-62.1,45.4V666.7z M477.4,124l55.6,61.5c-0.7,0.5-1.3,1.1-1.7,1.8l-123.2-8.1c-0.1-0.8-0.4-1.6-0.8-2.3
	l69.5-53L477.4,124z M584.8,346.5l-33.5,96.9c-0.3,0-0.6-0.1-0.9-0.1c-0.7,0-1.4,0.1-2,0.3l-7-11.7l-50.4-84.4
	c0.7-0.6,1.1-1.4,1.3-2.3l30.9,0.4L584.8,346.5z M77.1,574.1l21.1-20.3l46.4-44.8c0.3,0,0.5,0.1,0.8,0.1c0.6,0,1.2-0.1,1.6-0.3
	l42.8,50.7c-1.1,1-1.7,2.4-2,3.8l-56.5,6.5l-53.2,6.1C77.9,575.2,77.5,574.6,77.1,574.1z M334.6,527.2l-82.1,20.7L200.7,561
	c-1.1-2-3.1-3.4-6-3.4c-1,0-1.9,0.2-2.7,0.5l-43-50.8c0.1-0.1,0.1-0.2,0.2-0.4l185.6,19.3C334.6,526.6,334.6,526.9,334.6,527.2z
	 M62.3,422.5l39.9-69.5c0.6,0.1,1.2,0.2,1.9,0.2c3.2,0,5.3-1.8,6.3-4.1l83.1,46.5c-0.9,1.3-1.4,2.9-1.4,4.4L62.3,422.5z
	 M111.1,346.1c0-0.2,0-0.3,0-0.5l139.6-22.1c0.5,1.4,1.3,2.6,2.5,3.5l-49.7,67.4c-1.1-0.9-2.6-1.5-4.4-1.5c-2,0-3.6,0.7-4.8,1.8
	l-83.5-46.7C111,347.4,111.1,346.7,111.1,346.1z M252,316.1c-1.1,1.3-1.7,3.1-1.7,4.9c0,0,0,0,0,0l-139.7,22.1
	c-0.3-0.9-0.9-1.7-1.5-2.4l66.3-123.1c0.3,0,0.6,0.1,1,0.1c1.3,0,2.5-0.3,3.4-0.8l73.7,97.9C252.9,315.2,252.4,315.6,252,316.1z
	 M205,396.2l50.3-68.2c0.6,0.2,1.2,0.3,1.9,0.3c0.6,0,1.2-0.1,1.7-0.2l5,31.2l6,37.3c-1,0.7-1.7,1.7-2,2.8l-62.2-1.1
	C205.7,397.5,205.4,396.8,205,396.2z M145.9,501c-0.9-0.2-1.9,0-2.7,0.4l-81-77.3l130-22.4c0.4,2.1,1.6,4,3.6,5L145.9,501z
	 M73.1,275.2c1.4,0,2.6-0.3,3.6-0.9l24.5,65.1c-1.8,0.7-3.1,2.2-3.7,3.9l-76.3-7.7c0-0.8-0.1-1.6-0.4-2.3l49.8-58.5
	C71.4,275.1,72.2,275.2,73.1,275.2z M257.2,313.8c-0.9,0-1.8,0.1-2.5,0.4L181,216c1.5-1.4,2.3-3.4,2.3-5.5c0-0.4,0-0.8-0.1-1.2
	l91.9-57.9c0.9,1.4,2.2,2.4,4,2.8L259.2,314C258.6,313.9,257.9,313.8,257.2,313.8z M171.6,216.1c0.3,0.3,0.7,0.6,1.1,0.8
	l-65.9,122.4c-0.8-0.3-1.7-0.5-2.7-0.5c0,0-0.1,0-0.1,0l-25.1-66.5c0.8-1.2,1.3-2.7,1.3-4.3c0-0.7-0.1-1.3-0.3-2l45.9-25
	L171.6,216.1z M273,395.7c-0.3,0-0.5,0-0.8,0.1l-11.1-68.6c1.9-1.3,2.9-3.4,3.1-5.7l94.4-13c0.1,0.2,0.2,0.4,0.4,0.5l-83.6,87.2
	C274.8,395.9,273.9,395.7,273,395.7z M20.9,338l76.2,7.7c0,0.1,0,0.2,0,0.3c0,2.3,1,4.5,2.8,5.9l-39.8,69.3l-40.4-80.9
	C20.2,339.7,20.6,338.9,20.9,338z M277,397.4c-0.1-0.2-0.3-0.3-0.5-0.4l83.5-87.2c0.5,0.3,1.1,0.5,1.8,0.5c0.3,0,0.5,0,0.8-0.1
	l69.6,90.4L278,399.3C277.8,398.6,277.4,397.9,277,397.4z M361.7,302.4c-1.1,0-2.1,0.4-2.8,1.2c-0.6,0.7-0.9,1.5-0.9,2.4L264,319
	c-0.1-0.5-0.3-0.9-0.5-1.3l133-131.8c0.4,0.4,0.9,0.7,1.4,1L361.7,302.4z M394.3,179c-0.1,0.4-0.1,0.9-0.1,1.4
	c0,1.5,0.4,3.1,1.3,4.3L262.6,316.2c-0.5-0.7-1.2-1.2-2-1.6l20-160.2c0.1,0,0.1,0,0.1,0c3.6,0,5.9-2.3,6.7-5l100,27.6L394.3,179z
	 M273.9,148.1c0,0.4,0.1,0.8,0.2,1.2L182.4,207c-0.3-0.5-0.6-1-0.9-1.4c-0.2-0.2-0.4-0.4-0.6-0.6l5.4-13.1l15.7-38l55.1-4.4
	L273.9,148.1z M171.6,458l26.7-50.6c0.2,0,0.5,0,0.8,0c2.2,0,4-0.8,5.3-2.3c1-1.2,1.6-2.7,1.7-4.4l61.8,1.1c0,0.3,0.1,0.6,0.2,0.9
	l-119.3,99.9c-0.1-0.1-0.1-0.2-0.2-0.3L171.6,458z M435,399.8l-69.7-90.5l119.4,35.3c0,0.1,0,0.2,0,0.3l-0.3,0.3l0.3,0L435,399.8z
	 M336.3,522.3c-0.6,0.7-1.1,1.6-1.4,2.5l-185.6-19.4c0-0.5,0-0.9-0.1-1.4l119.4-99.9c0.1,0.2,0.3,0.4,0.4,0.6c1,1.1,2.3,1.7,3.9,1.7
	c0.4,0,0.8,0,1.2-0.1l64.2,114.4C337.6,521.1,336.9,521.6,336.3,522.3z M533.3,197.6l-46.2,143.3c-0.6,0.2-1.1,0.5-1.5,1
	c-0.1,0.1-0.1,0.1-0.2,0.2l-119.9-35.4c0-0.1,0-0.3,0-0.4c0-0.4-0.1-0.7-0.2-1.1l165.2-110.8C531.2,195.7,532.1,196.8,533.3,197.6z
	 M345.1,520.9c-1-0.6-2.2-0.9-3.6-0.9c-0.7,0-1.4,0.1-2,0.3l-64.2-114.3c1.7-0.8,2.6-2.4,2.9-4.1l154.4,1.2l-70.4,94.9L345.1,520.9z
	 M530.1,191.4c0,0.6,0.1,1.2,0.2,1.8L365,304.1c-0.1-0.2-0.2-0.3-0.3-0.4c-0.2-0.2-0.4-0.4-0.6-0.5l36.2-115.6
	c0.3,0,0.6,0.1,0.9,0.1c4.1,0,6.5-3,6.9-6.2l122.2,8.1C530.2,190.1,530.1,190.8,530.1,191.4z M627.2,232.4l-41.6,111.6l0,0l-0.3-0.2
	l0.1,0.2l-93.5-1.2c-0.1-0.2-0.2-0.4-0.3-0.6l133.3-110.7C625.5,232,626.3,232.3,627.2,232.4z M186.5,185.6l-7.5,18.2
	c-0.8-0.3-1.7-0.5-2.7-0.5c-3,0-5,1.5-6.1,3.6l-63.6-35c0.1-0.5,0.1-1,0.1-1.5c0-0.3,0-0.6,0-0.8l92.8-15.3L186.5,185.6z M66.1,268
	c0,2,0.7,4,2.1,5.3l-49,57.3c-0.6-0.7-1.4-1.2-2.2-1.6l-4.2-67.6c2.6-0.5,4.3-2.4,5-4.7l48.4,9.7C66.2,266.9,66.1,267.5,66.1,268z
	 M61.3,428.3c0.3-0.3,0.4-0.6,0.6-1l79.8,76c-0.2,0.5-0.3,1.1-0.3,1.7l-87.9,9.1c-0.5-2-1.8-3.8-3.9-4.7l11.2-80.7
	C60.9,428.6,61.1,428.5,61.3,428.3z M275,143c-0.6,0.8-0.9,1.8-1.1,2.9l-16.3,1.3l-53.8,4.3l28.2-36.6c1,0.6,2.2,0.9,3.5,0.9
	c2.3,0,4-0.9,5.2-2.2l12.6,10.8L275,143z M99.7,177.6c3,0,5-1.5,6.1-3.6l63.6,35c-0.1,0.5-0.1,1-0.1,1.5c0,1.3,0.3,2.6,0.9,3.7
	L79,263.9c-0.4-0.6-0.9-1.2-1.5-1.7l21.2-84.6C98.9,177.6,99.3,177.6,99.7,177.6z M213.8,134.7l-13,16.9l-1.7-0.3L134.4,139
	c0.1-0.4,0.2-0.8,0.2-1.3l94.3-26.6c0.3,0.8,0.7,1.6,1.3,2.3L213.8,134.7z M-24.9,439.2l40-96.2c1-0.1,1.9-0.4,2.6-0.8l39.9,79.7
	c-1,0.2-1.8,0.8-2.3,1.6l-80,16.5C-24.8,439.6-24.8,439.4-24.9,439.2z M201.6,565.4c0-0.2,0-0.4,0-0.6c0-0.5-0.1-1.1-0.2-1.6
	l9.3-2.4l124.1-31.3c0.3,1,0.8,1.9,1.5,2.7l-23.6,29.7l-28.4,35.6c-1-0.6-2.2-0.9-3.6-0.9c-1.8,0-3.4,0.6-4.6,1.7l-41.7-18.4
	L201.6,565.4z M361,666.6c-0.4,0.5-0.7,1-1,1.6l-58-11.5c-0.3-0.8-0.8-1.6-1.4-2.2l8.1-5.9l38.7-27.9c1,2.4,3.1,4.3,6.4,4.3
	c0.3,0,0.6,0,1-0.1l9.8,39.6C363.1,664.8,361.9,665.5,361,666.6z M451.2,385.6l34.7-38.1c0.6,0.6,1.5,0.9,2.5,0.9c0.1,0,0.2,0,0.3,0
	l13.7,22.9l43.8,73.2c-0.4,0.3-0.8,0.6-1.2,1c-0.1,0.1-0.1,0.1-0.2,0.2l-108.1-44.4L451.2,385.6z M351.7,610.8c-1.3,0.3-2.4,1-3.2,2
	c0,0,0,0,0,0l-60.9-10.9c-0.3-1.1-0.7-2.1-1.5-3l52-65.3c1,0.5,2.1,0.8,3.4,0.8c0.2,0,0.5,0,0.7,0L351.7,610.8z M379,109.7
	l19.4,63.9c-1.6,0.6-2.7,1.8-3.4,3.2l-107.2-29.7c0-0.7-0.1-1.4-0.3-2.1l91.1-35.5L379,109.7z M97.1,177.2l-21,84.1
	c-0.5-0.2-1.1-0.4-1.7-0.5L70,248.8L56.1,211c2.3-1.3,3.4-3.8,3.4-6.3c0-1-0.2-2-0.6-2.9l35.7-26.1
	C95.3,176.3,96.2,176.9,97.1,177.2z M78.6,578.3l109.1-12.5c0.2,1.9,1.2,3.8,2.8,5l-19.9,46.7c-0.5-0.1-1.1-0.2-1.7-0.2
	c-2.1,0-3.8,0.8-4.9,2L78.7,579c0-0.1,0-0.2,0-0.2C78.7,578.6,78.7,578.5,78.6,578.3z M621.4,225.3c0,1.7,0.6,3.5,1.7,4.8
	l-133,110.4l45.8-142c0.4,0.1,0.8,0.1,1.2,0.1c2.2,0,4-0.8,5.3-2.3c0.9-1.1,1.5-2.4,1.7-3.9l77.9,29.9
	C621.6,223.3,621.4,224.3,621.4,225.3z M562.7,159.9c-0.2,0.7-0.3,1.3-0.3,2c0,1.7,0.6,3.4,1.6,4.8l-23.4,18.2l-0.2,0.2
	c-1-0.5-2.1-0.8-3.5-0.8c-0.7,0-1.3,0.1-1.9,0.2l-52.5-58L562.7,159.9z M466.3,128.9l-60.3,46c-0.4-0.4-0.8-0.7-1.3-0.9l10.9-31.5
	l8.1-23.5c2.1,0,4-0.8,5.2-2.3c1-1.2,1.6-2.8,1.7-4.5l43.3,10.8L466.3,128.9z M416.7,111.9c0,2.9,1.6,5.9,4.7,6.9l-18.8,54.5
	c-0.4-0.1-0.9-0.1-1.3-0.1c-0.2,0-0.3,0-0.5,0l-19.3-63.5l35.4,1C416.7,111.1,416.7,111.5,416.7,111.9z M306,92.5l-23.4,47.7
	c-0.6-0.1-1.2-0.2-1.8-0.2c-1.6,0-3,0.4-4.2,1.3l-34.7-29.7c0.4-0.9,0.6-2,0.6-3c0-0.3,0-0.5,0-0.8l59.6-17.4
	C303,91.4,304.3,92.2,306,92.5z M128.2,144.8v-0.7c2.4-0.2,4.1-1.3,5.2-3l61.3,11.6L106,167.4c-0.2-0.5-0.5-1-0.8-1.4l18.5-21.1
	H128.2z M52.5,211.9c0.5,0,0.9,0,1.4-0.1l15.1,41l3,8.1c-1.6,0.2-3,1-4.1,2.2c-0.3,0.4-0.6,0.8-0.8,1.2l-15.8-3.2l-33-6.6
	c0,0,0-0.1,0-0.1c0-1.5-0.4-3.1-1.3-4.4l32-39C50,211.6,51.1,211.9,52.5,211.9z M10.6,261.6l4.2,67c-0.2,0-0.4,0-0.5,0
	c-2.2,0-4,0.8-5.3,2.3c-0.2,0.2-0.3,0.4-0.5,0.6l-36.2-17.1c0.2-0.7,0.3-1.4,0.3-2.1c0-0.8-0.1-1.6-0.3-2.3L8.4,261
	C9,261.3,9.8,261.5,10.6,261.6z M-29.1,317.1c0.2-0.2,0.4-0.5,0.5-0.7l11.3,5.4l24.8,11.7c-0.2,0.7-0.3,1.5-0.3,2.3
	c0,1.7,0.6,3.5,1.6,4.8l-35.8,26.4l-3.6,2.6c-0.1-0.1-0.1-0.1-0.2-0.2v-50.9C-30.1,318.1-29.6,317.7-29.1,317.1z M54.7,426.2
	c0.1,0.5,0.2,0.9,0.4,1.4L3.2,489.4c-0.7-0.2-1.4-0.3-2.2-0.3c-0.8,0-1.5,0.1-2.2,0.3l-23.4-46.9L54.7,426.2z M5.4,490.6l51.5-61.4
	c0.4,0.1,0.8,0.2,1.2,0.3l-1.9,13.7L47.1,509c-0.1,0-0.3,0-0.4,0c-2.5,0-4.4,1.1-5.5,2.7L7.9,497.3c0-0.3,0.1-0.7,0.1-1
	C8,494.1,7.1,492,5.4,490.6z M51.9,521.1c1-1.2,1.6-2.8,1.7-4.5l0.9-0.1l87.7-9.1c0.1,0.1,0.2,0.2,0.2,0.3l-67.1,64.8
	c-1-0.6-2.2-1-3.7-1c-0.2,0-0.5,0-0.7,0l-19.7-49.8C51.5,521.5,51.7,521.3,51.9,521.1z M172.7,618.3l19.9-46.6
	c0.6,0.2,1.3,0.3,2,0.3c3.3,0,5.5-1.9,6.5-4.3l15,6.6l58.6,25.8c-0.3,0.6-0.5,1.2-0.7,1.8l-99,18.9
	C174.5,619.8,173.7,618.9,172.7,618.3z M287.8,604.3l43.8,7.9l15.6,2.8c-0.3,0.9-0.5,1.8-0.5,2.8c0,0.2,0,0.3,0,0.5l-21.9,15.8
	l-26.3,19c-0.6-0.3-1.4-0.5-2.2-0.5l-10.7-43.4C286.9,607.9,287.7,606.1,287.8,604.3z M356.9,624.3c2.5-1.2,3.8-3.9,3.8-6.5
	c0-1.9-0.6-3.6-1.7-4.9c-0.2-0.2-0.3-0.4-0.5-0.5l21.4-17.2c0.3,0.2,0.5,0.4,0.8,0.5l-13.9,68.7L356.9,624.3z M376.9,589.1
	c0,1.5,0.4,3.1,1.3,4.4L356.4,611c-0.7-0.3-1.5-0.4-2.4-0.5l-9.5-76.7c0.2-0.1,0.3-0.2,0.5-0.2l32.9,51.6
	C377.2,586.4,376.9,587.7,376.9,589.1z M434.8,403.9l30.9,51.5c-3.1,0.9-4.8,3.9-4.8,6.8L347.1,522L434.8,403.9z M468.2,455.2
	L441,409.9l-3.4-5.6l26.4,10.8l79.8,32.8c-0.1,0.2-0.1,0.4-0.2,0.6l-70.5,9C472,456.2,470.4,455.3,468.2,455.2z M284.7,141.1
	l3.3-6.8l20.5-41.8c2.4-0.4,4.1-1.8,5-3.6l61.9,19.5L286.6,143C286.1,142.2,285.5,141.6,284.7,141.1z M134.4,135.1l4.8-3.6h0.8v-0.6
	l14.8-11.3c1,0.6,2.3,1,3.7,1c3.7,0,5.9-2.3,6.7-5.1l56.1-4.7l-86.9,24.5C134.5,135.3,134.4,135.2,134.4,135.1z M-30.4,375.6
	c0.9-0.8,1.3-1.9,1.3-3c0-0.4-0.1-0.7-0.1-1.1l39.9-29.4c0.6,0.3,1.2,0.6,1.9,0.7L-26,435.6L-30.4,375.6z M629.7,232.4
	c0.5-0.1,1-0.2,1.5-0.4l11.8,84.8l-54.6,26.8L629.7,232.4z M555.6,445.7c-0.6-0.6-1.2-1.2-2-1.5l32.9-95.1l24.3,93.7
	c-1.6,0.3-2.9,1-3.9,2.2c-0.6,0.7-1.1,1.6-1.4,2.5l-48.9,0C556.4,446.8,556.1,446.2,555.6,445.7z M616.9,444.4
	c-1.1-1-2.7-1.7-4.6-1.7l-24.7-95.4l74.7,58.4c-0.5,1-0.7,2.2-0.7,3.4c0,1,0.2,1.9,0.5,2.8L616.9,444.4z M668.5,401.8
	c-0.4,0-0.8,0-1.2,0.1l-22.1-83.8l52.9,7.9c0,0.3-0.1,0.6-0.1,0.9c0,1.9,0.7,3.7,1.9,5.1l-30.1,69.9
	C669.4,401.8,669,401.8,668.5,401.8z M132.9,132c-0.2-0.2-0.3-0.4-0.5-0.5h1.2L132.9,132z M1325.1,113.4h-180.9v-0.1h180.9V113.4z
	 M1325.1,85h-180.9v-0.1h180.9V85z M1325.1,595.8h-180.9v-0.1h180.9V595.8z M1325.1,571.5h-180.9v-0.1h180.9V571.5z M1325.1,558.2
	h-180.9v-0.1h180.9V558.2z M1325.1,547.1h-180.9V547h180.9V547.1z M1325.1,508.5h-180.9v-0.1h180.9V508.5z M1325.1,488.3h-180.9
	v-0.1h180.9V488.3z M1325.1,409.1l-180.9,0.2v-0.1l180.9-0.2V409.1z M1325.1,317.2h-180.9v-0.1h180.9V317.2z M1325.1,301.1h-180.9
	V301h180.9V301.1z M1325.1,274.7h-180.9v-0.1h180.9V274.7z M1325.1,195.7h-180.9v-0.1h180.9V195.7z M1325.1,168.6h-180.9v-0.1h180.9
	V168.6z M1325.1,153.9h-180.9v-0.1h180.9V153.9z M1325.1,131.8h-180.9v-0.1h180.9V131.8z"/>
</svg>
