<?xml version="1.0" encoding="utf-8"?>
<!-- Generator: Adobe Illustrator 24.0.0, SVG Export Plug-In . SVG Version: 6.00 Build 0)  -->
<svg version="1.1" id="Livello_1" xmlns="http://www.w3.org/2000/svg" xmlns:xlink="http://www.w3.org/1999/xlink" x="0px" y="0px"
	 viewBox="0 0 595.3 841.9" style="enable-background:new 0 0 595.3 841.9;" xml:space="preserve">
<style type="text/css">
	.st0{clip-path:url(#SVGID_2_);fill:#D3E4F5;}
	.st1{clip-path:url(#SVGID_2_);fill:#B2D1ED;}
</style>
<g>
	<defs>
		<rect id="SVGID_1_" x="-95.4" y="27.8" width="786" height="786"/>
	</defs>
	<clipPath id="SVGID_2_">
		<use xlink:href="#SVGID_1_"  style="overflow:visible;"/>
	</clipPath>
	<path class="st0" d="M102.8,28.3C21,21.5-50.8,82.4-57.6,164.2l-37.3,451.4c-6.8,81.8,54.1,153.6,135.9,160.4l451.4,37.3
		c81.8,6.8,153.6-54.1,160.3-135.9L690,226c6.8-81.8-54.1-153.6-135.9-160.4L102.8,28.3z"/>
	<path class="st1" d="M652.7,677.4L690,226c6-72.5-41.2-137.1-109-155.5c-2.7,162-60.3,657.4-664.1,616.6
		c21.1,48.5,67.6,84.2,124.1,88.9l451.4,37.3C574.2,820,646,759.2,652.7,677.4"/>
</g>
</svg>
