<?xml version="1.0" encoding="utf-8"?>
<!-- Generator: Adobe Illustrator 24.0.0, SVG Export Plug-In . SVG Version: 6.00 Build 0)  -->
<svg version="1.1" id="Livello_1" xmlns="http://www.w3.org/2000/svg" xmlns:xlink="http://www.w3.org/1999/xlink" x="0px" y="0px"
	 viewBox="0 0 595.3 841.9" style="enable-background:new 0 0 595.3 841.9;" xml:space="preserve">
<style type="text/css">
	.st0{clip-path:url(#SVGID_2_);fill:#1F3B71;}
	.st1{clip-path:url(#SVGID_4_);fill:#1F3B71;}
</style>
<g>
	<g>
		<defs>
			<rect id="SVGID_1_" x="-134.4" y="-11.2" width="863.8" height="863.8"/>
		</defs>
		<clipPath id="SVGID_2_">
			<use xlink:href="#SVGID_1_"  style="overflow:visible;"/>
		</clipPath>
		<path class="st0" d="M108.3-9.8C21-21.2-59,40.4-70.4,127.8L-133,609.9c-11.3,87.4,50.3,167.4,137.6,178.8l482.1,62.6
			c87.4,11.3,167.4-50.3,178.7-137.6l62.6-482.1c11.3-87.4-50.3-167.4-137.6-178.7L108.3-9.8z"/>
	</g>
	<g>
		<defs>
			<rect id="SVGID_3_" x="-134.4" y="-11.2" width="863.8" height="863.8"/>
		</defs>
		<clipPath id="SVGID_4_">
			<use xlink:href="#SVGID_3_"  style="overflow:visible;"/>
		</clipPath>
		<path class="st1" d="M665.5,713.7l62.6-482.1c10.1-77.5-37.3-149-109-172.2c-11,173.6-97.5,701.8-743,627.8
			c20.2,53.1,68.3,93.6,128.6,101.5l482.1,62.6C574.1,862.7,654.1,801.1,665.5,713.7"/>
	</g>
</g>
</svg>
