<?xml version="1.0" encoding="utf-8"?>
<!-- Generator: Adobe Illustrator 24.0.0, SVG Export Plug-In . SVG Version: 6.00 Build 0)  -->
<svg version="1.1" id="Livello_1" xmlns="http://www.w3.org/2000/svg" xmlns:xlink="http://www.w3.org/1999/xlink" x="0px" y="0px"
	 viewBox="0 0 595.3 841.9" style="enable-background:new 0 0 595.3 841.9;" xml:space="preserve">
<style type="text/css">
	.st0{clip-path:url(#SVGID_2_);fill:#EBECED;}
	.st1{clip-path:url(#SVGID_4_);fill:#DADDDE;}
</style>
<g>
	<g>
		<defs>
			<rect id="SVGID_1_" x="-136.6" y="9.9" width="822.1" height="822.1"/>
		</defs>
		<clipPath id="SVGID_2_">
			<use xlink:href="#SVGID_1_"  style="overflow:visible;"/>
		</clipPath>
		<path class="st0" d="M-6.5,75.4c-82.6,11.6-140.2,88-128.6,170.6L-71,701.9c11.6,82.6,88,140.2,170.6,128.6l455.9-64.1
			c82.6-11.6,140.2-88,128.5-170.6l-64.1-455.9C608.4,57.3,532-0.2,449.4,11.4L-6.5,75.4z"/>
	</g>
	<g>
		<defs>
			<rect id="SVGID_3_" x="-136.6" y="9.9" width="822.1" height="822.1"/>
		</defs>
		<clipPath id="SVGID_4_">
			<use xlink:href="#SVGID_3_"  style="overflow:visible;"/>
		</clipPath>
		<path class="st1" d="M684.1,595.8L620,139.9C609.7,66.7,548.5,13.3,477.1,10.1c33.5,161.3,87.4,665.3-520.4,760
			c31.8,43.4,85.9,68.4,142.9,60.3l455.9-64.1C638.2,754.8,695.7,678.5,684.1,595.8"/>
	</g>
</g>
</svg>
