<?xml version="1.0" encoding="utf-8"?>
<!-- Generator: Adobe Illustrator 24.0.0, SVG Export Plug-In . SVG Version: 6.00 Build 0)  -->
<svg version="1.1" id="Livello_1" xmlns="http://www.w3.org/2000/svg" xmlns:xlink="http://www.w3.org/1999/xlink" x="0px" y="0px"
	 viewBox="0 0 595.3 841.9" style="enable-background:new 0 0 595.3 841.9;" xml:space="preserve">
<style type="text/css">
	.st0{clip-path:url(#SVGID_2_);fill:#283583;}
</style>
<g>
	<defs>
		<rect id="SVGID_1_" x="-221.8" y="205" width="1038.7" height="431.5"/>
	</defs>
	<clipPath id="SVGID_2_">
		<use xlink:href="#SVGID_1_"  style="overflow:visible;"/>
	</clipPath>
	<path class="st0" d="M558.6,635.6h1.5v-1.9h-1.5V635.6z M516.6,614.6c0.4-10.5,7.4-18.3,17.3-18.3c10.6,0,16.3,9.2,16.6,18.3H516.6
		z M534.8,636.6c7,0,12.8-3.8,16.2-8.7l-1.4-1c-3.2,4.5-8.6,8.1-14.8,8.1c-9.8,0-17.9-7.4-18.2-18.9h35.8v-0.3
		c0-10-5.8-21.1-18.4-21.1c-11.1,0-19.2,9-19.2,20.8v0.2C514.8,628.5,523.8,636.6,534.8,636.6 M468.9,635.6h1.7v-22.2
		c0-9.6,7-17.2,15.9-17.2c10.1,0,15.3,6.9,15.3,16.9v22.5h1.7V613c0-11-6-18.3-16.8-18.3c-9.5,0-14.8,7-16.1,11.9v-11h-1.7V635.6z
		 M436.2,635c-11.2,0-19.1-8.8-19.1-19.3v-0.2c0-10.5,7.7-19.3,19-19.3c11.2,0,19.1,8.8,19.1,19.3v0.2
		C455.2,626.2,447.5,635,436.2,635 M436.1,636.6c12.6,0,20.8-9.8,20.8-21v-0.2c0-11.2-8.3-20.8-20.8-20.8c-12.6,0-20.8,9.8-20.8,21
		v0.2C415.3,627,423.6,636.6,436.1,636.6 M401.2,635.6h1.7v-40h-1.7V635.6z M400.8,584.2h2.5v-4.6h-2.5V584.2z M357.2,635.6h33.1
		v-1.5h-30.6l30.5-37.5v-1h-32v1.5h29.5l-30.5,37.5V635.6z M328.1,635c-7,0-13.3-3.4-13.3-10.5v-0.2c0-7.4,7.1-11,16.2-11
		c6.1,0,10.7,1,15,2.6v5.1C346,628.1,338.8,635,328.1,635 M328,636.6c10.2,0,16.2-5.8,17.9-10.4v9.4h1.7v-24.9c0-5-1.4-8.9-3.9-11.4
		c-3-3-7.3-4.4-12.8-4.4c-5.2,0-9.6,1.4-14,3.5l0.6,1.4c4.2-2,8.3-3.4,13.3-3.4c9.4,0,15.1,4.6,15.1,14.2v3.4c-4-1.4-9.4-2.5-15-2.5
		c-10,0-17.8,4.3-17.8,12.7v0.2C313.1,632.5,320.2,636.6,328,636.6 M294.4,635.6h1.7v-38.5h14.6v-1.5h-14.6v-5.4
		c0-7.9,3.5-11.5,9.2-11.5c2.1,0,4.1,0.4,5.6,1.1v-1.7c-1.6-0.7-3.2-1.1-5.6-1.1c-3.2,0-5.8,1-7.6,2.8c-2.1,2.1-3.3,5.5-3.3,10.1
		v5.8h-6.3v1.5h6.3V635.6z M264.7,636.3c8.3,0,14.5-4.3,14.5-10.6v-0.2c0-6.9-6.5-9.1-14.4-11.3c-7-1.9-12.7-3.9-12.7-9.2V605
		c0-4.7,4.9-8.5,12.2-8.5c4.2,0,9,1.5,13,4.3l1-1.4c-4.2-3-9.4-4.5-13.9-4.5c-8.4,0-13.9,4.6-13.9,10.2v0.2c0,6.3,5.8,8.4,14,10.7
		c6.5,1.8,13.1,3.6,13.1,9.8v0.2c0,5.2-5.4,8.9-12.6,8.9c-5.2,0-10.8-2-15.2-5.7l-1,1.4C253,634.2,259.1,636.3,264.7,636.3
		 M235.4,635.6h1.7v-40h-1.7V635.6z M235,584.2h2.5v-4.6H235V584.2z M200,635c-11,0-18.3-8.7-18.3-19.4v-0.2
		c0-10.7,7.4-19.2,18.3-19.2c10.8,0,18.5,9,18.5,19.3v0.2C218.4,626.1,210.8,635,200,635 M199.9,636.6c9.3,0,16.2-5.8,18.5-13.4
		v12.4h1.7v-58.4h-1.7V608c-2.3-7.6-9.2-13.4-18.5-13.4c-11.6,0-20,9.3-20,20.9v0.2C179.9,627.3,188.3,636.6,199.9,636.6 M147.6,635
		c-11,0-18.3-8.7-18.3-19.4v-0.2c0-10.7,7.4-19.2,18.3-19.2c10.8,0,18.5,9,18.5,19.3v0.2C166,626.1,158.4,635,147.6,635
		 M147.5,636.6c9.3,0,16.2-5.8,18.5-13.4v12.4h1.7v-58.4H166V608c-2.3-7.6-9.2-13.4-18.5-13.4c-11.6,0-20,9.3-20,20.9v0.2
		C127.5,627.3,135.9,636.6,147.5,636.6 M97.4,635c-11.2,0-19.1-8.8-19.1-19.3v-0.2c0-10.5,7.7-19.3,19-19.3
		c11.2,0,19.1,8.8,19.1,19.3v0.2C116.4,626.2,108.7,635,97.4,635 M97.3,636.6c12.6,0,20.8-9.8,20.8-21v-0.2
		c0-11.2-8.3-20.8-20.8-20.8c-12.6,0-20.8,9.8-20.8,21v0.2C76.5,627,84.8,636.6,97.3,636.6 M52.4,636.3c8.3,0,14.5-4.3,14.5-10.6
		v-0.2c0-6.9-6.5-9.1-14.4-11.3c-7-1.9-12.7-3.9-12.7-9.2V605c0-4.7,4.9-8.5,12.2-8.5c4.2,0,9,1.5,13,4.3l1-1.4
		c-4.2-3-9.4-4.5-13.9-4.5c-8.4,0-13.9,4.6-13.9,10.2v0.2c0,6.3,5.8,8.4,14,10.7c6.5,1.8,13.1,3.6,13.1,9.8v0.2
		c0,5.2-5.4,8.9-12.6,8.9c-5.2,0-10.8-2-15.2-5.7l-1,1.4C40.8,634.2,46.8,636.3,52.4,636.3"/>
	<path class="st0" d="M618.6,559.1c0.2-2.6,2-4.5,4.3-4.5c2.7,0,4,2.2,4.2,4.5H618.6z M623.1,565.7c2.2,0,3.6-0.9,4.8-2.2l-0.8-0.7
		c-1,1-2.2,1.8-4,1.8c-2.3,0-4.3-1.7-4.6-4.6h9.6c0-0.2,0-0.2,0-0.5c0-3.4-2.1-6.1-5.3-6.1c-3.1,0-5.5,2.7-5.5,6.1v0
		C617.4,563.3,620.1,565.7,623.1,565.7 M602.3,551.9h1l-2-3l-1.4,0.7L602.3,551.9z M601.9,564.7c-1.8,0-3.4-1-3.4-2.7v0
		c0-1.6,1.4-2.7,3.8-2.7c1.7,0,3,0.3,3.9,0.5v1.3C606.3,563.2,604.3,564.7,601.9,564.7 M601.8,565.7c2.2,0,3.6-1.1,4.4-2.2v1.9h1.1
		v-7.2c0-1.4-0.4-2.5-1.2-3.3c-0.8-0.8-2.1-1.3-3.7-1.3c-1.6,0-2.8,0.4-4.1,1l0.4,1c1.1-0.5,2.2-0.9,3.6-0.9c2.4,0,3.8,1.2,3.8,3.6
		v0.5c-1.1-0.3-2.2-0.5-3.8-0.5c-3,0-5.1,1.4-5.1,3.8v0C597.4,564.5,599.7,565.7,601.8,565.7 M593.1,565.7c0.7,0,1.3-0.1,1.9-0.4v-1
		c-0.7,0.3-1.1,0.4-1.7,0.4c-1.3,0-2.3-0.6-2.3-2.3v-7.5h4.1v-1h-4.1v-3.7h-1.1v3.7h-1.7v1h1.7v7.6
		C589.8,564.7,591.3,565.7,593.1,565.7 M583.7,565.4h1.1v-11.6h-1.1V565.4z M583.6,550.8h1.4v-1.5h-1.4V550.8z M576,565.7
		c2.2,0,4-1.3,4-3.4v0c0-2-2-2.7-3.8-3.3c-1.7-0.5-3.2-1-3.2-2.3v0c0-1.2,1-2,2.6-2c1.2,0,2.5,0.5,3.6,1.2l0.6-0.9
		c-1.2-0.8-2.7-1.3-4.1-1.3c-2.3,0-3.8,1.3-3.8,3.2v0c0,2.1,2.1,2.6,4,3.2c1.6,0.5,3.1,1,3.1,2.3v0c0,1.3-1.2,2.2-2.8,2.2
		c-1.5,0-2.9-0.5-4.2-1.5l-0.7,0.9C572.4,565,574.3,565.7,576,565.7 M562.8,564.7c-2.7,0-4.8-2.2-4.8-5v0c0-2.7,2-5,4.7-5
		c2.7,0,4.8,2.2,4.8,5v0C567.6,562.4,565.6,564.7,562.8,564.7 M562.8,565.7c3.5,0,6-2.8,6-6.1v0c0-3.3-2.5-6-5.9-6
		c-3.5,0-6,2.8-6,6.1v0C556.8,562.9,559.3,565.7,562.8,565.7 M552.1,565.4h1.1v-11.6h-1.1V565.4z M552,550.8h1.4v-1.5H552V550.8z
		 M542.9,565.4h1.1v-4.8c0-3.8,2.3-5.8,5-5.8h0.1v-1.2c-2.3-0.1-4.2,1.4-5.1,3.5v-3.3h-1.1V565.4z M533.3,565.7
		c2.1,0,3.4-1.1,4.2-2.4v2.2h1.1v-11.6h-1.1v6.7c0,2.4-1.8,4.1-4,4.1c-2.3,0-3.7-1.6-3.7-4v-6.9h-1.1v7.1
		C528.7,563.7,530.4,565.7,533.3,565.7 M521,565.7c2.1,0,3.6-1,4.7-2.3l-0.8-0.7c-1,1.1-2.3,1.9-3.9,1.9c-2.7,0-4.8-2.2-4.8-5v0
		c0-2.8,2-5,4.7-5c1.7,0,2.9,0.9,3.9,1.9l0.8-0.8c-1.1-1.1-2.5-2.1-4.6-2.1c-3.3,0-5.9,2.8-5.9,6.1v0
		C515.1,562.9,517.7,565.7,521,565.7 M503.2,567.9c1.4-0.5,1.9-1.3,1.9-2.7v-1.7h-1.5v1.9h0.6c0.1,0.9-0.3,1.4-1.3,1.9L503.2,567.9z
		 M491.1,559.1c0.2-2.6,2-4.5,4.3-4.5c2.7,0,4,2.2,4.2,4.5H491.1z M495.7,565.7c2.2,0,3.6-0.9,4.8-2.2l-0.8-0.7c-1,1-2.2,1.8-4,1.8
		c-2.3,0-4.3-1.7-4.6-4.6h9.6c0-0.2,0-0.2,0-0.5c0-3.4-2.1-6.1-5.3-6.1c-3.1,0-5.5,2.7-5.5,6.1v0C490,563.3,492.6,565.7,495.7,565.7
		 M482.2,565.4h1.1v-4.8c0-3.8,2.3-5.8,5-5.8h0.1v-1.2c-2.3-0.1-4.2,1.4-5.1,3.5v-3.3h-1.1V565.4z M472.8,564.7
		c-2.7,0-4.8-2.2-4.8-5v0c0-2.7,2-5,4.7-5c2.7,0,4.8,2.2,4.8,5v0C477.6,562.4,475.6,564.7,472.8,564.7 M472.8,565.7
		c3.5,0,6-2.8,6-6.1v0c0-3.3-2.5-6-5.9-6c-3.5,0-6,2.8-6,6.1v0C466.9,562.9,469.4,565.7,472.8,565.7 M458.4,564.7
		c-2.4,0-4.7-2-4.7-5v0c0-3,2.3-5,4.7-5c2.4,0,4.6,2,4.6,5v0C463,562.8,460.9,564.7,458.4,564.7 M452.6,569.1h1.1v-6.1
		c1,1.5,2.5,2.8,4.8,2.8c2.8,0,5.6-2.3,5.6-6.1v0c0-3.8-2.8-6-5.6-6c-2.3,0-3.8,1.3-4.8,2.9v-2.6h-1.1V569.1z M443.1,565.7
		c2.1,0,3.4-1.1,4.2-2.4v2.2h1.1v-11.6h-1.1v6.7c0,2.4-1.8,4.1-4,4.1c-2.3,0-3.7-1.6-3.7-4v-6.9h-1.1v7.1
		C438.4,563.7,440.1,565.7,443.1,565.7 M433.4,565.7c0.7,0,1.3-0.1,1.9-0.4v-1c-0.7,0.3-1.1,0.4-1.7,0.4c-1.3,0-2.3-0.6-2.3-2.3
		v-7.5h4.1v-1h-4.1v-3.7h-1.1v3.7h-1.7v1h1.7v7.6C430.2,564.7,431.6,565.7,433.4,565.7 M422.2,565.7c2.2,0,4-1.3,4-3.4v0
		c0-2-2-2.7-3.8-3.3c-1.7-0.5-3.2-1-3.2-2.3v0c0-1.2,1-2,2.6-2c1.2,0,2.5,0.5,3.6,1.2l0.6-0.9c-1.2-0.8-2.7-1.3-4.1-1.3
		c-2.3,0-3.8,1.3-3.8,3.2v0c0,2.1,2.1,2.6,4,3.2c1.6,0.5,3.1,1,3.1,2.3v0c0,1.3-1.2,2.2-2.8,2.2c-1.5,0-2.9-0.5-4.2-1.5l-0.7,0.9
		C418.7,565,420.5,565.7,422.2,565.7 M405.8,567.9c1.4-0.5,1.9-1.3,1.9-2.7v-1.7h-1.5v1.9h0.6c0.1,0.9-0.3,1.4-1.3,1.9L405.8,567.9z
		 M396.9,564.7c-1.8,0-3.4-1-3.4-2.7v0c0-1.6,1.4-2.7,3.8-2.7c1.7,0,3,0.3,3.9,0.5v1.3C401.3,563.2,399.3,564.7,396.9,564.7
		 M396.9,565.7c2.2,0,3.6-1.1,4.4-2.2v1.9h1.1v-7.2c0-1.4-0.4-2.5-1.2-3.3c-0.8-0.8-2.1-1.3-3.7-1.3c-1.6,0-2.8,0.4-4.1,1l0.4,1
		c1.1-0.5,2.2-0.9,3.6-0.9c2.4,0,3.8,1.2,3.8,3.6v0.5c-1.1-0.3-2.2-0.5-3.8-0.5c-3,0-5.1,1.4-5.1,3.8v0
		C392.4,564.5,394.7,565.7,396.9,565.7 M388.1,565.7c0.7,0,1.3-0.1,1.9-0.4v-1c-0.7,0.3-1.1,0.4-1.7,0.4c-1.3,0-2.3-0.6-2.3-2.3
		v-7.5h4.1v-1h-4.1v-3.7h-1.1v3.7h-1.7v1h1.7v7.6C384.8,564.7,386.3,565.7,388.1,565.7 M375.1,565.4h1.1v-4.8c0-3.8,2.3-5.8,5-5.8
		h0.1v-1.2c-2.3-0.1-4.2,1.4-5.1,3.5v-3.3h-1.1V565.4z M362.2,559.1c0.2-2.6,2-4.5,4.3-4.5c2.7,0,4,2.2,4.2,4.5H362.2z M366.7,565.7
		c2.2,0,3.6-0.9,4.8-2.2l-0.8-0.7c-1,1-2.2,1.8-4,1.8c-2.3,0-4.3-1.7-4.6-4.6h9.6c0-0.2,0-0.2,0-0.5c0-3.4-2.1-6.1-5.3-6.1
		c-3.1,0-5.5,2.7-5.5,6.1v0C361,563.3,363.7,565.7,366.7,565.7 M352.6,564.7c-2.4,0-4.7-2-4.7-5v0c0-3,2.3-5,4.7-5
		c2.4,0,4.6,2,4.6,5v0C357.1,562.8,355.1,564.7,352.6,564.7 M346.8,569.1h1.1v-6.1c1,1.5,2.5,2.8,4.8,2.8c2.8,0,5.6-2.3,5.6-6.1v0
		c0-3.8-2.8-6-5.6-6c-2.3,0-3.8,1.3-4.8,2.9v-2.6h-1.1V569.1z M337.4,564.7c-2.7,0-4.8-2.2-4.8-5v0c0-2.7,2-5,4.7-5
		c2.7,0,4.8,2.2,4.8,5v0C342.1,562.4,340.2,564.7,337.4,564.7 M337.3,565.7c3.5,0,6-2.8,6-6.1v0c0-3.3-2.5-6-5.9-6
		c-3.5,0-6,2.8-6,6.1v0C331.4,562.9,333.9,565.7,337.3,565.7 M324.7,565.7c2.1,0,3.6-1,4.7-2.3l-0.8-0.7c-1,1.1-2.3,1.9-3.9,1.9
		c-2.7,0-4.8-2.2-4.8-5v0c0-2.8,2-5,4.7-5c1.7,0,2.9,0.9,3.9,1.9l0.8-0.8c-1.1-1.1-2.5-2.1-4.6-2.1c-3.3,0-5.9,2.8-5.9,6.1v0
		C318.7,562.9,321.3,565.7,324.7,565.7 M312,565.7c2.2,0,4-1.3,4-3.4v0c0-2-2-2.7-3.8-3.3c-1.7-0.5-3.2-1-3.2-2.3v0c0-1.2,1-2,2.6-2
		c1.2,0,2.5,0.5,3.6,1.2l0.6-0.9c-1.2-0.8-2.7-1.3-4.1-1.3c-2.3,0-3.8,1.3-3.8,3.2v0c0,2.1,2.1,2.6,4,3.2c1.6,0.5,3.1,1,3.1,2.3v0
		c0,1.3-1.2,2.2-2.8,2.2c-1.5,0-2.9-0.5-4.2-1.5l-0.7,0.9C308.5,565,310.3,565.7,312,565.7 M292.3,551.9h1l-2-3l-1.4,0.7
		L292.3,551.9z M288.5,559.1c0.2-2.6,2-4.5,4.3-4.5c2.7,0,4,2.2,4.2,4.5H288.5z M293,565.7c2.2,0,3.6-0.9,4.8-2.2l-0.8-0.7
		c-1,1-2.2,1.8-4,1.8c-2.3,0-4.3-1.7-4.6-4.6h9.6c0-0.2,0-0.2,0-0.5c0-3.4-2.1-6.1-5.3-6.1c-3.1,0-5.5,2.7-5.5,6.1v0
		C287.3,563.3,289.9,565.7,293,565.7 M275.4,567.9c1.4-0.5,1.9-1.3,1.9-2.7v-1.7h-1.5v1.9h0.6c0.1,0.9-0.3,1.4-1.3,1.9L275.4,567.9z
		 M263.3,559.1c0.2-2.6,2-4.5,4.3-4.5c2.7,0,4,2.2,4.2,4.5H263.3z M267.9,565.7c2.2,0,3.6-0.9,4.8-2.2l-0.8-0.7c-1,1-2.2,1.8-4,1.8
		c-2.3,0-4.3-1.7-4.6-4.6h9.6c0-0.2,0-0.2,0-0.5c0-3.4-2.1-6.1-5.3-6.1c-3.1,0-5.5,2.7-5.5,6.1v0
		C262.2,563.3,264.8,565.7,267.9,565.7 M258.1,565.7c0.7,0,1.3-0.1,1.9-0.4v-1c-0.7,0.3-1.1,0.4-1.7,0.4c-1.3,0-2.3-0.6-2.3-2.3
		v-7.5h4.1v-1h-4.1v-3.7h-1.1v3.7h-1.7v1h1.7v7.6C254.8,564.7,256.3,565.7,258.1,565.7 M240.2,565.4h1.1v-6.7c0-2.4,1.8-4.1,4-4.1
		c2.3,0,3.7,1.6,3.7,4v6.9h1.1v-7.1c0-2.8-1.7-4.8-4.6-4.8c-2.1,0-3.4,1.1-4.2,2.4v-2.2h-1.1V565.4z M230.8,564.7
		c-1.8,0-3.4-1-3.4-2.7v0c0-1.6,1.4-2.7,3.8-2.7c1.7,0,3,0.3,3.9,0.5v1.3C235.2,563.2,233.1,564.7,230.8,564.7 M230.7,565.7
		c2.2,0,3.6-1.1,4.4-2.2v1.9h1.1v-7.2c0-1.4-0.4-2.5-1.2-3.3c-0.8-0.8-2.1-1.3-3.7-1.3c-1.6,0-2.8,0.4-4.1,1l0.4,1
		c1.1-0.5,2.2-0.9,3.6-0.9c2.4,0,3.8,1.2,3.8,3.6v0.5c-1.1-0.3-2.2-0.5-3.8-0.5c-3,0-5.1,1.4-5.1,3.8v0
		C226.2,564.5,228.5,565.7,230.7,565.7 M219.6,565.7c2.2,0,4-1.3,4-3.4v0c0-2-2-2.7-3.8-3.3c-1.7-0.5-3.2-1-3.2-2.3v0
		c0-1.2,1-2,2.6-2c1.2,0,2.5,0.5,3.6,1.2l0.6-0.9c-1.2-0.8-2.7-1.3-4.1-1.3c-2.3,0-3.8,1.3-3.8,3.2v0c0,2.1,2.1,2.6,4,3.2
		c1.6,0.5,3.1,1,3.1,2.3v0c0,1.3-1.2,2.2-2.8,2.2c-1.5,0-2.9-0.5-4.2-1.5l-0.7,0.9C216.1,565,217.9,565.7,219.6,565.7 M208.5,565.7
		c2.2,0,4-1.3,4-3.4v0c0-2-2-2.7-3.8-3.3c-1.7-0.5-3.2-1-3.2-2.3v0c0-1.2,1-2,2.6-2c1.2,0,2.5,0.5,3.6,1.2l0.6-0.9
		c-1.2-0.8-2.7-1.3-4.1-1.3c-2.3,0-3.8,1.3-3.8,3.2v0c0,2.1,2.1,2.6,4,3.2c1.6,0.5,3.1,1,3.1,2.3v0c0,1.3-1.2,2.2-2.8,2.2
		c-1.5,0-2.9-0.5-4.2-1.5l-0.7,0.9C205,565,206.8,565.7,208.5,565.7 M191.8,559.1c0.2-2.6,2-4.5,4.3-4.5c2.7,0,4,2.2,4.2,4.5H191.8z
		 M196.3,565.7c2.2,0,3.6-0.9,4.8-2.2l-0.8-0.7c-1,1-2.2,1.8-4,1.8c-2.3,0-4.3-1.7-4.6-4.6h9.6c0-0.2,0-0.2,0-0.5
		c0-3.4-2.1-6.1-5.3-6.1c-3.1,0-5.5,2.7-5.5,6.1v0C190.7,563.3,193.3,565.7,196.3,565.7 M182.9,565.4h1.1v-4.8c0-3.8,2.3-5.8,5-5.8
		h0.1v-1.2c-2.3-0.1-4.2,1.4-5.1,3.5v-3.3h-1.1V565.4z M170,559.1c0.2-2.6,2-4.5,4.3-4.5c2.7,0,4,2.2,4.2,4.5H170z M174.5,565.7
		c2.2,0,3.6-0.9,4.8-2.2l-0.8-0.7c-1,1-2.2,1.8-4,1.8c-2.3,0-4.3-1.7-4.6-4.6h9.6c0-0.2,0-0.2,0-0.5c0-3.4-2.1-6.1-5.3-6.1
		c-3.1,0-5.5,2.7-5.5,6.1v0C168.8,563.3,171.5,565.7,174.5,565.7 M164.7,565.7c0.7,0,1.3-0.1,1.9-0.4v-1c-0.7,0.3-1.1,0.4-1.7,0.4
		c-1.3,0-2.3-0.6-2.3-2.3v-7.5h4.1v-1h-4.1v-3.7h-1.1v3.7h-1.7v1h1.7v7.6C161.5,564.7,162.9,565.7,164.7,565.7 M146.9,565.4h1.1
		v-6.7c0-2.4,1.8-4.1,4-4.1c2.3,0,3.7,1.6,3.7,4v6.9h1.1v-7.1c0-2.8-1.7-4.8-4.6-4.8c-2.1,0-3.4,1.1-4.2,2.4v-2.2h-1.1V565.4z
		 M141.4,565.4h1.1v-11.6h-1.1V565.4z M141.2,550.8h1.4v-1.5h-1.4V550.8z M128.5,567.9c1.4-0.5,1.9-1.3,1.9-2.7v-1.7h-1.5v1.9h0.6
		c0.1,0.9-0.3,1.4-1.3,1.9L128.5,567.9z M116.5,559.1c0.2-2.6,2-4.5,4.3-4.5c2.7,0,4,2.2,4.2,4.5H116.5z M121,565.7
		c2.2,0,3.6-0.9,4.8-2.2l-0.8-0.7c-1,1-2.2,1.8-4,1.8c-2.3,0-4.3-1.7-4.6-4.6h9.6c0-0.2,0-0.2,0-0.5c0-3.4-2.1-6.1-5.3-6.1
		c-3.1,0-5.5,2.7-5.5,6.1v0C115.3,563.3,117.9,565.7,121,565.7 M111.2,565.7c0.7,0,1.3-0.1,1.9-0.4v-1c-0.7,0.3-1.1,0.4-1.7,0.4
		c-1.3,0-2.3-0.6-2.3-2.3v-7.5h4.1v-1H109v-3.7h-1.1v3.7h-1.7v1h1.7v7.6C107.9,564.7,109.4,565.7,111.2,565.7 M93.4,565.4h1.1v-6.7
		c0-2.4,1.8-4.1,4-4.1c2.3,0,3.7,1.6,3.7,4v6.9h1.1v-7.1c0-2.8-1.7-4.8-4.6-4.8c-2.1,0-3.4,1.1-4.2,2.4v-2.2h-1.1V565.4z
		 M83.9,564.7c-1.8,0-3.4-1-3.4-2.7v0c0-1.6,1.4-2.7,3.8-2.7c1.7,0,3,0.3,3.9,0.5v1.3C88.3,563.2,86.2,564.7,83.9,564.7 M83.8,565.7
		c2.2,0,3.6-1.1,4.4-2.2v1.9h1.1v-7.2c0-1.4-0.4-2.5-1.2-3.3c-0.8-0.8-2.1-1.3-3.7-1.3c-1.6,0-2.8,0.4-4.1,1l0.4,1
		c1.1-0.5,2.2-0.9,3.6-0.9c2.4,0,3.8,1.2,3.8,3.6v0.5c-1.1-0.3-2.2-0.5-3.8-0.5c-3,0-5.1,1.4-5.1,3.8v0
		C79.3,564.5,81.6,565.7,83.8,565.7 M66.3,565.4h1.1v-6.7c0-2.4,1.8-4.1,4-4.1c2.3,0,3.7,1.6,3.7,4v6.9h1.1v-7.1
		c0-2.8-1.7-4.8-4.6-4.8c-2.1,0-3.4,1.1-4.2,2.4v-2.2h-1.1V565.4z M56.9,564.7c-2.7,0-4.8-2.2-4.8-5v0c0-2.7,2-5,4.7-5
		c2.7,0,4.8,2.2,4.8,5v0C61.7,562.4,59.7,564.7,56.9,564.7 M56.9,565.7c3.5,0,6-2.8,6-6.1v0c0-3.3-2.5-6-5.9-6c-3.5,0-6,2.8-6,6.1v0
		C51,562.9,53.5,565.7,56.9,565.7 M46.2,565.4h1.1v-11.6h-1.1V565.4z M46.1,550.8h1.4v-1.5h-1.4V550.8z M38.5,565.7
		c2.2,0,4-1.3,4-3.4v0c0-2-2-2.7-3.8-3.3c-1.7-0.5-3.2-1-3.2-2.3v0c0-1.2,1-2,2.6-2c1.2,0,2.5,0.5,3.6,1.2l0.6-0.9
		c-1.2-0.8-2.7-1.3-4.1-1.3c-2.3,0-3.8,1.3-3.8,3.2v0c0,2.1,2.1,2.6,4,3.2c1.6,0.5,3.1,1,3.1,2.3v0c0,1.3-1.2,2.2-2.8,2.2
		c-1.5,0-2.9-0.5-4.2-1.5l-0.7,0.9C35,565,36.8,565.7,38.5,565.7 M27.4,565.7c2.2,0,4-1.3,4-3.4v0c0-2-2-2.7-3.8-3.3
		c-1.7-0.5-3.2-1-3.2-2.3v0c0-1.2,1-2,2.6-2c1.2,0,2.5,0.5,3.6,1.2l0.6-0.9c-1.2-0.8-2.7-1.3-4.1-1.3c-2.3,0-3.8,1.3-3.8,3.2v0
		c0,2.1,2.1,2.6,4,3.2c1.6,0.5,3.1,1,3.1,2.3v0c0,1.3-1.2,2.2-2.8,2.2c-1.5,0-2.9-0.5-4.2-1.5l-0.7,0.9
		C23.9,565,25.7,565.7,27.4,565.7 M14.2,564.7c-1.8,0-3.4-1-3.4-2.7v0c0-1.6,1.4-2.7,3.8-2.7c1.7,0,3,0.3,3.9,0.5v1.3
		C18.6,563.2,16.6,564.7,14.2,564.7 M14.1,565.7c2.2,0,3.6-1.1,4.4-2.2v1.9h1.1v-7.2c0-1.4-0.4-2.5-1.2-3.3
		c-0.8-0.8-2.1-1.3-3.7-1.3c-1.6,0-2.8,0.4-4.1,1l0.4,1c1.1-0.5,2.2-0.9,3.6-0.9c2.4,0,3.8,1.2,3.8,3.6v0.5
		c-1.1-0.3-2.2-0.5-3.8-0.5c-3,0-5.1,1.4-5.1,3.8v0C9.6,564.5,12,565.7,14.1,565.7 M1.4,564.7c-2.4,0-4.7-2-4.7-5v0c0-3,2.3-5,4.7-5
		c2.4,0,4.6,2,4.6,5v0C5.9,562.8,3.9,564.7,1.4,564.7 M-4.4,569.1h1.1v-6.1c1,1.5,2.5,2.8,4.8,2.8c2.8,0,5.6-2.3,5.6-6.1v0
		c0-3.8-2.8-6-5.6-6c-2.3,0-3.8,1.3-4.8,2.9v-2.6h-1.1V569.1z M-13.7,564.7c-2.4,0-4.7-2-4.7-5v0c0-3,2.3-5,4.7-5c2.4,0,4.6,2,4.6,5
		v0C-9.1,562.8-11.1,564.7-13.7,564.7 M-19.5,569.1h1.1v-6.1c1,1.5,2.5,2.8,4.8,2.8c2.8,0,5.6-2.3,5.6-6.1v0c0-3.8-2.8-6-5.6-6
		c-2.3,0-3.8,1.3-4.8,2.9v-2.6h-1.1V569.1z M-28.9,564.7c-1.8,0-3.4-1-3.4-2.7v0c0-1.6,1.4-2.7,3.8-2.7c1.7,0,3,0.3,3.9,0.5v1.3
		C-24.5,563.2-26.6,564.7-28.9,564.7 M-29,565.7c2.2,0,3.6-1.1,4.4-2.2v1.9h1.1v-7.2c0-1.4-0.4-2.5-1.2-3.3
		c-0.8-0.8-2.1-1.3-3.7-1.3c-1.6,0-2.8,0.4-4.1,1l0.4,1c1.1-0.5,2.2-0.9,3.6-0.9c2.4,0,3.8,1.2,3.8,3.6v0.5
		c-1.1-0.3-2.2-0.5-3.8-0.5c-3,0-5.1,1.4-5.1,3.8v0C-33.5,564.5-31.2,565.7-29,565.7"/>
	<path class="st0" d="M650.6,529.7c1.4-0.5,1.9-1.3,1.9-2.7v-1.7H651v1.9h0.6c0.1,0.9-0.3,1.4-1.3,1.9L650.6,529.7z M623,526.7
		c-7,0-13.3-3.4-13.3-10.5V516c0-7.4,7.1-11,16.2-11c6.1,0,10.7,1,15,2.6v5.1C640.8,519.8,633.7,526.7,623,526.7 M622.9,528.3
		c10.2,0,16.2-5.8,17.9-10.4v9.4h1.7v-24.9c0-5-1.4-8.9-3.9-11.4c-3-3-7.3-4.4-12.8-4.4c-5.2,0-9.6,1.4-14,3.5l0.6,1.4
		c4.2-2,8.3-3.4,13.3-3.4c9.4,0,15.1,4.6,15.1,14.2v3.4c-4-1.4-9.4-2.5-15-2.5c-10,0-17.8,4.3-17.8,12.7v0.2
		C608,524.2,615.1,528.3,622.9,528.3 M582.9,527.6h1.3l18.4-40.3h-1.8l-17.3,38.2l-17.4-38.2h-1.8L582.9,527.6z M551.5,527.3h1.7
		v-40h-1.7V527.3z M551.1,475.9h2.5v-4.6h-2.5V475.9z M533.6,528c2.1,0,4.2-0.4,6.1-1.3V525c-1.9,1-4.1,1.4-6.1,1.4
		c-5.7,0-8.6-3.5-8.6-9.5v-28.1h14.8v-1.5H525v-13.8h-1.7v13.8H517v1.5h6.3v28.2C523.3,524,526.9,528,533.6,528 M488,526.7
		c-7,0-13.3-3.4-13.3-10.5V516c0-7.4,7.1-11,16.2-11c6.1,0,10.7,1,15,2.6v5.1C505.8,519.8,498.7,526.7,488,526.7 M487.9,528.3
		c10.2,0,16.2-5.8,17.9-10.4v9.4h1.7v-24.9c0-5-1.4-8.9-3.9-11.4c-3-3-7.3-4.4-12.8-4.4c-5.2,0-9.6,1.4-14,3.5l0.6,1.4
		c4.2-2,8.3-3.4,13.3-3.4c9.4,0,15.1,4.6,15.1,14.2v3.4c-4-1.4-9.4-2.5-15-2.5c-10,0-17.8,4.3-17.8,12.7v0.2
		C472.9,524.2,480,528.3,487.9,528.3 M428.7,506.3c0.4-10.5,7.4-18.3,17.3-18.3c10.6,0,16.3,9.2,16.6,18.3H428.7z M446.8,528.3
		c7,0,12.8-3.8,16.2-8.7l-1.4-1c-3.2,4.5-8.6,8.1-14.8,8.1c-9.8,0-17.9-7.4-18.2-18.9h35.8v-0.3c0-10-5.8-21.1-18.4-21.1
		c-11.1,0-19.2,9-19.2,20.8v0.2C426.8,520.2,435.9,528.3,446.8,528.3 M404.8,527.3h1.7v-20.7c0-7.7,6.1-18.6,16.1-18.6h0.4v-1.6
		c-8.9-0.1-14.6,7.1-16.5,13.8v-12.8h-1.7V527.3z M377.6,528.3c7.5,0,12.6-3.5,16.3-7.9l-1.2-1.1c-3.5,4-8.2,7.4-15,7.4
		c-10.5,0-18.7-9-18.7-19.4v-0.2c0-10.4,8-19.2,18.6-19.2c6.7,0,11.3,3.1,14.9,7l1.2-1.1c-4-4.2-8.6-7.4-16-7.4
		c-11.6,0-20.5,9.5-20.5,20.9v0.2C357.2,518.7,366.1,528.3,377.6,528.3 M338.7,513.8h1l-2-3l-1.4,0.7L338.7,513.8z M334.9,521
		c0.2-2.6,2-4.5,4.3-4.5c2.7,0,4,2.2,4.2,4.5H334.9z M339.4,527.6c2.2,0,3.6-0.9,4.8-2.2l-0.8-0.7c-1,1-2.2,1.8-4,1.8
		c-2.3,0-4.3-1.7-4.6-4.6h9.6c0-0.2,0-0.3,0-0.5c0-3.4-2.1-6.1-5.3-6.1c-3.1,0-5.5,2.7-5.5,6.1v0
		C333.7,525.1,336.4,527.6,339.4,527.6 M322.2,527.3h1.1v-11.6h-1.1V527.3z M322,512.7h1.4v-1.5H322V512.7z M312.6,526.5
		c-2.7,0-4.8-2.2-4.8-5v0c0-2.7,2-5,4.7-5c2.7,0,4.8,2.2,4.8,5v0C317.4,524.3,315.4,526.5,312.6,526.5 M312.6,527.6
		c3.5,0,6-2.8,6-6.1v0c0-3.3-2.5-6-5.9-6c-3.5,0-6,2.8-6,6.1v0C306.6,524.8,309.1,527.6,312.6,527.6 M293.5,527.3h1.1v-6.7
		c0-2.4,1.8-4.1,4-4.1c2.3,0,3.7,1.6,3.7,4v6.9h1.1v-7.1c0-2.8-1.7-4.8-4.6-4.8c-2.1,0-3.4,1.1-4.2,2.4v-2.2h-1.1V527.3z
		 M277.5,527.3h1.1v-4.8c0-3.8,2.3-5.8,5-5.8h0.1v-1.2c-2.3-0.1-4.2,1.4-5.1,3.5v-3.3h-1.1V527.3z M264.6,521c0.2-2.6,2-4.5,4.3-4.5
		c2.7,0,4,2.2,4.2,4.5H264.6z M269.1,527.6c2.2,0,3.6-0.9,4.8-2.2l-0.8-0.7c-1,1-2.2,1.8-4,1.8c-2.3,0-4.4-1.7-4.6-4.6h9.6
		c0-0.2,0-0.3,0-0.5c0-3.4-2.1-6.1-5.3-6.1c-3.1,0-5.5,2.7-5.5,6.1v0C263.4,525.1,266.1,527.6,269.1,527.6 M255,526.5
		c-2.4,0-4.7-2-4.7-5v0c0-3,2.3-5,4.7-5c2.4,0,4.6,2,4.6,5v0C259.5,524.7,257.5,526.5,255,526.5 M249.2,531h1.1v-6.1
		c1,1.5,2.5,2.8,4.8,2.8c2.8,0,5.6-2.3,5.6-6.1v0c0-3.8-2.8-6-5.6-6c-2.3,0-3.8,1.3-4.8,2.9v-2.6h-1.1V531z M236.5,529.7
		c1.4-0.5,1.9-1.3,1.9-2.7v-1.7h-1.5v1.9h0.6c0.1,0.9-0.3,1.4-1.3,1.9L236.5,529.7z M227.7,526.5c-1.8,0-3.4-1-3.4-2.7v0
		c0-1.6,1.4-2.7,3.8-2.7c1.7,0,3,0.3,3.9,0.5v1.3C232.1,525.1,230,526.5,227.7,526.5 M227.6,527.6c2.2,0,3.6-1.1,4.4-2.2v1.9h1.1
		v-7.2c0-1.4-0.4-2.5-1.2-3.3c-0.8-0.8-2.1-1.3-3.7-1.3c-1.6,0-2.8,0.4-4.1,1l0.4,1c1.1-0.5,2.2-0.9,3.6-0.9c2.4,0,3.8,1.2,3.8,3.6
		v0.5c-1.1-0.3-2.2-0.5-3.8-0.5c-3,0-5.1,1.4-5.1,3.8v0C223.1,526.4,225.4,527.6,227.6,527.6 M216.5,527.5c2.2,0,4-1.3,4-3.4v0
		c0-2-2-2.7-3.8-3.3c-1.7-0.5-3.2-1-3.2-2.3v0c0-1.2,1-2,2.6-2c1.2,0,2.5,0.5,3.6,1.2l0.6-0.9c-1.2-0.8-2.7-1.3-4.1-1.3
		c-2.3,0-3.8,1.3-3.8,3.2v0c0,2.1,2.1,2.6,4,3.2c1.6,0.5,3.1,1,3.1,2.3v0c0,1.3-1.2,2.2-2.8,2.2c-1.5,0-2.9-0.5-4.2-1.5l-0.7,0.9
		C213,526.9,214.8,527.5,216.5,527.5 M203.4,526.5c-2.7,0-4.8-2.2-4.8-5v0c0-2.7,2-5,4.7-5c2.7,0,4.8,2.2,4.8,5v0
		C208.1,524.3,206.1,526.5,203.4,526.5 M203.3,527.6c3.5,0,6-2.8,6-6.1v0c0-3.3-2.5-6-5.9-6c-3.5,0-6,2.8-6,6.1v0
		C197.4,524.8,199.9,527.6,203.3,527.6 M192.7,527.3h1.1v-11.6h-1.1V527.3z M192.5,512.7h1.4v-1.5h-1.4V512.7z M183.1,526.5
		c-2.7,0-4.8-2.2-4.8-5v0c0-2.7,2-5,4.7-5c2.7,0,4.8,2.2,4.8,5v0C187.9,524.3,185.9,526.5,183.1,526.5 M183.1,527.6
		c3.5,0,6-2.8,6-6.1v0c0-3.3-2.5-6-5.9-6c-3.5,0-6,2.8-6,6.1v0C177.1,524.8,179.6,527.6,183.1,527.6 M164,527.3h1.1v-6.7
		c0-2.4,1.8-4.1,4-4.1c2.3,0,3.7,1.6,3.7,4v6.9h1.1v-7.1c0-2.8-1.7-4.8-4.6-4.8c-2.1,0-3.4,1.1-4.2,2.4v-2.2H164V527.3z
		 M148.1,513.8h1l-2-3l-1.4,0.7L148.1,513.8z M144.2,521c0.2-2.6,2-4.5,4.3-4.5c2.7,0,4,2.2,4.2,4.5H144.2z M148.7,527.6
		c2.2,0,3.6-0.9,4.8-2.2l-0.8-0.7c-1,1-2.2,1.8-4,1.8c-2.3,0-4.3-1.7-4.6-4.6h9.6c0-0.2,0-0.3,0-0.5c0-3.4-2.1-6.1-5.3-6.1
		c-3.1,0-5.5,2.7-5.5,6.1v0C143,525.1,145.7,527.6,148.7,527.6 M123.1,527.3h1.1v-6.7c0-2.4,1.8-4.1,4-4.1c2.3,0,3.7,1.6,3.7,4v6.9
		h1.1v-7.1c0-2.8-1.7-4.8-4.6-4.8c-2.1,0-3.4,1.1-4.2,2.4v-2.2h-1.1V527.3z M113.7,526.5c-2.7,0-4.8-2.2-4.8-5v0c0-2.7,2-5,4.7-5
		c2.7,0,4.8,2.2,4.8,5v0C118.4,524.3,116.4,526.5,113.7,526.5 M113.6,527.6c3.5,0,6-2.8,6-6.1v0c0-3.3-2.5-6-5.9-6
		c-3.5,0-6,2.8-6,6.1v0C107.7,524.8,110.2,527.6,113.6,527.6 M94.5,527.3h1.1v-6.7c0-2.4,1.8-4.1,4-4.1c2.3,0,3.7,1.6,3.7,4v6.9h1.1
		v-7.1c0-2.8-1.7-4.8-4.6-4.8c-2.1,0-3.4,1.1-4.2,2.4v-2.2h-1.1V527.3z M78.2,526.5c-1.8,0-3.4-1-3.4-2.7v0c0-1.6,1.4-2.7,3.8-2.7
		c1.7,0,3,0.3,3.9,0.5v1.3C82.6,525.1,80.6,526.5,78.2,526.5 M78.1,527.6c2.2,0,3.6-1.1,4.4-2.2v1.9h1.1v-7.2c0-1.4-0.4-2.5-1.2-3.3
		c-0.8-0.8-2.1-1.3-3.7-1.3c-1.6,0-2.8,0.4-4.1,1l0.4,1c1.1-0.5,2.2-0.9,3.6-0.9c2.4,0,3.8,1.2,3.8,3.6v0.5
		c-1.1-0.3-2.2-0.5-3.8-0.5c-3,0-5.1,1.4-5.1,3.8v0C73.7,526.4,76,527.6,78.1,527.6 M66.7,527.6c2.1,0,3.6-1,4.7-2.3l-0.8-0.7
		c-1,1.1-2.3,1.9-3.9,1.9c-2.7,0-4.8-2.2-4.8-5v0c0-2.8,2-5,4.7-5c1.7,0,2.9,0.9,3.9,1.9l0.8-0.8c-1.1-1.1-2.5-2.1-4.6-2.1
		c-3.3,0-5.9,2.8-5.9,6.1v0C60.8,524.8,63.4,527.6,66.7,527.6 M56.1,527.3h1.1v-11.6h-1.1V527.3z M56,512.7h1.4v-1.5H56V512.7z
		 M50.7,527.5c0.7,0,1.3-0.1,1.9-0.4v-1c-0.7,0.3-1.1,0.4-1.7,0.4c-1.3,0-2.3-0.6-2.3-2.3v-7.5h4.1v-1h-4.1V512h-1.1v3.7h-1.7v1h1.7
		v7.6C47.4,526.5,48.9,527.5,50.7,527.5 M37.5,526.5c-1.8,0-3.4-1-3.4-2.7v0c0-1.6,1.4-2.7,3.8-2.7c1.7,0,3,0.3,3.9,0.5v1.3
		C41.9,525.1,39.8,526.5,37.5,526.5 M37.4,527.6c2.2,0,3.6-1.1,4.4-2.2v1.9h1.1v-7.2c0-1.4-0.4-2.5-1.2-3.3
		c-0.8-0.8-2.1-1.3-3.7-1.3c-1.6,0-2.8,0.4-4.1,1l0.4,1c1.1-0.5,2.2-0.9,3.6-0.9c2.4,0,3.8,1.2,3.8,3.6v0.5
		c-1.1-0.3-2.2-0.5-3.8-0.5c-3,0-5.1,1.4-5.1,3.8v0C32.9,526.4,35.2,527.6,37.4,527.6 M12.2,527.3h1.1v-6.7c0-2.3,1.6-4.2,3.7-4.2
		s3.4,1.5,3.4,3.9v7h1.1v-6.8c0-2.6,1.7-4.1,3.7-4.1c2.1,0,3.4,1.5,3.4,4v6.9h1.1v-7c0-2.9-1.7-4.9-4.5-4.9c-2.2,0-3.4,1.2-4.2,2.5
		c-0.6-1.3-1.9-2.5-3.9-2.5c-2.1,0-3.1,1.1-3.9,2.3v-2.1h-1.1V527.3z M3.1,527.3h1.1v-4.8c0-3.8,2.3-5.8,5-5.8h0.1v-1.2
		c-2.3-0.1-4.2,1.4-5.1,3.5v-3.3H3.1V527.3z M-6.3,526.5c-2.7,0-4.8-2.2-4.8-5v0c0-2.7,2-5,4.7-5c2.7,0,4.8,2.2,4.8,5v0
		C-1.5,524.3-3.5,526.5-6.3,526.5 M-6.3,527.6c3.5,0,6-2.8,6-6.1v0c0-3.3-2.5-6-5.9-6c-3.5,0-6,2.8-6,6.1v0
		C-12.3,524.8-9.8,527.6-6.3,527.6 M-18.8,527.3h1.1v-10.6h4.1v-1h-4.1v-1.1c0-2,0.8-2.9,2.3-2.9c0.6,0,1.1,0.1,1.7,0.3v-1
		c-0.5-0.2-1-0.3-1.7-0.3c-1,0-1.8,0.3-2.4,0.9c-0.7,0.7-1,1.7-1,3v1.1h-1.7v1h1.7V527.3z M-33.4,527.3h1.1v-6.7
		c0-2.4,1.8-4.1,4-4.1c2.3,0,3.7,1.6,3.7,4v6.9h1.1v-7.1c0-2.8-1.7-4.8-4.6-4.8c-2.1,0-3.4,1.1-4.2,2.4v-2.2h-1.1V527.3z
		 M-38.9,527.3h1.1v-11.6h-1.1V527.3z M-39.1,512.7h1.4v-1.5h-1.4V512.7z M-44.9,515.7c1.4-0.5,1.9-1.3,1.9-2.7v-1.7h-1.5v1.9h0.6
		c0.1,0.9-0.3,1.4-1.3,1.9L-44.9,515.7z M-57.3,527.3h10.5v-1.1h-9.4v-14.8h-1.2V527.3z"/>
	<path class="st0" d="M404,473.2h1.5v-1.9H404V473.2z M395.3,472.4c-2.7,0-4.8-2.2-4.8-5v0c0-2.7,2-5,4.7-5c2.7,0,4.8,2.2,4.8,5v0
		C400.1,470.1,398.1,472.4,395.3,472.4 M395.3,473.4c3.5,0,6-2.8,6-6.1v0c0-3.3-2.5-6-5.9-6c-3.5,0-6,2.8-6,6.1v0
		C389.3,470.7,391.8,473.4,395.3,473.4 M385.2,473.4c0.7,0,1.3-0.1,1.9-0.4v-1c-0.7,0.3-1.1,0.4-1.7,0.4c-1.3,0-2.3-0.6-2.3-2.3
		v-7.5h4.1v-1h-4.1v-3.7H382v3.7h-1.7v1h1.7v7.6C382,472.4,383.4,473.4,385.2,473.4 M367.4,473.2h1.1v-6.7c0-2.4,1.8-4.1,4-4.1
		c2.3,0,3.7,1.6,3.7,4v6.9h1.1v-7.1c0-2.8-1.7-4.8-4.6-4.8c-2.1,0-3.4,1.1-4.2,2.4v-2.2h-1.1V473.2z M354.5,466.8
		c0.2-2.6,2-4.5,4.3-4.5c2.7,0,4,2.2,4.2,4.5H354.5z M359,473.4c2.2,0,3.6-0.9,4.8-2.2l-0.8-0.7c-1,1-2.2,1.8-4,1.8
		c-2.3,0-4.4-1.7-4.6-4.6h9.6c0-0.2,0-0.2,0-0.5c0-3.4-2.1-6.1-5.3-6.1c-3.1,0-5.5,2.7-5.5,6.1v0C353.3,471,356,473.4,359,473.4
		 M332.5,473.2h1.1v-6.7c0-2.3,1.6-4.2,3.7-4.2c2.1,0,3.4,1.5,3.4,3.9v7h1.1v-6.8c0-2.6,1.7-4.1,3.7-4.1c2.1,0,3.4,1.5,3.4,4v6.9
		h1.1v-7c0-2.9-1.7-4.9-4.5-4.9c-2.2,0-3.4,1.2-4.2,2.5c-0.6-1.3-1.9-2.5-3.9-2.5c-2.1,0-3.1,1.1-3.9,2.3v-2.1h-1.1V473.2z
		 M326.9,473.2h1.1v-11.6h-1.1V473.2z M326.8,458.5h1.4V457h-1.4V458.5z M317.7,473.2h1.1v-4.8c0-3.8,2.3-5.8,5-5.8h0.1v-1.2
		c-2.3-0.1-4.2,1.4-5.1,3.5v-3.3h-1.1V473.2z M304.8,466.8c0.2-2.6,2-4.5,4.3-4.5c2.7,0,4,2.2,4.2,4.5H304.8z M309.3,473.4
		c2.2,0,3.6-0.9,4.8-2.2l-0.8-0.7c-1,1-2.2,1.8-4,1.8c-2.3,0-4.3-1.7-4.6-4.6h9.6c0-0.2,0-0.2,0-0.5c0-3.4-2.1-6.1-5.3-6.1
		c-3.1,0-5.5,2.7-5.5,6.1v0C303.6,471,306.2,473.4,309.3,473.4 M297,473.2h1.1v-10.6h4.1v-1h-4.1v-1.1c0-2,0.8-2.9,2.3-2.9
		c0.6,0,1.1,0.1,1.7,0.3v-1c-0.5-0.2-1-0.3-1.7-0.3c-1,0-1.8,0.3-2.4,0.9c-0.7,0.7-1,1.7-1,3v1.1h-1.7v1h1.7V473.2z M290.8,473.2
		h1.1v-11.6h-1.1V473.2z M290.7,458.5h1.4V457h-1.4V458.5z M281.6,473.2h1.1v-4.8c0-3.8,2.3-5.8,5-5.8h0.1v-1.2
		c-2.3-0.1-4.2,1.4-5.1,3.5v-3.3h-1.1V473.2z M269.2,473.2h1.1v-11.6h-1.1V473.2z M269.1,458.5h1.4V457h-1.4V458.5z M259.1,472.4
		c-2.4,0-4.6-2-4.6-5v0c0-3.1,2-5,4.6-5c2.4,0,4.7,2,4.7,5v0C263.8,470.3,261.5,472.4,259.1,472.4 M258.9,473.4
		c2.3,0,3.8-1.3,4.8-2.9v2.6h1.1v-16.6h-1.1v7.5c-1-1.5-2.5-2.8-4.8-2.8c-2.8,0-5.6,2.3-5.6,6.1v0
		C253.3,471.2,256.1,473.4,258.9,473.4 M241.7,473.2h1.1v-11.6h-1.1V473.2z M241.6,458.5h1.4V457h-1.4V458.5z M236.3,473.4
		c0.7,0,1.3-0.1,1.9-0.4v-1c-0.7,0.3-1.1,0.4-1.7,0.4c-1.3,0-2.3-0.6-2.3-2.3v-7.5h4.1v-1h-4.1v-3.7h-1.1v3.7h-1.7v1h1.7v7.6
		C233.1,472.4,234.5,473.4,236.3,473.4 M218.5,473.2h1.1v-6.7c0-2.4,1.8-4.1,4-4.1c2.3,0,3.7,1.6,3.7,4v6.9h1.1v-7.1
		c0-2.8-1.7-4.8-4.6-4.8c-2.1,0-3.4,1.1-4.2,2.4v-2.2h-1.1V473.2z M208.9,473.4c2.1,0,3.4-1.1,4.2-2.4v2.2h1.1v-11.6h-1.1v6.7
		c0,2.4-1.8,4.1-4,4.1c-2.3,0-3.7-1.6-3.7-4v-6.9h-1.1v7.1C204.3,471.4,206,473.4,208.9,473.4 M195.3,472.4c-2.4,0-4.7-2-4.7-5v0
		c0-3,2.3-5,4.7-5c2.4,0,4.6,2,4.6,5v0C199.8,470.5,197.8,472.4,195.3,472.4 M189.5,476.8h1.1v-6.1c1,1.5,2.5,2.8,4.8,2.8
		c2.8,0,5.6-2.3,5.6-6.1v0c0-3.8-2.8-6-5.6-6c-2.3,0-3.8,1.3-4.8,2.9v-2.6h-1.1V476.8z"/>
	<path class="st0" d="M815.7,439h1.1v-11.6h-1.1V439z M815.5,424.4h1.4v-1.5h-1.4V424.4z M806.4,439h1.1v-4.8c0-3.8,2.3-5.8,5-5.8
		h0.1v-1.2c-2.3-0.1-4.2,1.4-5.1,3.5v-3.3h-1.1V439z M801.2,439.2c0.7,0,1.3-0.1,1.9-0.4v-1c-0.7,0.3-1.1,0.4-1.7,0.4
		c-1.3,0-2.3-0.6-2.3-2.3v-7.5h4.1v-1H799v-3.7h-1.1v3.7h-1.7v1h1.7v7.6C797.9,438.3,799.4,439.2,801.2,439.2 M790,439.3
		c2.2,0,4-1.3,4-3.4v0c0-2-2-2.7-3.8-3.3c-1.7-0.5-3.2-1-3.2-2.3v0c0-1.2,1-2,2.6-2c1.2,0,2.5,0.5,3.6,1.2l0.6-0.9
		c-1.2-0.8-2.7-1.3-4.1-1.3c-2.3,0-3.8,1.3-3.8,3.2v0c0,2.1,2.1,2.6,4,3.2c1.6,0.5,3.1,1,3.1,2.3v0c0,1.3-1.2,2.2-2.8,2.2
		c-1.5,0-2.9-0.5-4.2-1.5l-0.7,0.9C786.4,438.6,788.3,439.3,790,439.3 M776.8,438.3c-2.7,0-4.8-2.2-4.8-5v0c0-2.7,2-5,4.7-5
		c2.7,0,4.8,2.2,4.8,5v0C781.6,436,779.6,438.3,776.8,438.3 M776.8,439.3c3.5,0,6-2.8,6-6.1v0c0-3.3-2.5-6-5.9-6c-3.5,0-6,2.8-6,6.1
		v0C770.8,436.5,773.3,439.3,776.8,439.3 M757.7,439h1.1v-6.7c0-2.4,1.8-4.1,4-4.1c2.3,0,3.7,1.6,3.7,4v6.9h1.1v-7.1
		c0-2.8-1.7-4.8-4.6-4.8c-2.1,0-3.4,1.1-4.2,2.4v-2.2h-1.1V439z M745.3,439h1.1v-11.6h-1.1V439z M745.2,424.4h1.4v-1.5h-1.4V424.4z
		 M729,438.3c-2.7,0-4.8-2.2-4.8-5v0c0-2.7,2-5,4.7-5c2.7,0,4.8,2.2,4.8,5v0C733.7,436,731.7,438.3,729,438.3 M728.9,439.3
		c3.5,0,6-2.8,6-6.1v0c0-3.3-2.5-6-5.9-6c-3.5,0-6,2.8-6,6.1v0C723,436.5,725.5,439.3,728.9,439.3 M709.8,439h1.1v-6.7
		c0-2.4,1.8-4.1,4-4.1c2.3,0,3.7,1.6,3.7,4v6.9h1.1v-7.1c0-2.8-1.7-4.8-4.6-4.8c-2.1,0-3.4,1.1-4.2,2.4v-2.2h-1.1V439z M700.4,438.3
		c-2.7,0-4.8-2.2-4.8-5v0c0-2.7,2-5,4.7-5c2.7,0,4.8,2.2,4.8,5v0C705.2,436,703.2,438.3,700.4,438.3 M700.4,439.3c3.5,0,6-2.8,6-6.1
		v0c0-3.3-2.5-6-5.9-6c-3.5,0-6,2.8-6,6.1v0C694.4,436.5,696.9,439.3,700.4,439.3 M687.7,439.3c2.2,0,4-1.3,4-3.4v0
		c0-2-2-2.7-3.8-3.3c-1.7-0.5-3.2-1-3.2-2.3v0c0-1.2,1-2,2.6-2c1.2,0,2.5,0.5,3.6,1.2l0.6-0.9c-1.2-0.8-2.7-1.3-4.1-1.3
		c-2.3,0-3.8,1.3-3.8,3.2v0c0,2.1,2.1,2.6,4,3.2c1.6,0.5,3.1,1,3.1,2.3v0c0,1.3-1.2,2.2-2.8,2.2c-1.5,0-2.9-0.5-4.2-1.5l-0.7,0.9
		C684.1,438.6,686,439.3,687.7,439.3 M668,425.5h1l-2-3l-1.4,0.7L668,425.5z M667.6,438.3c-1.8,0-3.4-1-3.4-2.7v0
		c0-1.6,1.4-2.7,3.8-2.7c1.7,0,3,0.3,3.9,0.5v1.3C672,436.8,670,438.3,667.6,438.3 M667.5,439.3c2.2,0,3.6-1.1,4.4-2.2v1.9h1.1v-7.2
		c0-1.4-0.4-2.5-1.2-3.3c-0.8-0.8-2.1-1.3-3.7-1.3c-1.6,0-2.8,0.4-4.1,1l0.4,1c1.1-0.5,2.2-0.9,3.6-0.9c2.4,0,3.8,1.2,3.8,3.6v0.5
		c-1.1-0.3-2.2-0.5-3.8-0.5c-3,0-5.1,1.4-5.1,3.8v0C663.1,438.1,665.4,439.3,667.5,439.3 M658.8,439.2c0.7,0,1.3-0.1,1.9-0.4v-1
		c-0.7,0.3-1.1,0.4-1.7,0.4c-1.3,0-2.3-0.6-2.3-2.3v-7.5h4.1v-1h-4.1v-3.7h-1.1v3.7h-1.7v1h1.7v7.6
		C655.5,438.3,657,439.2,658.8,439.2 M649.4,439h1.1v-11.6h-1.1V439z M649.3,424.4h1.4v-1.5h-1.4V424.4z M643.7,439h1.1v-16.6h-1.1
		V439z M634.1,438.3c-1.8,0-3.4-1-3.4-2.7v0c0-1.6,1.4-2.7,3.8-2.7c1.7,0,3,0.3,3.9,0.5v1.3C638.5,436.8,636.5,438.3,634.1,438.3
		 M634,439.3c2.2,0,3.6-1.1,4.4-2.2v1.9h1.1v-7.2c0-1.4-0.4-2.5-1.2-3.3c-0.8-0.8-2.1-1.3-3.7-1.3c-1.6,0-2.8,0.4-4.1,1l0.4,1
		c1.1-0.5,2.2-0.9,3.6-0.9c2.4,0,3.8,1.2,3.8,3.6v0.5c-1.1-0.3-2.2-0.5-3.8-0.5c-3,0-5.1,1.4-5.1,3.8v0
		C629.5,438.1,631.9,439.3,634,439.3 M621,439.3c2.1,0,3.4-1.1,4.2-2.4v2.2h1.1v-11.6h-1.1v6.7c0,2.4-1.8,4.1-4,4.1
		c-2.3,0-3.7-1.6-3.7-4v-6.9h-1.1v7.1C616.3,437.3,618,439.3,621,439.3 M606.5,438.2c-2.4,0-4.6-2-4.6-5v0c0-3.1,2-5,4.6-5
		c2.4,0,4.7,2,4.7,5v0C611.3,436.2,608.9,438.2,606.5,438.2 M611.2,442.7h1.1v-15.3h-1.1v2.5c-1-1.5-2.5-2.8-4.8-2.8
		c-2.8,0-5.6,2.3-5.6,6.1v0c0,3.8,2.8,6,5.6,6c2.3,0,3.8-1.3,4.8-2.9V442.7z M585.2,438.3c-1.8,0-3.4-1-3.4-2.7v0
		c0-1.6,1.4-2.7,3.8-2.7c1.7,0,3,0.3,3.9,0.5v1.3C589.6,436.8,587.6,438.3,585.2,438.3 M585.1,439.3c2.2,0,3.6-1.1,4.4-2.2v1.9h1.1
		v-7.2c0-1.4-0.4-2.5-1.2-3.3c-0.8-0.8-2.1-1.3-3.7-1.3c-1.6,0-2.8,0.4-4.1,1l0.4,1c1.1-0.5,2.2-0.9,3.6-0.9c2.4,0,3.8,1.2,3.8,3.6
		v0.5c-1.1-0.3-2.2-0.5-3.8-0.5c-3,0-5.1,1.4-5.1,3.8v0C580.6,438.1,583,439.3,585.1,439.3 M576.1,439h1.1v-16.6h-1.1V439z
		 M556.2,432.7c0.2-2.6,2-4.5,4.3-4.5c2.7,0,4,2.2,4.2,4.5H556.2z M560.7,439.3c2.2,0,3.6-0.9,4.8-2.2l-0.8-0.7c-1,1-2.2,1.8-4,1.8
		c-2.3,0-4.4-1.7-4.6-4.6h9.6c0-0.2,0-0.3,0-0.5c0-3.4-2.1-6.1-5.3-6.1c-3.1,0-5.5,2.7-5.5,6.1v0C555,436.9,557.6,439.3,560.7,439.3
		 M520.7,438.4c-7,0-13.3-3.4-13.3-10.5v-0.2c0-7.4,7.1-11,16.2-11c6.1,0,10.7,1,15,2.6v5.1C538.5,431.5,531.4,438.4,520.7,438.4
		 M520.6,440c10.2,0,16.2-5.8,17.9-10.4v9.4h1.7v-24.9c0-5-1.4-8.9-3.9-11.4c-3-3-7.3-4.4-12.8-4.4c-5.2,0-9.6,1.4-14,3.5l0.6,1.4
		c4.2-2,8.3-3.4,13.3-3.4c9.4,0,15.1,4.6,15.1,14.2v3.4c-4-1.4-9.4-2.5-15-2.5c-10,0-17.8,4.3-17.8,12.7v0.2
		C505.7,435.9,512.8,440,520.6,440 M481.7,440c7.5,0,12.6-3.5,16.3-7.9l-1.2-1.1c-3.5,4-8.2,7.4-15,7.4c-10.5,0-18.7-9-18.7-19.4
		v-0.2c0-10.4,8-19.2,18.6-19.2c6.7,0,11.3,3.1,14.9,7l1.2-1.1c-4-4.2-8.6-7.4-16-7.4c-11.6,0-20.5,9.5-20.5,20.9v0.2
		C461.3,430.5,470.3,440,481.7,440 M447.1,439h1.7v-40h-1.7V439z M446.7,387.6h2.5V383h-2.5V387.6z M398,439h1.7v-22.2
		c0-9.6,7-17.2,15.9-17.2c10.1,0,15.3,6.9,15.3,16.9V439h1.7v-22.6c0-11-6-18.3-16.8-18.3c-9.5,0-14.8,7-16.1,11.9v-11H398V439z
		 M370.7,440c7.5,0,12.6-3.5,16.3-7.9l-1.2-1.1c-3.5,4-8.2,7.4-15,7.4c-10.5,0-18.7-9-18.7-19.4v-0.2c0-10.4,8-19.2,18.6-19.2
		c6.7,0,11.3,3.1,14.9,7l1.2-1.1c-4-4.2-8.6-7.4-16-7.4c-11.6,0-20.5,9.5-20.5,20.9v0.2C350.3,430.5,359.3,440,370.7,440 M305.5,418
		c0.4-10.5,7.4-18.3,17.3-18.3c10.6,0,16.3,9.2,16.6,18.3H305.5z M323.7,440c7,0,12.8-3.8,16.2-8.7l-1.4-1
		c-3.2,4.5-8.6,8.1-14.8,8.1c-9.8,0-17.9-7.4-18.2-18.9h35.8v-0.3c0-10-5.8-21.1-18.4-21.1c-11.1,0-19.2,9-19.2,20.8v0.2
		C303.7,431.9,312.7,440,323.7,440 M290.2,439.7c2.1,0,4.2-0.4,6.1-1.3v-1.8c-1.9,1-4.1,1.4-6.1,1.4c-5.7,0-8.6-3.5-8.6-9.5v-28.1
		h14.8V399h-14.8v-13.8H280V399h-6.3v1.5h6.3v28.2C280,435.7,283.6,439.7,290.2,439.7 M256.2,438.3c-1.8,0-3.4-1-3.4-2.7v0
		c0-1.6,1.4-2.7,3.8-2.7c1.7,0,3,0.3,3.9,0.5v1.3C260.6,436.8,258.6,438.3,256.2,438.3 M256.1,439.3c2.2,0,3.6-1.1,4.4-2.2v1.9h1.1
		v-7.2c0-1.4-0.4-2.5-1.2-3.3c-0.8-0.8-2.1-1.3-3.7-1.3c-1.6,0-2.8,0.4-4.1,1l0.4,1c1.1-0.5,2.2-0.9,3.6-0.9c2.4,0,3.8,1.2,3.8,3.6
		v0.5c-1.1-0.3-2.2-0.5-3.8-0.5c-3,0-5.1,1.4-5.1,3.8v0C251.6,438.1,254,439.3,256.1,439.3 M247.1,439h1.1v-16.6h-1.1V439z
		 M234.2,441.5c1.4-0.5,1.9-1.3,1.9-2.7v-1.7h-1.5v1.9h0.6c0.1,0.9-0.3,1.4-1.3,1.9L234.2,441.5z M222.2,432.7
		c0.2-2.6,2-4.5,4.3-4.5c2.7,0,4,2.2,4.2,4.5H222.2z M226.7,439.3c2.2,0,3.6-0.9,4.8-2.2l-0.8-0.7c-1,1-2.2,1.8-4,1.8
		c-2.3,0-4.4-1.7-4.6-4.6h9.6c0-0.2,0-0.3,0-0.5c0-3.4-2.1-6.1-5.3-6.1c-3.1,0-5.5,2.7-5.5,6.1v0C221,436.9,223.6,439.3,226.7,439.3
		 M216.9,439.2c0.7,0,1.3-0.1,1.9-0.4v-1c-0.7,0.3-1.1,0.4-1.7,0.4c-1.3,0-2.3-0.6-2.3-2.3v-7.5h4.1v-1h-4.1v-3.7h-1.1v3.7h-1.7v1
		h1.7v7.6C213.6,438.3,215.1,439.2,216.9,439.2 M199.1,439h1.1v-6.7c0-2.4,1.8-4.1,4-4.1c2.3,0,3.7,1.6,3.7,4v6.9h1.1v-7.1
		c0-2.8-1.7-4.8-4.6-4.8c-2.1,0-3.4,1.1-4.2,2.4v-2.2h-1.1V439z M186.1,432.7c0.2-2.6,2-4.5,4.3-4.5c2.7,0,4,2.2,4.2,4.5H186.1z
		 M190.7,439.3c2.2,0,3.6-0.9,4.8-2.2l-0.8-0.7c-1,1-2.2,1.8-4,1.8c-2.3,0-4.3-1.7-4.6-4.6h9.6c0-0.2,0-0.3,0-0.5
		c0-3.4-2.1-6.1-5.3-6.1c-3.1,0-5.5,2.7-5.5,6.1v0C185,436.9,187.6,439.3,190.7,439.3 M180.2,439h1.1v-11.6h-1.1V439z M180.1,424.4
		h1.4v-1.5h-1.4V424.4z M174.6,439h1.1v-16.6h-1.1V439z M166.5,439.3c2.1,0,3.6-1,4.7-2.3l-0.8-0.7c-1,1.1-2.3,1.9-3.9,1.9
		c-2.7,0-4.8-2.2-4.8-5v0c0-2.8,2-5,4.7-5c1.7,0,2.9,0.9,3.9,1.9l0.8-0.8c-1.1-1.1-2.5-2.1-4.6-2.1c-3.3,0-5.9,2.8-5.9,6.1v0
		C160.6,436.5,163.2,439.3,166.5,439.3 M149.1,439h1.1v-16.6h-1.1V439z M143.4,439h1.1v-11.6h-1.1V439z M143.3,424.4h1.4v-1.5h-1.4
		V424.4z M130.5,441.5c1.4-0.5,1.9-1.3,1.9-2.7v-1.7h-1.5v1.9h0.6c0.1,0.9-0.3,1.4-1.3,1.9L130.5,441.5z M103.8,438.4
		c-11.2,0-19.1-8.8-19.1-19.3v-0.2c0-10.5,7.7-19.3,19-19.3c11.2,0,19.1,8.8,19.1,19.3v0.2C122.7,429.6,115.1,438.4,103.8,438.4
		 M103.7,440c12.6,0,20.8-9.8,20.8-21v-0.2c0-11.2-8.3-20.8-20.8-20.8c-12.6,0-20.8,9.8-20.8,21v0.2C82.9,430.4,91.2,440,103.7,440
		 M69.5,439.7c2.1,0,4.2-0.4,6.1-1.3v-1.8c-1.9,1-4.1,1.4-6.1,1.4c-5.7,0-8.6-3.5-8.6-9.5v-28.1h14.8V399H61v-13.8h-1.7V399H53v1.5
		h6.3v28.2C59.3,435.7,62.9,439.7,69.5,439.7 M40.5,439.7c2.1,0,4.2-0.4,6.1-1.3v-1.8c-1.9,1-4.1,1.4-6.1,1.4
		c-5.7,0-8.6-3.5-8.6-9.5v-28.1h14.8V399H31.9v-13.8h-1.7V399h-6.3v1.5h6.3v28.2C30.3,435.7,33.9,439.7,40.5,439.7 M-19.5,418
		c0.4-10.5,7.4-18.3,17.3-18.3c10.6,0,16.3,9.2,16.6,18.3H-19.5z M-1.3,440c7,0,12.8-3.8,16.2-8.7l-1.4-1c-3.2,4.5-8.6,8.1-14.8,8.1
		c-9.8,0-17.9-7.4-18.2-18.9h35.8v-0.3c0-10-5.8-21.1-18.4-21.1c-11.1,0-19.2,9-19.2,20.8v0.2C-21.3,431.9-12.3,440-1.3,440
		 M-53,434.5c-10,0-18-7.8-18-17.4v-0.2c0-9.5,8-17.3,18-17.3s18.1,8.1,18.1,17.4v0.2C-34.9,426.6-43,434.5-53,434.5 M-52.9,452.1
		c5.9,0,11-1.8,14.3-5.1c3.3-3.3,5.1-8,5.1-14V399h-1.7v10.6c-3-6.8-9.8-11.6-18-11.6c-10.9,0-19.8,8.6-19.8,19v0.2
		c0,10.4,8.9,18.9,19.8,18.9c8.2,0,15-4.8,18-11.6v8.2c0,11.8-7.1,17.8-17.8,17.8c-6.4,0-12-2-17.1-5.9l-1,1.4
		C-65.5,450-59.6,452.1-52.9,452.1 M-102.9,438.4c-11.2,0-19.1-8.8-19.1-19.3v-0.2c0-10.5,7.7-19.3,19-19.3
		c11.2,0,19.1,8.8,19.1,19.3v0.2C-84,429.6-91.7,438.4-102.9,438.4 M-103,440c12.6,0,20.8-9.8,20.8-21v-0.2
		c0-11.2-8.3-20.8-20.8-20.8c-12.6,0-20.8,9.8-20.8,21v0.2C-123.8,430.4-115.5,440-103,440 M-145.7,439h1.7v-20.7
		c0-7.7,6.1-18.6,16.1-18.6h0.4v-1.6c-8.9-0.1-14.6,7.1-16.5,13.8V399h-1.7V439z M-178.1,438.4c-10.8,0-18.5-9-18.5-19.3v-0.2
		c0-10.4,7.6-19.3,18.5-19.3c11,0,18.3,8.7,18.3,19.4v0.2C-159.7,429.9-167.1,438.4-178.1,438.4 M-198.1,451.8h1.7v-25.2
		c2.3,7.6,9.2,13.4,18.5,13.4c11.6,0,20-9.3,20-20.9v-0.2c0-11.6-8.4-20.9-20-20.9c-9.3,0-16.2,5.8-18.5,13.4V399h-1.7V451.8z
		 M-215.8,439h1.1v-16.6h-1.1V439z M-221.8,439h1.2v-15.9h-1.2V439z"/>
	<path class="st0" d="M732.8,374.9h1.5v-1.9h-1.5V374.9z M724.2,374.1c-2.7,0-4.8-2.2-4.8-5v0c0-2.7,2-5,4.7-5c2.7,0,4.8,2.2,4.8,5
		v0C728.9,371.9,726.9,374.1,724.2,374.1 M724.1,375.2c3.5,0,6-2.8,6-6.1v0c0-3.3-2.5-6-5.9-6c-3.5,0-6,2.8-6,6.1v0
		C718.2,372.4,720.7,375.2,724.1,375.2 M710.4,374.9h1.1v-4.8c0-3.8,2.3-5.8,5-5.8h0.1v-1.2c-2.3-0.1-4.2,1.4-5.1,3.5v-3.3h-1.1
		V374.9z M701,374.1c-2.7,0-4.8-2.2-4.8-5v0c0-2.7,2-5,4.7-5c2.7,0,4.8,2.2,4.8,5v0C705.8,371.9,703.8,374.1,701,374.1 M701,375.2
		c3.5,0,6-2.8,6-6.1v0c0-3.3-2.5-6-5.9-6c-3.5,0-6,2.8-6,6.1v0C695.1,372.4,697.6,375.2,701,375.2 M687.3,375h1l5.2-11.7h-1.3
		l-4.4,10.4l-4.4-10.4h-1.3L687.3,375z M674.3,374.1c-1.8,0-3.4-1-3.4-2.7v0c0-1.6,1.4-2.7,3.8-2.7c1.7,0,3,0.3,3.9,0.5v1.3
		C678.7,372.7,676.6,374.1,674.3,374.1 M674.2,375.2c2.2,0,3.6-1.1,4.4-2.2v1.9h1.1v-7.2c0-1.4-0.4-2.5-1.2-3.3
		c-0.8-0.8-2.1-1.3-3.7-1.3c-1.6,0-2.8,0.4-4.1,1l0.4,1c1.1-0.5,2.2-0.9,3.6-0.9c2.4,0,3.8,1.2,3.8,3.6v0.5
		c-1.1-0.3-2.2-0.5-3.8-0.5c-3,0-5.1,1.4-5.1,3.8v0C669.7,373.9,672,375.2,674.2,375.2 M665.2,374.9h1.1v-16.6h-1.1V374.9z
		 M652.7,374.9h1.1v-11.6h-1.1V374.9z M652.5,360.2h1.4v-1.5h-1.4V360.2z M642.5,374.1c-2.4,0-4.6-2-4.6-5v0c0-3.1,2-5,4.6-5
		c2.4,0,4.7,2,4.7,5v0C647.2,372.1,644.9,374.1,642.5,374.1 M642.4,375.2c2.3,0,3.8-1.3,4.8-2.9v2.6h1.1v-16.6h-1.1v7.5
		c-1-1.5-2.5-2.8-4.8-2.8c-2.8,0-5.6,2.3-5.6,6.1v0C636.7,372.9,639.6,375.2,642.4,375.2 M621.2,374.1c-1.8,0-3.4-1-3.4-2.7v0
		c0-1.6,1.4-2.7,3.8-2.7c1.7,0,3,0.3,3.9,0.5v1.3C625.6,372.7,623.5,374.1,621.2,374.1 M621.1,375.2c2.2,0,3.6-1.1,4.4-2.2v1.9h1.1
		v-7.2c0-1.4-0.4-2.5-1.2-3.3c-0.8-0.8-2.1-1.3-3.7-1.3c-1.6,0-2.8,0.4-4.1,1l0.4,1c1.1-0.5,2.2-0.9,3.6-0.9c2.4,0,3.8,1.2,3.8,3.6
		v0.5c-1.1-0.3-2.2-0.5-3.8-0.5c-3,0-5.1,1.4-5.1,3.8v0C616.6,373.9,618.9,375.2,621.1,375.2 M612.1,374.9h1.1v-11.6h-1.1V374.9z
		 M611.9,360.2h1.4v-1.5h-1.4V360.2z M601.8,372.9c-2.4,0-4.5-1.8-4.5-4.4v0c0-2.7,2-4.4,4.5-4.4c2.4,0,4.8,1.7,4.8,4.4v0
		C606.6,371.2,604.2,372.9,601.8,372.9 M602,378.6c1.7,0,3.2-0.5,4.2-1.5c0.9-0.9,1.5-2.3,1.5-3.9v-9.8h-1.1v2.3
		c-1-1.4-2.5-2.6-4.8-2.6c-2.8,0-5.6,2.2-5.6,5.5v0c0,3.3,2.8,5.5,5.6,5.5c2.3,0,3.8-1.3,4.8-2.7v1.7c0,3-1.9,4.5-4.6,4.5
		c-1.7,0-3.3-0.6-4.7-1.6l-0.7,0.9C598.2,378,600,378.6,602,378.6 M587.5,374.1c-2.7,0-4.8-2.2-4.8-5v0c0-2.7,2-5,4.7-5
		c2.7,0,4.8,2.2,4.8,5v0C592.2,371.9,590.2,374.1,587.5,374.1 M587.4,375.2c3.5,0,6-2.8,6-6.1v0c0-3.3-2.5-6-5.9-6
		c-3.5,0-6,2.8-6,6.1v0C581.5,372.4,584,375.2,587.4,375.2 M576.8,374.9h1.1v-16.6h-1.1V374.9z M567.2,374.1c-2.7,0-4.8-2.2-4.8-5v0
		c0-2.7,2-5,4.7-5c2.7,0,4.8,2.2,4.8,5v0C572,371.9,570,374.1,567.2,374.1 M567.2,375.2c3.5,0,6-2.8,6-6.1v0c0-3.3-2.5-6-5.9-6
		c-3.5,0-6,2.8-6,6.1v0C561.3,372.4,563.8,375.2,567.2,375.2 M552,374.1c-2.4,0-4.6-2-4.6-5v0c0-3.1,2-5,4.6-5c2.4,0,4.7,2,4.7,5v0
		C556.8,372.1,554.4,374.1,552,374.1 M551.9,375.2c2.3,0,3.8-1.3,4.8-2.9v2.6h1.1v-16.6h-1.1v7.5c-1-1.5-2.5-2.8-4.8-2.8
		c-2.8,0-5.6,2.3-5.6,6.1v0C546.3,372.9,549.1,375.2,551.9,375.2 M537.6,374.1c-2.7,0-4.8-2.2-4.8-5v0c0-2.7,2-5,4.7-5
		c2.7,0,4.8,2.2,4.8,5v0C542.4,371.9,540.4,374.1,537.6,374.1 M537.6,375.2c3.5,0,6-2.8,6-6.1v0c0-3.3-2.5-6-5.9-6
		c-3.5,0-6,2.8-6,6.1v0C531.7,372.4,534.2,375.2,537.6,375.2 M527.6,375.1c0.7,0,1.3-0.1,1.9-0.4v-1c-0.7,0.3-1.1,0.4-1.7,0.4
		c-1.3,0-2.3-0.6-2.3-2.3v-7.5h4.1v-1h-4.1v-3.7h-1.1v3.7h-1.7v1h1.7v7.6C524.3,374.1,525.8,375.1,527.6,375.1 M510.8,368.5
		c0.2-2.6,2-4.5,4.3-4.5c2.7,0,4,2.2,4.2,4.5H510.8z M515.3,375.2c2.2,0,3.6-0.9,4.8-2.2l-0.8-0.7c-1,1-2.2,1.8-4,1.8
		c-2.3,0-4.4-1.7-4.6-4.6h9.6c0-0.2,0-0.3,0-0.5c0-3.4-2.1-6.1-5.3-6.1c-3.1,0-5.5,2.7-5.5,6.1v0
		C509.6,372.7,512.2,375.2,515.3,375.2 M488.7,374.9h1.1v-6.7c0-2.3,1.6-4.2,3.7-4.2c2.1,0,3.4,1.5,3.4,3.9v7h1.1v-6.8
		c0-2.6,1.7-4.1,3.7-4.1c2.1,0,3.4,1.5,3.4,4v6.9h1.1v-7c0-2.9-1.7-4.9-4.5-4.9c-2.2,0-3.4,1.2-4.2,2.5c-0.6-1.3-1.9-2.5-3.9-2.5
		c-2.1,0-3.1,1.1-3.9,2.3v-2.1h-1.1V374.9z M472.4,374.1c-1.8,0-3.4-1-3.4-2.7v0c0-1.6,1.4-2.7,3.8-2.7c1.7,0,3,0.3,3.9,0.5v1.3
		C476.8,372.7,474.8,374.1,472.4,374.1 M472.4,375.2c2.2,0,3.6-1.1,4.4-2.2v1.9h1.1v-7.2c0-1.4-0.4-2.5-1.2-3.3
		c-0.8-0.8-2.1-1.3-3.7-1.3c-1.6,0-2.8,0.4-4.1,1l0.4,1c1.1-0.5,2.2-0.9,3.6-0.9c2.4,0,3.8,1.2,3.8,3.6v0.5
		c-1.1-0.3-2.2-0.5-3.8-0.5c-3,0-5.1,1.4-5.1,3.8v0C467.9,373.9,470.2,375.2,472.4,375.2 M454.9,374.9h1.1v-6.7c0-2.4,1.8-4.1,4-4.1
		c2.3,0,3.7,1.6,3.7,4v6.9h1.1v-7.1c0-2.8-1.7-4.8-4.6-4.8c-2.1,0-3.4,1.1-4.2,2.4v-2.2h-1.1V374.9z M445.3,375.2
		c2.1,0,3.4-1.1,4.2-2.4v2.2h1.1v-11.6h-1.1v6.7c0,2.4-1.8,4.1-4,4.1c-2.3,0-3.7-1.6-3.7-4v-6.9h-1.1v7.1
		C440.7,373.2,442.4,375.2,445.3,375.2 M428.2,377.3c1.4-0.5,1.9-1.3,1.9-2.7v-1.7h-1.5v1.9h0.6c0.1,0.9-0.3,1.4-1.3,1.9
		L428.2,377.3z M416.2,368.5c0.2-2.6,2-4.5,4.3-4.5c2.7,0,4,2.2,4.2,4.5H416.2z M420.7,375.2c2.2,0,3.6-0.9,4.8-2.2l-0.8-0.7
		c-1,1-2.2,1.8-4,1.8c-2.3,0-4.3-1.7-4.6-4.6h9.6c0-0.2,0-0.3,0-0.5c0-3.4-2.1-6.1-5.3-6.1c-3.1,0-5.5,2.7-5.5,6.1v0
		C415,372.7,417.6,375.2,420.7,375.2 M407.2,374.9h1.1v-4.8c0-3.8,2.3-5.8,5-5.8h0.1v-1.2c-2.3-0.1-4.2,1.4-5.1,3.5v-3.3h-1.1V374.9
		z M394.3,368.5c0.2-2.6,2-4.5,4.3-4.5c2.7,0,4,2.2,4.2,4.5H394.3z M398.8,375.2c2.2,0,3.6-0.9,4.8-2.2l-0.8-0.7c-1,1-2.2,1.8-4,1.8
		c-2.3,0-4.3-1.7-4.6-4.6h9.6c0-0.2,0-0.3,0-0.5c0-3.4-2.1-6.1-5.3-6.1c-3.1,0-5.5,2.7-5.5,6.1v0
		C393.1,372.7,395.8,375.2,398.8,375.2 M386.4,375.1c2.2,0,4-1.3,4-3.4v0c0-2-2-2.7-3.8-3.3c-1.7-0.5-3.2-1-3.2-2.3v0
		c0-1.2,1-2,2.6-2c1.2,0,2.5,0.5,3.6,1.2l0.6-0.9c-1.2-0.8-2.7-1.3-4.1-1.3c-2.3,0-3.8,1.3-3.8,3.2v0c0,2.1,2.1,2.6,4,3.2
		c1.6,0.5,3.1,1,3.1,2.3v0c0,1.3-1.2,2.2-2.8,2.2c-1.5,0-2.9-0.5-4.2-1.5l-0.7,0.9C382.8,374.4,384.7,375.1,386.4,375.1
		 M375.3,375.1c2.2,0,4-1.3,4-3.4v0c0-2-2-2.7-3.8-3.3c-1.7-0.5-3.2-1-3.2-2.3v0c0-1.2,1-2,2.6-2c1.2,0,2.5,0.5,3.6,1.2l0.6-0.9
		c-1.2-0.8-2.7-1.3-4.1-1.3c-2.3,0-3.8,1.3-3.8,3.2v0c0,2.1,2.1,2.6,4,3.2c1.6,0.5,3.1,1,3.1,2.3v0c0,1.3-1.2,2.2-2.8,2.2
		c-1.5,0-2.9-0.5-4.2-1.5l-0.7,0.9C371.7,374.4,373.6,375.1,375.3,375.1 M358.6,368.5c0.2-2.6,2-4.5,4.3-4.5c2.7,0,4,2.2,4.2,4.5
		H358.6z M363.1,375.2c2.2,0,3.6-0.9,4.8-2.2l-0.8-0.7c-1,1-2.2,1.8-4,1.8c-2.3,0-4.3-1.7-4.6-4.6h9.6c0-0.2,0-0.3,0-0.5
		c0-3.4-2.1-6.1-5.3-6.1c-3.1,0-5.5,2.7-5.5,6.1v0C357.4,372.7,360.1,375.2,363.1,375.2 M345.9,374.9h1.1v-11.6h-1.1V374.9z
		 M345.7,360.2h1.4v-1.5h-1.4V360.2z M335.7,374.1c-2.4,0-4.6-2-4.6-5v0c0-3.1,2-5,4.6-5c2.4,0,4.7,2,4.7,5v0
		C340.4,372.1,338.1,374.1,335.7,374.1 M335.6,375.2c2.3,0,3.8-1.3,4.8-2.9v2.6h1.1v-16.6h-1.1v7.5c-1-1.5-2.5-2.8-4.8-2.8
		c-2.8,0-5.6,2.3-5.6,6.1v0C329.9,372.9,332.8,375.2,335.6,375.2 M314.5,374.1c-2.7,0-4.8-2.2-4.8-5v0c0-2.7,2-5,4.7-5
		c2.7,0,4.8,2.2,4.8,5v0C319.2,371.9,317.2,374.1,314.5,374.1 M314.4,375.2c3.5,0,6-2.8,6-6.1v0c0-3.3-2.5-6-5.9-6
		c-3.5,0-6,2.8-6,6.1v0C308.5,372.4,311,375.2,314.4,375.2 M299.3,374.1c-2.4,0-4.6-2-4.6-5v0c0-3.1,2-5,4.6-5c2.4,0,4.7,2,4.7,5v0
		C304,372.1,301.7,374.1,299.3,374.1 M299.2,375.2c2.3,0,3.8-1.3,4.8-2.9v2.6h1.1v-16.6h-1.1v7.5c-1-1.5-2.5-2.8-4.8-2.8
		c-2.8,0-5.6,2.3-5.6,6.1v0C293.5,372.9,296.4,375.2,299.2,375.2 M284.9,374.1c-2.7,0-4.8-2.2-4.8-5v0c0-2.7,2-5,4.7-5
		c2.7,0,4.8,2.2,4.8,5v0C289.6,371.9,287.6,374.1,284.9,374.1 M284.8,375.2c3.5,0,6-2.8,6-6.1v0c0-3.3-2.5-6-5.9-6
		c-3.5,0-6,2.8-6,6.1v0C278.9,372.4,281.4,375.2,284.8,375.2 M258,374.9h1.1v-6.7c0-2.3,1.6-4.2,3.7-4.2c2.1,0,3.4,1.5,3.4,3.9v7
		h1.1v-6.8c0-2.6,1.7-4.1,3.7-4.1c2.1,0,3.4,1.5,3.4,4v6.9h1.1v-7c0-2.9-1.7-4.9-4.5-4.9c-2.2,0-3.4,1.2-4.2,2.5
		c-0.6-1.3-1.9-2.5-3.9-2.5c-2.1,0-3.1,1.1-3.9,2.3v-2.1H258V374.9z M237.2,374.9h1.1v-6.7c0-2.4,1.8-4.1,4-4.1c2.3,0,3.7,1.6,3.7,4
		v6.9h1.1v-7.1c0-2.8-1.7-4.8-4.6-4.8c-2.1,0-3.4,1.1-4.2,2.4v-2.2h-1.1V374.9z M227.7,375.2c2.1,0,3.4-1.1,4.2-2.4v2.2h1.1v-11.6
		h-1.1v6.7c0,2.4-1.8,4.1-4,4.1c-2.3,0-3.7-1.6-3.7-4v-6.9h-1.1v7.1C223.1,373.2,224.8,375.2,227.7,375.2 M210.6,377.3
		c1.4-0.5,1.9-1.3,1.9-2.7v-1.7H211v1.9h0.6c0.1,0.9-0.3,1.4-1.3,1.9L210.6,377.3z M182.9,374.2c-7,0-13.3-3.4-13.3-10.5v-0.2
		c0-7.4,7.1-11,16.2-11c6.1,0,10.7,1,15,2.6v5.1C200.8,367.4,193.7,374.2,182.9,374.2 M182.9,375.8c10.2,0,16.2-5.8,17.9-10.4v9.4
		h1.7V350c0-5-1.4-8.9-3.9-11.4c-3-3-7.3-4.4-12.8-4.4c-5.2,0-9.6,1.4-14,3.5l0.6,1.4c4.2-2,8.3-3.4,13.3-3.4
		c9.4,0,15.1,4.6,15.1,14.2v3.4c-4-1.4-9.4-2.5-15-2.5c-10,0-17.8,4.3-17.8,12.7v0.2C167.9,371.8,175,375.8,182.9,375.8
		 M123.7,353.8c0.4-10.5,7.4-18.3,17.3-18.3c10.6,0,16.3,9.2,16.6,18.3H123.7z M141.8,375.8c7,0,12.8-3.8,16.2-8.7l-1.4-1
		c-3.2,4.5-8.6,8.1-14.8,8.1c-9.8,0-17.9-7.4-18.2-18.9h35.8V355c0-10-5.8-21.1-18.4-21.1c-11.1,0-19.2,9-19.2,20.8v0.2
		C121.8,367.8,130.9,375.8,141.8,375.8 M89.7,374.2c-11,0-18.3-8.7-18.3-19.4v-0.2c0-10.7,7.4-19.2,18.3-19.2
		c10.8,0,18.5,9,18.5,19.3v0.2C108.1,365.4,100.5,374.2,89.7,374.2 M89.6,375.8c9.3,0,16.2-5.8,18.5-13.4v12.4h1.7v-58.4h-1.7v30.8
		c-2.3-7.6-9.2-13.4-18.5-13.4c-11.6,0-20,9.3-20,20.9v0.2C69.6,366.6,78,375.8,89.6,375.8 M55.2,374.9h1.7v-40h-1.7V374.9z
		 M54.8,323.4h2.5v-4.6h-2.5V323.4z M-16.3,374.9h1.7v-22.2c0-9.6,7-17.2,15.9-17.2c10.1,0,15.3,6.9,15.3,16.9v22.5h1.7v-22.6
		c0-11-6-18.3-16.8-18.3c-9.5,0-14.8,7-16.1,11.9v-11h-1.7V374.9z M-49,375.8c9.5,0,14.8-7,16.1-11.9v11h1.7v-40h-1.7V357
		c0,9.6-7,17.2-15.9,17.2c-10.1,0-15.3-6.9-15.3-16.9v-22.5h-1.7v22.6C-65.8,368.6-59.8,375.8-49,375.8 M-117.9,327.3h1.1l-7-9
		l-1.9,0.9L-117.9,327.3z M-135,353.8c0.4-10.5,7.4-18.3,17.3-18.3c10.6,0,16.3,9.2,16.6,18.3H-135z M-116.8,375.8
		c7,0,12.8-3.8,16.2-8.7l-1.4-1c-3.2,4.5-8.6,8.1-14.8,8.1c-9.8,0-17.9-7.4-18.2-18.9h35.8V355c0-10-5.8-21.1-18.4-21.1
		c-11.1,0-19.2,9-19.2,20.8v0.2C-136.8,367.8-127.8,375.8-116.8,375.8"/>
	<path class="st0" d="M397.3,328.7h1.5v-1.9h-1.5V328.7z M392.1,328.7h1.5v-1.9h-1.5V328.7z M386.8,328.7h1.5v-1.9h-1.5V328.7z
		 M377.6,328c-1.8,0-3.4-1-3.4-2.7v0c0-1.6,1.4-2.7,3.8-2.7c1.7,0,3,0.3,3.9,0.5v1.3C382,326.5,380,328,377.6,328 M377.6,329
		c2.2,0,3.6-1.1,4.4-2.2v1.9h1.1v-7.2c0-1.4-0.4-2.5-1.2-3.3c-0.8-0.8-2.1-1.3-3.7-1.3c-1.6,0-2.8,0.4-4.1,1l0.4,1
		c1.1-0.5,2.2-0.9,3.6-0.9c2.4,0,3.8,1.2,3.8,3.6v0.5c-1.1-0.3-2.2-0.5-3.8-0.5c-3,0-5.1,1.4-5.1,3.8v0
		C373.1,327.8,375.4,329,377.6,329 M364,327.9c-2.4,0-4.6-2-4.6-5v0c0-3.1,2-5,4.6-5c2.4,0,4.7,2,4.7,5v0
		C368.7,325.9,366.4,327.9,364,327.9 M363.9,329c2.3,0,3.8-1.3,4.8-2.9v2.6h1.1v-16.6h-1.1v7.5c-1-1.5-2.5-2.8-4.8-2.8
		c-2.8,0-5.6,2.3-5.6,6.1v0C358.2,326.8,361.1,329,363.9,329 M345,328.7h1.1V322c0-2.4,1.8-4.1,4-4.1c2.3,0,3.7,1.6,3.7,4v6.9h1.1
		v-7.1c0-2.8-1.7-4.8-4.6-4.8c-2.1,0-3.4,1.1-4.2,2.4v-2.2H345V328.7z M332.1,322.4c0.2-2.6,2-4.5,4.3-4.5c2.7,0,4,2.2,4.2,4.5
		H332.1z M336.6,329c2.2,0,3.6-0.9,4.8-2.2l-0.8-0.7c-1,1-2.2,1.8-4,1.8c-2.3,0-4.3-1.7-4.6-4.6h9.6c0-0.2,0-0.3,0-0.5
		c0-3.4-2.1-6.1-5.3-6.1c-3.1,0-5.5,2.7-5.5,6.1v0C330.9,326.6,333.6,329,336.6,329 M326.2,328.7h1.1v-11.6h-1.1V328.7z
		 M326.1,314.1h1.4v-1.5h-1.4V314.1z M312.7,328.7h10v-1h-8.4l8.4-10v-0.6H313v1h8.1l-8.4,10V328.7z M304,328c-1.8,0-3.4-1-3.4-2.7
		v0c0-1.6,1.4-2.7,3.8-2.7c1.7,0,3,0.3,3.9,0.5v1.3C308.4,326.5,306.3,328,304,328 M303.9,329c2.2,0,3.6-1.1,4.4-2.2v1.9h1.1v-7.2
		c0-1.4-0.4-2.5-1.2-3.3c-0.8-0.8-2.1-1.3-3.7-1.3c-1.6,0-2.8,0.4-4.1,1l0.4,1c1.1-0.5,2.2-0.9,3.6-0.9c2.4,0,3.8,1.2,3.8,3.6v0.5
		c-1.1-0.3-2.2-0.5-3.8-0.5c-3,0-5.1,1.4-5.1,3.8v0C299.4,327.8,301.7,329,303.9,329 M279.6,328.7h1.1V322c0-2.4,1.8-4.1,4-4.1
		c2.3,0,3.7,1.6,3.7,4v6.9h1.1v-7.1c0-2.8-1.7-4.8-4.6-4.8c-2.1,0-3.4,1.1-4.2,2.4v-2.2h-1.1V328.7z M270,329c2.1,0,3.4-1.1,4.2-2.4
		v2.2h1.1v-11.6h-1.1v6.7c0,2.4-1.8,4.1-4,4.1c-2.3,0-3.7-1.6-3.7-4v-6.9h-1.1v7.1C265.4,327,267.1,329,270,329 M249.7,315.2h1l-2-3
		l-1.4,0.7L249.7,315.2z M245.9,322.4c0.2-2.6,2-4.5,4.3-4.5c2.7,0,4,2.2,4.2,4.5H245.9z M250.4,329c2.2,0,3.6-0.9,4.8-2.2l-0.8-0.7
		c-1,1-2.2,1.8-4,1.8c-2.3,0-4.4-1.7-4.6-4.6h9.6c0-0.2,0-0.3,0-0.5c0-3.4-2.1-6.1-5.3-6.1c-3.1,0-5.5,2.7-5.5,6.1v0
		C244.7,326.6,247.3,329,250.4,329 M224.7,328.7h1.1V322c0-2.4,1.8-4.1,4-4.1c2.3,0,3.7,1.6,3.7,4v6.9h1.1v-7.1
		c0-2.8-1.7-4.8-4.6-4.8c-2.1,0-3.4,1.1-4.2,2.4v-2.2h-1.1V328.7z M215.3,328c-2.7,0-4.8-2.2-4.8-5v0c0-2.7,2-5,4.7-5
		c2.7,0,4.8,2.2,4.8,5v0C220.1,325.7,218.1,328,215.3,328 M215.3,329c3.5,0,6-2.8,6-6.1v0c0-3.3-2.5-6-5.9-6c-3.5,0-6,2.8-6,6.1v0
		C209.3,326.2,211.8,329,215.3,329 M196.2,328.7h1.1V322c0-2.4,1.8-4.1,4-4.1c2.3,0,3.7,1.6,3.7,4v6.9h1.1v-7.1
		c0-2.8-1.7-4.8-4.6-4.8c-2.1,0-3.4,1.1-4.2,2.4v-2.2h-1.1V328.7z"/>
	<path class="st0" d="M540.5,293.7c3.1,0,6.2-0.6,9.1-1.9v-2.6c-2.9,1.4-6.1,2.2-9.1,2.2c-8.5,0-12.8-5.3-12.8-14.3v-42.1h22.2v-2.3
		h-22.2v-20.8h-2.5v20.8h-9.5v2.3h9.5v42.4C525.1,287.7,530.5,293.7,540.5,293.7 M496.3,292.6h2.5v-60h-2.5V292.6z M495.7,215.4h3.7
		v-6.8h-3.7V215.4z M412.6,290.2v-38.9h35.8c13.8,0,25.3,6.7,25.3,19.4v0.2c0,12.1-10.1,19.2-27.4,19.2H412.6z M412.6,248.9V211
		h31.7c15.7,0,25,7.4,25,18.8v0.2c0,12.8-10.4,18.8-22.9,18.8H412.6z M409.9,292.6h36.4c19,0,30-7.9,30-21.7v-0.2
		c0-11.3-9.1-19.2-20.6-20.9c9.6-2.2,16.2-9.5,16.2-19.8v-0.2c0-5.8-1.9-10.4-5.4-13.9c-4.7-4.7-12.4-7.2-22.1-7.2h-34.4V292.6z
		 M359.5,291.6c-16.8,0-28.7-13.2-28.7-28.9v-0.2c0-15.7,11.5-28.9,28.4-28.9c16.8,0,28.7,13.2,28.7,28.9v0.2
		C388,278.4,376.5,291.6,359.5,291.6 M359.4,294c18.8,0,31.2-14.6,31.2-31.4v-0.2c0-16.8-12.5-31.2-31.2-31.2
		c-18.8,0-31.2,14.6-31.2,31.4v0.2C328.2,279.6,340.7,294,359.4,294 M295.3,292.6h2.5v-31.1c0-11.5,9.1-28,24.1-28h0.6v-2.4
		c-13.3-0.1-22,10.7-24.7,20.6v-19.2h-2.5V292.6z M223.9,261c0.6-15.7,11-27.5,25.9-27.5c15.8,0,24.5,13.8,25,27.5H223.9z
		 M251.2,294c10.6,0,19.2-5.6,24.4-13.1l-2-1.4c-4.8,6.7-13,12.1-22.2,12.1c-14.8,0-26.9-11-27.4-28.3h53.6v-0.5
		c0-15-8.6-31.7-27.6-31.7c-16.7,0-28.8,13.4-28.8,31.2v0.2C221.2,281.9,234.7,294,251.2,294 M176.9,291.6
		c-16.2,0-27.7-13.4-27.7-28.9v-0.2c0-15.6,11.4-28.9,27.7-28.9c16.4,0,27.5,13.1,27.5,29v0.2C204.4,278.9,193.3,291.6,176.9,291.6
		 M177,294c17.4,0,30-13.9,30-31.3v-0.2c0-17.4-12.6-31.3-30-31.3c-13.9,0-24.2,8.6-27.7,20V205h-2.5v87.6h2.5V274
		C152.8,285.4,163.1,294,177,294 M121.2,292.6h2.5v-60h-2.5V292.6z M120.6,215.4h3.7v-6.8h-3.7V215.4z M51.7,292.6H106v-2.4H54.4
		v-81.6h-2.6V292.6z"/>
</g>
</svg>
