<?xml version="1.0" encoding="utf-8"?>
<!-- Generator: Adobe Illustrator 24.0.0, SVG Export Plug-In . SVG Version: 6.00 Build 0)  -->
<svg version="1.1" id="Livello_1" xmlns="http://www.w3.org/2000/svg" xmlns:xlink="http://www.w3.org/1999/xlink" x="0px" y="0px"
	 viewBox="0 0 595.3 841.9" style="enable-background:new 0 0 595.3 841.9;" xml:space="preserve">
<style type="text/css">
	.st0{clip-path:url(#SVGID_2_);fill:#1F3B71;}
	.st1{clip-path:url(#SVGID_2_);fill:#425083;}
</style>
<g>
	<defs>
		<rect id="SVGID_1_" x="203.9" y="242.4" width="206.1" height="268.7"/>
	</defs>
	<clipPath id="SVGID_2_">
		<use xlink:href="#SVGID_1_"  style="overflow:visible;"/>
	</clipPath>
	<path class="st0" d="M351.1,242.4c0.8,0.8,1.9,0.8,2.9,1.3c5,2.7,7.8,8.3,6.8,13.9c-2.5,14.2-5.1,28.3-7.7,42.5
		c-2.7,14.8-5.3,29.7-8,44.5c-0.9,5-1.8,9.9-2.8,14.9c-1.2,6-6.2,10.2-12.4,10.2c-18.1,0-36.2,0-54.3,0c-2.3,0-4.1,0.6-5.8,2.1
		c-4.2,3.8-8.6,7.4-12.9,11.1c-0.8,0.7-1.6,1.6-2.8,1c-1.3-0.7-1.1-1.9-0.9-3.1c2.7-14.8,5.4-29.7,8.1-44.5
		c2.5-13.6,4.9-27.3,7.4-40.9c1.2-6.4,6.1-10.3,12.7-10.3c11.4,0,22.8,0,34.3,0c4.2,0,5.7,1.8,5,5.9c-0.4,2.3-0.9,4.7-1.4,7
		c-0.6,2.7-1.9,3.7-4.7,3.7c-8.3,0-16.6,0-24.8,0c-4.1,0-5.5,1.1-6.2,5.2c-2.4,13.3-4.9,26.7-7.3,40c-0.7,3.6,1.1,6,4.8,6.3
		c2.4,0.1,4.8,0,7.1,0c11,0,21.9,0,32.9,0c4.4,0,5.8-1.1,6.5-5.4c4.2-23.3,8.4-46.5,12.6-69.8c0.3-1.5,0.6-3,0.9-4.5
		c0.6-3-0.7-4.9-3.8-5.4c-2.1-0.4-4.3-0.1-6.4-0.2c-3.8,0-5.7-2.1-5.1-5.9c1-5.4,2.2-10.8,3.3-16.2c0.3-1.5,1.7-2.1,2.2-3.4H351.1z"
		/>
	<path class="st0" d="M225.6,451.6c0.6-2.5,1.9-4.4,3.1-6.3c2.1-3.2,4.6-6.1,6.7-9.3c2.3-3.6,3.4-7.5,2.7-11.8
		c-0.1-0.6,0-1.2-0.3-1.9c-1.2-2.4-3.1-2.2-5.1-1.9c-4.7,0.7-9.4,1.6-14,2.4c-1,0.2-1.9,0.5-2.8,1c-1.1,0.8-1.6,1.8-1.4,3.2
		c0.2,1.4,1,2.4,2.5,2.7c0.8,0.2,1.7,0.2,2.5,0c3-0.5,6-1,9.1-1.5c0.8-0.1,1.7-0.9,2.3,0c0.5,0.7-0.1,1.6-0.4,2.4
		c-0.5,1.2-1.3,2.3-2.1,3.3c-1,1.3-2,2.5-3,3.8c-2.1,2.6-4.1,5.4-5.5,8.4c-1.4,3-2.2,6-1.7,9.3c0.4,3,1.5,3.8,4.4,3.7
		c2.6-0.1,5.2-0.6,7.7-1.1c3.6-0.7,7.3-0.9,10.8-2.1c2-0.7,2.7-1.8,2.5-3.6c-0.2-1.6-1.8-2.8-3.5-2.9c-1.5-0.1-3,0.3-4.6,0.5
		C232.3,450.5,229,451.1,225.6,451.6 M254,456.6c0,1.2-1,1-1.6,1.1c-8.5,1.4-17.1,2.7-25.6,4c-4.5,0.7-8.9,1.4-13.4,2.1
		c-2.5,0.4-2.5,0.4-2.9-2c-1.9-11.4-3.7-22.8-5.6-34.2c-0.2-1.4,0-2.9-1.1-4v-1.8c0.9,0,1.9,0.1,2.8-0.1c4.5-0.7,9-1.5,13.5-2.2
		c7.4-1.1,14.9-2.1,22.3-3.4c1.8-0.3,3.9,0,5.3-1.7c0,3.1,0.8,6.2,1.2,9.3c0.9,6.8,2,13.6,3,20.3C252.6,448.3,252.9,452.5,254,456.6
		"/>
	<path class="st0" d="M321.7,511c-1.4-1-3.2-0.5-4.8-0.9c-5.1-1.2-8.7-4.8-9.4-10c-0.2-1.1,0-1.6,1.4-1.6c2.4,0,4.9-0.2,7.3-0.4
		c1-0.1,1.5,0.3,1.7,1.3c0.8,3.7,3.7,4.7,6.9,4.3c1.6-0.2,3-1.6,3.1-3c0-1.5-0.8-2.5-2.2-3.2c-1.8-0.8-3.8-1.1-5.7-1.6
		c-2.1-0.6-4.1-1.2-6-2.2c-3.6-1.8-5.6-4.7-5.4-8.8c0.3-4.1,2.7-6.7,6.3-8.3c3.3-1.4,6.9-1.3,10.4-1.1c1.4,0.1,2.7,0.3,4.1,0.6
		c4.8,1.3,7.2,4.5,7.8,9.4c-3,0.5-6.1,0.6-9.1,0.7c-1,0-1.1-0.6-1.4-1.2c-1.2-2.6-3.7-3.8-6.4-2.9c-1,0.3-1.8,1-1.9,2.1
		c-0.1,1.2,0.7,1.8,1.7,2.1c2.1,0.6,4.3,1.1,6.4,1.7c1.8,0.4,3.5,1,5.2,1.7c3.9,1.7,6.4,4.4,6.5,8.8c0.1,4.6-1.9,8.1-6,10.3
		c-2.1,1.1-4.4,1.7-6.8,1.8c-0.7,0-1.5-0.4-2.1,0.4H321.7z"/>
	<path class="st1" d="M247.7,414.4c-1.4,1.7-3.5,1.4-5.3,1.7c-7.4,1.2-14.9,2.2-22.3,3.4c-4.5,0.7-9,1.5-13.5,2.2
		c-0.9,0.1-1.8,0.1-2.8,0.1v-0.9c1.1-1.7,1-3.6,1.4-5.4c0.6-2.4,1-4.8,1.4-7.2c0.2-1,0.7-1.5,1.8-1.6c13.1-2.1,26.1-4.2,39.2-6.3
		c0.8-0.1,2-1.1,2.8,0.3c0,0.7-0.4,1.3-0.6,2.1C249.3,406.6,248.5,410.5,247.7,414.4"/>
	<path class="st1" d="M410,458.1c-1.4,0.2-2,1.5-2.9,2.3c-1.2,1-2.3,2.1-3.5,3.2c-0.7-0.5-0.5-1.2-0.5-1.9c0-15.1,0-30.2,0.1-45.4
		c2.1-2.5,4.3-5,6.4-7.5c0.1,0,0.3-0.1,0.4,0V458.1z"/>
	<path class="st0" d="M318.1,439.9c-0.1,3.4,1,6.2,1.4,9.2c0.3,2.7,0.8,5.5,1.3,8.2c0.4,2,1.9,3.2,3.8,3c1.8-0.2,3.5-1.7,3.3-3.7
		c-0.1-1.1-0.2-2.3-0.3-3.4c-0.3-2.4-0.7-4.9-1.1-7.2c-0.3-1.5,0.2-2,1.7-2.2c3-0.4,6.1-0.8,9.1-1.3c1.1-0.2,1.6,0.1,1.6,1.2
		c-0.1,3.2,1.2,6.1,1.4,9.2c0,0.7,0.2,1.4,0.5,2c0.7,2,2,2.8,4.1,2.5c1.8-0.3,2.8-1.5,2.8-3.6c0-0.8-0.1-1.7-0.2-2.5
		c-0.9-6.1-1.8-12.2-2.7-18.4c-0.5-3.4-0.9-6.8-1.6-10.2c-0.5-2.5-2.8-3.4-5.2-2.6c-1.6,0.6-2.5,3.2-1.9,5c1,3.1,1.1,6.5,1.6,9.7
		c0.1,0.8-0.2,1.1-1,1.2c-3.3,0.5-6.7,0.9-10,1.4c-1,0.1-1.4-0.2-1.5-1.2c-0.1-1.2-0.3-2.4-0.5-3.6c-0.3-2.3-0.6-4.6-1-6.8
		c-0.4-2-1.8-3.2-3.7-3.1c-2,0.1-3.6,1.3-3.5,3.2c0,2.5,0,5.1,0.6,7.5C317.5,435.6,317.6,438,318.1,439.9 M358.4,453.8
		c-0.8,0.9-0.9,2.1-1.3,3.1c-0.3,1.1-0.9,1.4-2,1.6c-13.1,1.8-26.2,3.7-39.3,5.5c-0.5,0.1-0.9,0-1.4,0.1c-1.2,0.3-1.4-0.3-1.6-1.3
		c-1.1-8.1-2.2-16.2-3.3-24.3c-0.3-1.9-0.6-3.8-0.9-5.7c0-1,0.7-1.8,1-2.7c0.7-1.9,1.9-3.5,2.1-5.5c0.2-1.5-0.7-2.7-0.8-4.1
		c1.6-0.2,3.2-0.4,4.8-0.6c5.2-0.7,10.4-1.5,15.6-2.2c4.7-0.6,9.3-1.2,14-1.5c4.1-0.3,4.9-0.9,6.3-4.8c0.7-2.1,1.1-4.3,2.3-6.2
		c0.6,4.4,1.2,8.8,1.8,13.2c0.7,5.2,1.3,10.5,2,15.7c0,0.3,0.3,0.5,0.4,0.8c0,1.5,0.1,3,0.3,4.5
		C359.4,444.4,360.7,449.1,358.4,453.8"/>
	<path class="st0" d="M380,422.5c-3.9,0-7.2,1.1-10,3.3c-9.7,7.4-9.7,22.6-0.1,30.1c5.7,4.4,15.4,4.5,21.1-0.2
		c5.4-4.5,7.4-10.3,6.7-17.3C397,431.1,390.6,422.1,380,422.5 M358.4,453.8c2.2-4.7,0.9-9.5,0.3-14.2c-0.2-1.5-0.3-3-0.3-4.5
		c0.3-5.5,0-10.9,0.2-16.4c0-0.8-0.3-1.7,0.4-2.4c11.1,0,22.3,0,33.4,0c3.6,0,7.2,0.1,10.8,0.1c0,15.1-0.1,30.2-0.1,45.4
		c0,0.7-0.2,1.4,0.5,1.9c-0.5,0.8-1.4,0.5-2.1,0.5c-13.6,0-27.2,0-40.8,0c-2.1,0-2.1,0-2.1-2.1C358.5,459.3,358.5,456.6,358.4,453.8
		"/>
	<path class="st1" d="M311.2,420.5c0.1,1.4,0.9,2.7,0.8,4.1c-8-3.6-16-7.2-24-10.8c-4.5-2-8.9-4-13.3-6c-1.1-0.5-1.7-0.2-2.1,0.8
		c-0.4,1-0.8,2-1.2,3c-3.5,8-6.9,16.1-10.5,24.1c-1.3,2.9-2.2,6-4.1,8.6c0.1-1,0.3-2,0.1-3c-0.7-4.7-1.4-9.3-2.1-14
		c1.5-2.4,2.4-5.1,3.5-7.7c3.5-8.1,6.9-16.3,10.3-24.5c0.6-1.5,1.2-1.5,2.5-0.9c12.1,5.6,24.3,11.2,36.5,16.7c1,0.4,1.6,1.1,2,2.1
		C309.9,415.6,310.3,418.1,311.2,420.5"/>
	<path class="st1" d="M311.2,420.5c-0.9-2.4-1.3-5-1.9-7.5c1.3-2.2,1.3-2.3,4.1-2.7c6.2-0.9,12.4-1.6,18.6-2.4
		c5.9-0.8,11.7-1.7,17.6-2.6c1.4-0.2,2.7-0.1,4.1-0.5c0.3-0.1,0.5,0.2,0.6,0.5c-1.2,1.9-1.6,4.1-2.3,6.2c-1.4,3.9-2.2,4.4-6.3,4.8
		c-4.7,0.4-9.4,1-14,1.5c-5.2,0.7-10.4,1.4-15.6,2.2C314.4,420.2,312.8,420.4,311.2,420.5"/>
	<path class="st1" d="M403.2,416.4c-3.6,0-7.2-0.1-10.8-0.1c-11.1,0-22.3,0-33.4,0c2-2.2,3.9-4.4,5.9-6.7c0.6-0.6,1.3-0.8,2.1-0.8
		c14.2,0,28.5,0,42.7,0C407.5,411.4,405.3,413.9,403.2,416.4"/>
	<path class="st1" d="M254.6,427.4c0.7,4.7,1.4,9.3,2.1,14c0.2,1,0,2-0.1,3c-0.6,0.9-0.2,2.1-0.7,3c-0.6,3.1-1.3,6.2-1.9,9.2
		c-1.1-4.1-1.4-8.4-2.1-12.5c-1.1-6.8-2.1-13.5-3-20.3c-0.4-3.1-1.2-6.2-1.2-9.3c0.8-3.9,1.6-7.8,2.3-11.7c0.1-0.7,0.5-1.3,0.6-2.1
		C251.9,409.5,253.3,418.5,254.6,427.4"/>
	<path class="st0" d="M298,322.4c1.6,1.4,2.9,2.4,4.2,3.5c3.8,3.2,2.4,2.9,6.7,0.5c1.9-1,3.7-2.1,5.9-3.4c-0.5,3.6-1,6.8-1.8,10
		c-0.2,0.8-0.9,1.2-1.8,1.2c-4.3,0-8.6,0-12.9,0c-1.2,0-2.1-0.7-2-2C296.8,329.1,297.4,326,298,322.4"/>
	<path class="st0" d="M298.5,321c0.7-0.7,1.2-0.6,1.8-0.6c4,0,8.1,0,12.1,0c0.5,0,1.1-0.1,1.6,0.2c0.6,0.4,1,0.9,0.1,1.3
		c-2.7,1.4-5.4,2.8-8.1,4.3c-0.6,0.3-1,0.2-1.4-0.2C302.6,324.4,300.6,322.8,298.5,321"/>
	<path class="st0" d="M354.7,488c2.9-3.4,5.9-6.8,8.7-10.2c1.1-1.4,2.2-1.8,3.9-1.7c3.8,0.1,7.6,0,11.9,0c-3.3,3.4-6.3,6.5-9.3,9.6
		c-3.1,3.1-3.1,3.1-0.8,6.9c3.5,5.7,7,11.5,10.7,17.6c-3.1,0-6-0.3-8.8,0.1c-3.4,0.4-5.2-0.7-6.5-3.9c-1.3-3.3-3.2-6.4-4.9-9.7
		c-1.8,1.5-3.3,3.3-4.9,4.9c-0.5,0.5-0.4,1.1-0.4,1.7c0,1.9,0,3.8,0,5.7c0,0.9-0.2,1.2-1.2,1.2c-2.8,0-5.5-0.1-8.3,0
		c-1,0-1.3-0.3-1.3-1.3c0.1-2.1,0-4.1,0-6.2c0-8.3,0-16.6,0-24.8c0-1.4,0.3-1.9,1.8-1.8c2.5,0.1,5.1,0.1,7.6,0
		c1.1,0,1.5,0.3,1.4,1.4c-0.1,3.4,0,6.9,0,10.3C354.4,487.9,354.6,487.9,354.7,488"/>
	<path class="st0" d="M301.5,432.9c-0.2-5-2.7-10.5-8.8-13.8c-6.1-3.2-12.1-2.7-17.8,1.1c-3.8,2.5-6.2,6.1-7.6,10.4
		c-1.4,4.2-1.8,8.5-0.2,12.9c2.8,7.8,10.9,12.8,19.6,10.7C295.2,452.2,301.5,443.9,301.5,432.9 M255.9,447.4c0.5-0.9,0.1-2.1,0.7-3
		c1.8-2.7,2.8-5.7,4.1-8.6c3.6-8,7-16,10.5-24.1c0.4-1,0.8-2,1.2-3c0.4-1.1,0.9-1.3,2.1-0.8c4.4,2.1,8.9,4,13.3,6
		c8,3.6,16,7.2,24,10.8c-0.3,2-1.5,3.7-2.1,5.5c-0.3,0.9-1.1,1.6-1,2.7c-2.3,4.3-4,8.9-6,13.3c-2.5,5.5-4.9,11-7.3,16.6
		c-0.8,1.9-0.8,1.9-2.8,1c-11.8-5.3-23.7-10.7-35.5-16C256.8,447.7,256.4,447.5,255.9,447.4"/>
	<path class="st0" d="M249,493v5.7c0,3.9,0,3.9,3.9,3.4c0.2,0,0.5,0,0.7-0.1c3.1-0.5,4.5-1.7,5-4.8c0.5-2.7,0.5-5.5,0-8.2
		c-0.7-3.5-2.6-5-6.2-5.2c-0.6,0-1.2,0-1.8,0c-1-0.1-1.5,0.2-1.5,1.3C249,487.8,249,490.4,249,493 M238.3,493.1c0-5.2,0-10.4,0-15.6
		c0-1.1,0.2-1.5,1.4-1.5c5.7,0.1,11.3-0.1,17,0.1c5.7,0.1,10.4,4,12.1,9.6c1.3,4.5,1.5,9.1,0.4,13.6c-1.7,6.9-6.2,10.4-13.6,10.7
		c-5.3,0.3-10.6,0-15.8,0.1c-1.1,0-1.4-0.3-1.4-1.4C238.3,503.5,238.3,498.3,238.3,493.1"/>
	<path class="st0" d="M275.1,493.1c0-5.1,0-10.3,0-15.4c0-1.3,0.3-1.7,1.6-1.7c8.4,0.1,16.7,0.1,25.1,0c1.5,0,1.9,0.5,1.7,1.8
		c-0.2,1.8,0.8,4.1-0.4,5.3c-1,1-3.4,0.3-5.1,0.3c-3.6,0-7.2,0.1-10.8,0c-1.1,0-1.4,0.3-1.4,1.4c-0.1,3.8-0.1,3.8,3.6,3.8
		c3.7,0,7.4,0.1,11,0c1.4,0,2,0.3,1.9,1.8c-0.1,1.1-0.1,2.3,0,3.4c0.2,1.6-0.3,2.1-2,2.1c-4.2-0.1-8.4,0-12.6-0.1
		c-1.5,0-2.1,0.3-1.9,1.9c0.2,1.5-0.7,3.4,0.4,4.4c0.9,0.9,2.8,0.2,4.2,0.2c4,0,8,0.1,12,0c1.3,0,1.7,0.4,1.6,1.7
		c-0.1,1.6-0.1,3.2,0,4.8c0,0.9-0.1,1.4-1.2,1.4c-8.8,0-17.6,0-26.4,0c-1.4,0-1.2-0.8-1.2-1.6C275.1,503.4,275.1,498.2,275.1,493.1"
		/>
	<path class="st0" d="M371,438.9c0.9-3.7,2.2-6.6,5.3-8.5c5-3,11.8-0.4,13.3,5.2c1.3,5.1,0,9.7-3.2,13.7c-2.4,2.9-5.7,3.6-9.1,2.6
		c-3.7-1-5.9-3.6-6.6-7.4C370.3,442.5,370.5,440.5,371,438.9"/>
	<path class="st0" d="M294.1,433.7c-0.4,4.2-2,8.5-5.7,11.8c-2.6,2.4-5.7,2.8-9,1.5c-3.4-1.3-5.4-3.8-5.6-7.4
		c-0.3-5.2,1.6-9.6,5.3-13.2c2.7-2.7,6-3.1,9.6-1.6C292.3,426.3,294,429.2,294.1,433.7"/>
</g>
</svg>
