<?xml version="1.0" encoding="utf-8"?>
<!-- Generator: Adobe Illustrator 24.0.0, SVG Export Plug-In . SVG Version: 6.00 Build 0)  -->
<svg version="1.1" xmlns="http://www.w3.org/2000/svg" xmlns:xlink="http://www.w3.org/1999/xlink" x="0px" y="0px"
	 viewBox="0 0 750 500" style="enable-background:new 0 0 750 500;" xml:space="preserve">
<style type="text/css">
	.st0{clip-path:url(#SVGID_2_);fill:#BFFFFF;}
	.st1{clip-path:url(#SVGID_4_);fill:#4980BD;}
	.st2{clip-path:url(#SVGID_4_);fill:#2D3D6F;}
	.st3{fill:none;stroke:#BFFFFF;stroke-width:0.5;stroke-miterlimit:10;}
	.st4{opacity:0.4;fill:#BFFFFF;}
	.st5{opacity:0;fill:#BFFFFF;}
	.st6{opacity:0.8;fill:#BFFFFF;}
	.st7{opacity:0.7;fill:#BFFFFF;}
	.st8{opacity:0.9;fill:#BFFFFF;}
	.st9{fill:#BFFFFF;}
	.st10{opacity:0.8;}
	.st11{opacity:0.7;}
	.st12{opacity:0.9;}
	.st13{opacity:0.4;}
	.st14{opacity:0.2;}
	.st15{display:none;}
	.st16{display:inline;}
	.st17{opacity:0.6;}
	.st18{display:none;opacity:0.6;}
</style>
<g id="BACKGROUND">
	<g>
		<g>
			<g>
				<defs>
					<rect id="SVGID_1_" x="-101.5" y="-297.1" width="872.9" height="872.9"/>
				</defs>
				<clipPath id="SVGID_2_">
					<use xlink:href="#SVGID_1_"  style="overflow:visible;"/>
				</clipPath>
				<path class="st0" d="M71.5-297.1c-95.5,0-172.9,77.4-172.9,172.9v527c0,95.5,77.4,172.9,172.9,172.9h527
					c95.5,0,172.9-77.4,172.9-172.9v-527c0-95.5-77.4-172.9-172.9-172.9H71.5z"/>
				<path class="st0" d="M771.4,402.9v-527c0-84.7-60.9-155-141.3-169.9c12.3,188.2-6.9,768.1-711.1,778.7
					c29.2,54.3,86.5,91.2,152.4,91.2h527C694,575.8,771.4,498.4,771.4,402.9"/>
			</g>
		</g>
	</g>
	<g>
		<g>
			<g>
				<defs>
					<rect id="SVGID_3_" x="-101.5" y="-297.1" width="872.9" height="872.9"/>
				</defs>
				<clipPath id="SVGID_4_">
					<use xlink:href="#SVGID_3_"  style="overflow:visible;"/>
				</clipPath>
				<path class="st1" d="M71.5-297.1c-95.5,0-172.9,77.4-172.9,172.9v527c0,95.5,77.4,172.9,172.9,172.9h527
					c95.5,0,172.9-77.4,172.9-172.9v-527c0-95.5-77.4-172.9-172.9-172.9H71.5z"/>
				<path class="st2" d="M771.4,402.9v-527c0-84.7-60.9-155-141.3-169.9c12.3,188.2-6.9,768.1-711.1,778.7
					c29.2,54.3,86.5,91.2,152.4,91.2h527C694,575.8,771.4,498.4,771.4,402.9"/>
			</g>
		</g>
	</g>
	<g>
		<g>
			<g>
				<defs>
					<rect id="SVGID_5_" x="-101.5" y="-297.1" width="872.9" height="872.9"/>
				</defs>
				<clipPath id="SVGID_6_">
					<use xlink:href="#SVGID_5_"  style="overflow:visible;"/>
				</clipPath>
			</g>
		</g>
	</g>
</g>
<g id="Linee_x5F_SX">
	<line id="Linea_17_SX" class="st3" x1="311.1" y1="350.6" x2="0" y2="350.6"/>
	<polyline id="Linea_16_SX" class="st3" points="300.2,344.9 263.5,344.9 258.3,339.7 0,339.7 	"/>
	<line id="Linea_15_SX" class="st3" x1="274" y1="333.2" x2="0" y2="333.2"/>
	<polyline id="Linea_14_SX" class="st3" points="269.2,321.3 228.6,321.3 224,325.9 0,325.9 	"/>
	<polyline id="Linea_13_SX" class="st3" points="264.8,309.5 213.4,309.5 207.5,303.6 0,303.6 	"/>
	<polyline id="Linea_12_SX" class="st3" points="247.4,302 220.6,302 210,291.3 0,291.3 	"/>
	<line id="Linea_11_SX" class="st3" x1="236.3" y1="280.4" x2="0" y2="280.4"/>
	<line id="Linea_10_SX" class="st3" x1="234.6" y1="230.9" x2="0" y2="230.9"/>
	<polyline id="Linea_9_SX" class="st3" points="0,226.6 173.5,226.6 178,222 241.9,222 	"/>
	<polyline id="Linea_8_SX" class="st3" points="0,218.7 170.5,218.7 174.7,214.5 247.8,214.5 	"/>
	<polyline id="Linea_7_SX" class="st3" points="251.4,210.2 217.4,210.2 208.3,203.5 0,203.5 	"/>
	<polyline id="Linea_6_SX" class="st3" points="0,180.5 233.9,180.5 246.7,190 267,190 	"/>
	<polyline id="Linea_5_SX" class="st3" points="285.6,177.5 258.4,177.5 253.8,172 0,172 	"/>
	<line id="Linea_4_SX" class="st3" x1="295.5" y1="167.5" x2="0" y2="167.5"/>
	<polyline id="Linea_3_SX" class="st3" points="0,153.5 211.6,153.5 220.7,162.4 300,162.4 	"/>
	<polyline id="Linea_2_SX_1_" class="st3" points="0,149.7 213.6,149.7 222.8,159.3 302.9,159.3 	"/>
	<polyline id="Linea_1_SX" class="st3" points="307.5,155.5 229.3,155.5 218.4,143.9 0,143.9 	"/>
</g>
<g id="Linee_x5F_DX">
	<line id="Linea_16_DX" class="st3" x1="392.7" y1="339" x2="750" y2="339"/>
	<polyline id="Linea_15_DX" class="st3" points="750,329.8 515.9,329.8 502.2,319.9 460.6,319.9 425.2,287.4 	"/>
	<polyline id="Linea_14_DX" class="st3" points="438.4,285.9 468.3,311.8 500.7,311.8 517,324.8 750,324.8 	"/>
	<polyline id="Linea_13_DX" class="st3" points="455.9,284 480.5,306.4 502.9,306.4 520.7,320.6 750,320.6 	"/>
	<polyline id="Linea_12_DX" class="st3" points="480.2,284.5 517,284.5 547,305.9 750,305.9 	"/>
	<polyline id="Linea_11_DX" class="st3" points="487.9,277.6 521.9,277.6 549.8,298.3 750,298.3 	"/>
	<line id="Linea_10_DX" class="st3" x1="500.7" y1="268.4" x2="750" y2="268.2"/>
	<polyline id="Linea_9_DX" class="st3" points="507.3,254.1 544.1,254.1 575.7,233.4 750,233.4 	"/>
	<polyline id="Linea_8_DX" class="st3" points="509.9,247.1 542,247.1 572.7,227.2 750,227.2 	"/>
	<polyline id="Linea_7_DX" class="st3" points="514.5,237.3 539,237.3 569,217.2 750,217.2 	"/>
	<polyline id="Linea_6_DX" class="st3" points="504.9,213.5 528.9,213.5 558.9,187.2 750,187.2 	"/>
	<polyline id="Linea_5_DX" class="st3" points="491.6,203 526.3,203 555.5,177 750,177 	"/>
	<polyline id="Linea_4_DX" class="st3" points="486,198.1 522.5,198.1 552.5,171.4 750,171.4 	"/>
	<polyline id="Linea_3_DX" class="st3" points="469,180.2 495.8,163 750,163 	"/>
	<polyline id="Linea_2_DX" class="st3" points="463.1,175 493.1,156 750,156 	"/>
	<polyline id="Linea_1_DX" class="st3" points="407.8,154.8 448.4,154.8 458.4,145.3 750,145.3 	"/>
</g>
<g id="cervello">
	<g id="Cervello">
		<g id="vetri_interni">
			<polygon class="st4" points="266.9,190.5 251.4,209.5 275.7,214.4 			"/>
			<polygon class="st4" points="285,177.3 266.9,190.5 275.7,214.4 			"/>
			<polygon class="st5" points="275.7,214.4 253.3,240.7 251.4,209.5 			"/>
			<polygon class="st5" points="286.9,244.1 253.3,240.7 275.7,214.4 			"/>
			<polygon class="st4" points="251.4,209.5 234.8,231.9 253.3,240.7 			"/>
			<polygon class="st4" points="285,177.3 295.2,165.7 323.4,171 			"/>
			<polygon class="st4" points="336.6,154 307.4,156.4 295.2,165.7 			"/>
			<polygon class="st5" points="323.4,171 336.6,154 295.2,165.7 			"/>
			<polygon class="st5" points="314.2,193.4 275.7,214.4 285,177.3 			"/>
			<polygon class="st5" points="323.4,171 314.2,193.4 285,177.3 			"/>
			<polygon class="st4" points="253.3,240.7 234.8,254.3 234.8,231.9 			"/>
			<polygon class="st4" points="286.9,244.1 269.9,273.8 253.3,240.7 			"/>
			<polygon class="st4" points="236.7,280.6 234.8,254.3 253.3,240.7 			"/>
			<polygon class="st5" points="269.9,273.8 236.7,280.6 253.3,240.7 			"/>
			<polygon class="st5" points="247,301 236.7,280.6 269.9,273.8 			"/>
			<polygon class="st4" points="265,308.8 247,301 269.9,273.8 			"/>
			<polygon class="st6" points="286.9,244.1 323.4,264.5 269.9,273.8 			"/>
			<polygon class="st5" points="314.2,193.4 286.9,244.1 275.7,214.4 			"/>
			<polygon class="st5" points="314.2,193.4 345.3,234.8 286.9,244.1 			"/>
			<polygon class="st4" points="323.4,171 353.6,168.6 314.2,193.4 			"/>
			<polygon class="st7" points="345.3,234.8 353.6,168.6 314.2,193.4 			"/>
			<polygon class="st4" points="323.4,264.5 345.3,234.8 286.9,244.1 			"/>
			<polygon class="st5" points="353.6,168.6 336.6,154 323.4,171 			"/>
			<polygon class="st4" points="364.8,145.7 336.6,154 353.6,168.6 			"/>
			<polygon class="st4" points="391.1,154 364.8,145.7 353.6,168.6 			"/>
			<polygon class="st4" points="408.7,154.5 391.1,154 399.4,181.2 			"/>
			<polygon class="st5" points="428.1,159.3 408.7,154.5 399.4,181.2 			"/>
			<polygon class="st5" points="353.6,168.6 399.4,181.2 391.1,154 			"/>
			<polygon class="st4" points="428.1,159.3 451,184.7 399.4,181.2 			"/>
			<polygon class="st5" points="464.2,174.4 428.1,159.3 451,184.7 			"/>
			<polygon class="st5" points="345.3,234.8 399.4,181.2 353.6,168.6 			"/>
			<polygon class="st4" points="384.3,229.5 345.3,234.8 399.4,181.2 			"/>
			<polygon class="st7" points="451,184.7 384.3,229.5 399.4,181.2 			"/>
			<polygon class="st4" points="350.2,265 323.4,264.5 345.3,234.8 			"/>
			<polygon class="st7" points="384.3,229.5 350.2,265 345.3,234.8 			"/>
			<polygon class="st5" points="302.5,304.9 269.9,273.8 265,308.8 			"/>
			<polygon class="st5" points="350.2,265 302.5,304.9 323.4,264.5 			"/>
			<polygon class="st5" points="269.9,273.8 302.5,304.9 323.4,264.5 			"/>
			<polygon class="st4" points="350.2,265 377,312.7 302.5,304.9 			"/>
			<polygon class="st4" points="384.3,229.5 412.1,265.5 350.2,265 			"/>
			<polygon class="st5" points="377,312.7 412.1,265.5 350.2,265 			"/>
			<polygon class="st4" points="464.2,174.4 486.6,198.3 451,184.7 			"/>
			<polygon class="st5" points="384.3,229.5 432,243.6 412.1,265.5 			"/>
			<polygon class="st5" points="451,184.7 432,243.6 384.3,229.5 			"/>
			<polygon class="st5" points="486.6,198.3 432,243.6 451,184.7 			"/>
			<polygon class="st4" points="455.9,283.5 432,243.6 412.1,265.5 			"/>
			<polygon class="st5" points="486.6,198.3 505.1,213.4 491.4,233.4 			"/>
			<polygon class="st8" points="432,243.6 469.5,244.1 455.9,283.5 			"/>
			<polygon class="st5" points="479.8,283.5 455.9,283.5 469.5,244.1 			"/>
			<polygon class="st4" points="500.7,268.4 479.8,283.5 469.5,244.1 			"/>
			<polygon class="st5" points="505.1,213.4 514.3,236.8 491.4,233.4 			"/>
			<polygon class="st4" points="486.6,198.3 469.5,244.1 491.4,233.4 			"/>
			<polygon class="st5" points="432,243.6 469.5,244.1 486.6,198.3 			"/>
			<polygon class="st5" points="491.4,233.4 500.7,268.4 469.5,244.1 			"/>
			<polygon class="st4" points="514.3,236.8 500.7,268.4 491.4,233.4 			"/>
			<polygon class="st5" points="377,312.7 321,326.9 302.5,304.9 			"/>
			<polygon class="st4" points="265,308.8 274.2,332.2 302.5,304.9 			"/>
			<polygon class="st4" points="321,326.9 274.2,332.2 302.5,304.9 			"/>
			<polygon class="st5" points="321,326.9 354.1,341.5 377,312.7 			"/>
			<polygon class="st5" points="274.2,332.2 311.3,349.6 321,326.9 			"/>
			<polygon class="st4" points="354.1,341.5 311.3,349.6 321,326.9 			"/>
			<polygon class="st5" points="425.2,287.4 412.1,265.5 455.9,283.5 			"/>
			<polygon class="st5" points="425.2,287.4 412.1,265.5 377,312.7 			"/>
			<polygon class="st4" points="354.1,341.5 381.1,346.3 377,312.7 			"/>
			<polygon class="st4" points="359.2,362.1 354.1,341.5 381.1,346.3 			"/>
			<polygon class="st5" points="386.4,367.5 381.1,346.3 359.2,362.1 			"/>
			<polygon class="st4" points="392.5,337.1 377,312.7 381.1,346.3 			"/>
			<polygon class="st4" points="392.5,337.1 386.4,367.5 381.1,346.3 			"/>
			<polygon class="st5" points="359.2,362.1 359.2,387.4 386.4,367.5 			"/>
		</g>
		<g>
			<path class="st9" d="M358.8,388.2v-26l-5-20.2l-42.6,8.1l-37.3-17.6l-9.2-23.4l-18-7.8l-10.3-20.7l-1.9-26.3l0-22.6l16.6-22.5
				l15.7-19.1l18-13.1l10.3-11.7l12.3-9.3l0.1,0l29.2-2.4l28.3-8.3l26.4,8.3l17.6,0.5l19.5,4.9l36.2,15.2l0.1,0.1l22.4,23.9
				l18.6,15.1l9.4,23.6l-0.1,0.2L501,268.7l-0.1,0.1l-21,15.2h-24l-30.6,3.9l-47.7,25.1l15.4,24.2l-6.2,30.7l-0.1,0.1L358.8,388.2z
				 M354.4,341l5.2,21.2v24.4l26.4-19.3l6.1-30l-15.7-24.7l0.4-0.2l48.3-25.4l0.1,0l30.7-3.9l23.8,0l20.7-15l13.5-31.4l-9.1-23.1
				l-18.4-15l-22.4-23.8l-36-15.1l-19.4-4.8l-17.6-0.5l-26.2-8.2l-28.2,8.3l-29.1,2.4l-12,9.2l-10.3,11.7l-18,13.1l-15.5,19
				L235.2,232v22.3l1.9,26.2l10.1,20.2l18,7.8l9.3,23.4l36.7,17.3L354.4,341z"/>
		</g>
		<g>
			<path class="st9" d="M276,214.6l-25.1-5l16-19.5L276,214.6z M251.7,209.4l23.6,4.7l-8.5-23.2L251.7,209.4z"/>
		</g>
		<g>
			<polygon class="st9" points="275.5,214.4 266.7,190.4 284.8,177.2 285.1,177.5 267.2,190.6 275.9,214.3 			"/>
		</g>
		<g>
			<path class="st9" d="M253.1,241.2l-2-32l25,5L253.1,241.2z M251.6,209.7l1.9,30.4l21.8-25.6L251.6,209.7z"/>
		</g>
		<g>
			<path class="st9" d="M287.2,244.3l-34.3-3.5l22.9-26.9L287.2,244.3z M253.7,240.5l32.9,3.3l-11-29.1L253.7,240.5z"/>
		</g>
		<g>
			<path class="st9" d="M253.5,241l-19.1-9l17.1-23.1L253.5,241z M235.1,231.8l18,8.5l-1.9-30.2L235.1,231.8z"/>
		</g>
		<g>
			<path class="st9" d="M284.4,177.6l10.7-12.2l0.1,0l29.4,5.6L284.4,177.6z M295.3,165.9l-9.8,11.2l36.7-6L295.3,165.9z"/>
		</g>
		<g>
			<path class="st9" d="M294.2,166.2l13.1-10l0.1,0l29.2-2.4l0.1,0.4L294.2,166.2z M307.4,156.6l-11.2,8.5l38.2-10.8L307.4,156.6z"
				/>
		</g>
		<g>
			<path class="st9" d="M323.5,171.2l-0.1,0l-29.1-5.5l42.9-12.1L323.5,171.2z M296.1,165.6l27.2,5.2l12.7-16.4L296.1,165.6z"/>
		</g>
		<g>
			<polygon class="st9" points="275.8,214.5 275.6,214.2 313.7,193.4 284.9,177.5 285.1,177.2 314.6,193.4 			"/>
		</g>
		<g>
			<path class="st9" d="M314.3,193.7l-0.2-0.1l-29.7-16.4l39.4-6.5L314.3,193.7z M285.6,177.5l28.5,15.7l9-21.8L285.6,177.5z"/>
		</g>
		<g>
			<path class="st9" d="M234.6,254.7v-23.1l19.1,9.1L234.6,254.7z M235,232.2v21.7l17.9-13.2L235,232.2z"/>
		</g>
		<g>
			<path class="st9" d="M269.8,274.2l-16.9-33.8l34.3,3.5L269.8,274.2z M253.7,240.9l16.2,32.4l16.7-29.1L253.7,240.9z"/>
		</g>
		<g>
			<path class="st9" d="M236.6,281.5l-2-27.3l0.1-0.1l19.1-14.1L236.6,281.5z M235,254.4l1.9,25.3l15.9-38.4L235,254.4z"/>
		</g>
		<g>
			<path class="st9" d="M236.4,280.9l16.9-40.7l16.9,33.8L236.4,280.9z M253.3,241.2l-16.2,39.1l32.5-6.7L253.3,241.2z"/>
		</g>
		<g>
			<polygon class="st9" points="246.8,301.1 236.6,280.7 236.9,280.5 247.2,300.9 			"/>
		</g>
		<g>
			<path class="st9" d="M265.2,309.1l-18.5-8l0.2-0.2l23.4-27.8L265.2,309.1z M247.3,301l17.5,7.6l4.7-34.1L247.3,301z"/>
		</g>
		<g class="st10">
			
				<rect x="261.3" y="258.7" transform="matrix(0.4966 -0.868 0.868 0.4966 -84.5943 371.9806)" class="st9" width="34.2" height="0.4"/>
		</g>
		<g>
			<path class="st9" d="M286.9,244.6l-11.4-30.3l39.3-21.4L286.9,244.6z M276,214.5l11,29.1l26.7-49.6L276,214.5z"/>
		</g>
		<g>
			<polygon class="st9" points="286.5,244.3 314,193.3 314.4,193.5 287.3,243.8 345.3,234.6 345.4,235 			"/>
		</g>
		<g>
			<path class="st9" d="M313.7,193.9l9.6-23.1l31.2-2.5L313.7,193.9z M323.6,171.2l-9,21.7l38.2-24L323.6,171.2z"/>
		</g>
		<g>
			<path class="st9" d="M323,171.3l13.6-17.6l17.6,15.1L323,171.3z M336.6,154.3l-12.7,16.5l29.2-2.4L336.6,154.3z"/>
		</g>
		<g>
			<path class="st9" d="M353.7,168.9l-17.5-15l29.1-8.5L353.7,168.9z M337,154.1l16.5,14.2l10.9-22.2L337,154.1z"/>
		</g>
		<g>
			<path class="st9" d="M353.2,169l11.5-23.5l0.2,0.1l26.9,8.5L353.2,169z M364.9,145.9L354,168.2l36.4-14.2L364.9,145.9z"/>
		</g>
		<g>
			<path class="st9" d="M399.4,181.9l-8.6-28.2l18.1,0.5L399.4,181.9z M391.4,154.2l8,26.4l8.9-25.9L391.4,154.2z"/>
		</g>
		<g>
			<path class="st9" d="M399,181.8l9.5-27.6l20.1,5L399,181.8z M408.8,154.7l-9,25.9l27.8-21.2L408.8,154.7z"/>
		</g>
		<g>
			<path class="st9" d="M399.7,181.5L353,168.6l38.3-14.9l0.1,0.2L399.7,181.5z M354.3,168.5l44.8,12.4l-8.1-26.7L354.3,168.5z"/>
		</g>
		<g>
			<path class="st9" d="M451.5,184.9l-52.7-3.5l29.3-22.4L451.5,184.9z M400,181.1l50.5,3.3l-22.4-24.8L400,181.1z"/>
		</g>
		<g>
			<path class="st9" d="M451,184.9l-0.1-0.1l-23.5-26l37.2,15.6L451,184.9z M428.9,159.9l22.1,24.5l12.7-9.9L428.9,159.9z"/>
		</g>
		<g>
			
				<rect x="376.3" y="151.2" transform="matrix(0.2666 -0.9638 0.9638 0.2666 107.5566 491.1701)" class="st9" width="0.4" height="47.5"/>
		</g>
		<g>
			
				<rect x="366.6" y="205.1" transform="matrix(0.2993 -0.9542 0.9542 0.2993 78.6448 517.7877)" class="st9" width="50.5" height="0.4"/>
		</g>
		<g>
			<path class="st9" d="M350.5,265.2l-0.3,0l-27.2-0.5l22.5-30.4L350.5,265.2z M323.8,264.3l26.1,0.5l-4.8-29.5L323.8,264.3z"/>
		</g>
		<g class="st11">
			<polygon class="st9" points="350,265 345.1,234.6 345.3,234.6 384.3,229.2 384.3,229.7 345.6,235 350.4,265 			"/>
		</g>
		<g>
			<path class="st9" d="M264.7,309.1l5-35.7l33.3,31.8l-0.5,0L264.7,309.1z M270,274.2l-4.8,34.4l36.8-3.8L270,274.2z"/>
		</g>
		<g>
			
				<rect x="286" y="266.8" transform="matrix(0.6907 -0.7231 0.7231 0.6907 -120.7307 296.4241)" class="st9" width="0.4" height="45.1"/>
		</g>
		<g>
			<polygon class="st9" points="412.5,265.7 350.2,265.2 350.2,264.8 411.6,265.3 384.1,229.6 384.5,229.3 			"/>
		</g>
		<g class="st11">
			
				<rect x="365.1" y="288.9" transform="matrix(0.5961 -0.8029 0.8029 0.5961 -72.7747 433.5619)" class="st9" width="58.8" height="0.4"/>
		</g>
		<g>
			<path class="st9" d="M487.3,198.8l-36.7-14.1l13.6-10.6L487.3,198.8z M451.4,184.6l34.3,13.2l-21.6-23.1L451.4,184.6z"/>
		</g>
		<g>
			<path class="st9" d="M412,265.8l-0.2-0.2l-28.2-36.5l48.7,14.4L412,265.8z M384.9,229.8l27.2,35.3l19.6-21.5L384.9,229.8z"/>
		</g>
		<g>
			
				<rect x="410.6" y="213.9" transform="matrix(0.3063 -0.9519 0.9519 0.3063 102.4719 568.8445)" class="st9" width="61.9" height="0.4"/>
		</g>
		<g>
			<path class="st9" d="M456.4,283.9l-0.6-0.2l-44.1-18.1l20.4-22.3l0.1,0.2L456.4,283.9z M412.4,265.4l43,17.7L432,243.9
				L412.4,265.4z"/>
		</g>
		<g>
			<path class="st9" d="M491.3,233.9l-0.1-0.5l-4.9-35.6l19.1,15.6L491.3,233.9z M486.9,198.8l4.7,34l13.2-19.4L486.9,198.8z"/>
		</g>
		<g class="st12">
			<path class="st9" d="M455.9,284l-24.3-40.6l38.2,0.5L455.9,284z M432.4,243.8l23.4,39.2l13.4-38.7L432.4,243.8z"/>
		</g>
		<g>
			<polygon class="st9" points="514.1,236.8 505,213.8 491.6,233.5 491.3,233.2 505.1,212.9 514.5,236.7 			"/>
		</g>
		<g>
			<polygon class="st9" points="469.7,244.1 469.3,244 486.7,197.4 491.6,233.3 491.2,233.4 486.5,199.1 			"/>
		</g>
		<g>
			<path class="st9" d="M469.7,244.3l-0.1,0l-38.1-0.5l0.4-0.4l55.1-45.8L469.7,244.3z M432.6,243.4l36.8,0.5l16.7-44.9L432.6,243.4
				z"/>
		</g>
		<g>
			
				<rect x="320.1" y="319.6" transform="matrix(0.9697 -0.2443 0.2443 0.9697 -67.5582 94.964)" class="st9" width="57.8" height="0.4"/>
		</g>
		<g>
			<path class="st9" d="M274.2,332.6l-9.5-23.9l38.4-4L274.2,332.6z M265.3,309l9,22.8l27.6-26.6L265.3,309z"/>
		</g>
		<g>
			<path class="st9" d="M273.7,332.5l28.9-27.9l18.9,22.4l-0.4,0L273.7,332.5z M302.5,305.2l-27.6,26.7l45.7-5.2L302.5,305.2z"/>
		</g>
		<g>
			<path class="st9" d="M354.2,341.7l-33.8-14.9l57.2-14.4L354.2,341.7z M321.6,326.9l32.4,14.3l22.4-28.1L321.6,326.9z"/>
		</g>
		<g>
			<path class="st9" d="M311.4,349.9l-37.9-17.8l47.8-5.5L311.4,349.9z M275,332.3l36.1,17l9.5-22.3L275,332.3z"/>
		</g>
		<g>
			<path class="st9" d="M310.9,349.9l10-23.3l0.2,0.1l33.7,14.9L310.9,349.9z M321.1,327.1l-9.5,22.2l41.8-8L321.1,327.1z"/>
		</g>
		<g>
			<path class="st9" d="M425.1,287.6l-0.1-0.1l-13.5-22.5l0.6,0.2l44.6,18.3L425.1,287.6z M412.6,265.9l12.8,21.3l29.8-3.8
				L412.6,265.9z"/>
		</g>
		<g>
			<path class="st9" d="M376.3,313.3l0.5-0.7l35.3-47.5l13.4,22.4L376.3,313.3z M412,265.9l-34.3,46.2l47.2-24.8L412,265.9z"/>
		</g>
		<g>
			<path class="st9" d="M381.4,346.6l-0.3,0l-27.4-4.9l23.4-29.4l0.1,0.5L381.4,346.6z M354.5,341.3l26.4,4.7l-4-32.8L354.5,341.3z"
				/>
		</g>
		<g>
			<path class="st9" d="M359.1,362.5l-5.3-21.3l27.8,5L359.1,362.5z M354.4,341.7l5,20.1l21.3-15.3L354.4,341.7z"/>
		</g>
		<g>
			<path class="st9" d="M386.7,367.8l-28-5.5l22.6-16.3L386.7,367.8z M359.7,362l26.4,5.2l-5.1-20.6L359.7,362z"/>
		</g>
		<g>
			<path class="st9" d="M381,346.7l-4.3-34.9l16.1,25.4L381,346.7z M377.3,313.6l4,32.3l11-8.8L377.3,313.6z"/>
		</g>
		<g>
			<path class="st9" d="M386.4,368.5l-5.5-22.2l12-9.6L386.4,368.5z M381.4,346.4l5,20.2l5.8-28.9L381.4,346.4z"/>
		</g>
		<g>
			<path class="st9" d="M359,387.8v-25.9l0.2,0l27.6,5.5L359,387.8z M359.4,362.4v24.6l26.5-19.3L359.4,362.4z"/>
		</g>
		<g class="st10">
			
				<rect x="290.1" y="284.4" transform="matrix(0.4681 -0.8837 0.8837 0.4681 -85.091 427.8185)" class="st9" width="45.4" height="0.4"/>
		</g>
		<g id="Pallini_x5F_cervello">
			<g>
				<g>
					<path class="st9" d="M384.3,230.5c1.6,0,1.6-2.5,0-2.5C382.7,228,382.7,230.5,384.3,230.5L384.3,230.5z"/>
				</g>
			</g>
			<g>
				<g>
					<path class="st9" d="M432.4,245c1.6,0,1.6-2.5,0-2.5C430.8,242.5,430.8,245,432.4,245L432.4,245z"/>
				</g>
			</g>
			<g>
				<g>
					<path class="st9" d="M344.7,237.3c3.2,0,3.2-5,0-5C341.4,232.3,341.4,237.3,344.7,237.3L344.7,237.3z"/>
				</g>
			</g>
			<g>
				<g>
					<path class="st9" d="M353.6,171.4c3.2,0,3.2-5,0-5C350.4,166.4,350.4,171.4,353.6,171.4L353.6,171.4z"/>
				</g>
			</g>
			<g>
				<g>
					<path class="st9" d="M363.7,147.9c3.2,0,3.2-5,0-5C360.4,142.9,360.4,147.9,363.7,147.9L363.7,147.9z"/>
				</g>
			</g>
			<g>
				<g>
					<path class="st9" d="M307.2,158.5c3.2,0,3.2-5,0-5C304,153.5,304,158.5,307.2,158.5L307.2,158.5z"/>
				</g>
			</g>
			<g>
				<g>
					<path class="st9" d="M295.5,167.5c3.2,0,3.2-5,0-5C292.3,162.5,292.3,167.5,295.5,167.5L295.5,167.5z"/>
				</g>
			</g>
			<g>
				<g>
					<path class="st9" d="M455.9,286.5c3.2,0,3.2-5,0-5C452.6,281.5,452.6,286.5,455.9,286.5L455.9,286.5z"/>
				</g>
			</g>
			<g>
				<g>
					<path class="st9" d="M424.6,291c3.2,0,3.2-5,0-5C421.3,285.9,421.3,291,424.6,291L424.6,291z"/>
				</g>
			</g>
			<g>
				<g>
					<path class="st9" d="M392.7,339c3.2,0,3.2-5,0-5C389.5,334,389.5,339,392.7,339L392.7,339z"/>
				</g>
			</g>
			<g>
				<g>
					<path class="st9" d="M353.6,344.6c3.2,0,3.2-5,0-5C350.4,339.6,350.4,344.6,353.6,344.6L353.6,344.6z"/>
				</g>
			</g>
			<g>
				<g>
					<path class="st9" d="M311.1,352.4c3.2,0,3.2-5,0-5C307.9,347.4,307.9,352.4,311.1,352.4L311.1,352.4z"/>
				</g>
			</g>
			<g>
				<g>
					<path class="st9" d="M514.5,239.6c3.2,0,3.2-5,0-5C511.3,234.5,511.3,239.6,514.5,239.6L514.5,239.6z"/>
				</g>
			</g>
			<g>
				<g>
					<path class="st9" d="M485.5,201c3.2,0,3.2-5,0-5C482.2,196,482.2,201,485.5,201L485.5,201z"/>
				</g>
			</g>
			<g>
				<g>
					<path class="st9" d="M450.8,188.2c3.2,0,3.2-5,0-5C447.6,183.1,447.6,188.2,450.8,188.2L450.8,188.2z"/>
				</g>
			</g>
			<g>
				<g>
					<path class="st9" d="M286.6,246.8c3.2,0,3.2-5,0-5C283.3,241.8,283.3,246.8,286.6,246.8L286.6,246.8z"/>
				</g>
			</g>
			<g>
				<g>
					<path class="st9" d="M252.5,242.9c3.2,0,3.2-5,0-5C249.2,237.9,249.2,242.9,252.5,242.9L252.5,242.9z"/>
				</g>
			</g>
			<g>
				<g>
					<path class="st9" d="M234,234c3.2,0,3.2-5,0-5C230.8,228.9,230.8,234,234,234L234,234z"/>
				</g>
			</g>
			<g>
				<g>
					<path class="st9" d="M247.4,303.8c3.2,0,3.2-5,0-5C244.2,298.8,244.2,303.8,247.4,303.8L247.4,303.8z"/>
				</g>
			</g>
			<g>
				<g>
					<path class="st9" d="M274.3,335.1c3.2,0,3.2-5,0-5C271,330.1,271,335.1,274.3,335.1L274.3,335.1z"/>
				</g>
			</g>
			<g>
				<g>
					<path class="st9" d="M359.2,365.8c3.2,0,3.2-5,0-5C356,360.8,356,365.8,359.2,365.8L359.2,365.8z"/>
				</g>
			</g>
			<g>
				<g>
					<path class="st9" d="M358.1,389.9c3.2,0,3.2-5,0-5C354.8,384.8,354.8,389.9,358.1,389.9L358.1,389.9z"/>
				</g>
			</g>
			<g>
				<g>
					<path class="st9" d="M386,370.3c3.2,0,3.2-5,0-5C382.8,365.3,382.8,370.3,386,370.3L386,370.3z"/>
				</g>
			</g>
			<g>
				<g>
					<path class="st9" d="M407.8,158c3.2,0,3.2-5,0-5C404.6,153,404.6,158,407.8,158L407.8,158z"/>
				</g>
			</g>
			<g>
				<g>
					<path class="st9" d="M463.1,177c3.2,0,3.2-5,0-5C459.9,172,459.9,177,463.1,177L463.1,177z"/>
				</g>
			</g>
			<g>
				<g>
					<path class="st9" d="M313.9,195.4c3.2,0,3.2-5,0-5C310.7,190.4,310.7,195.4,313.9,195.4L313.9,195.4z"/>
				</g>
			</g>
			<g>
				<g>
					<path class="st9" d="M267,193.2c3.2,0,3.2-5,0-5C263.8,188.2,263.8,193.2,267,193.2L267,193.2z"/>
				</g>
			</g>
			<g>
				<g>
					<path class="st9" d="M274.8,217.2c3.2,0,3.2-5,0-5C271.6,212.2,271.6,217.2,274.8,217.2L274.8,217.2z"/>
				</g>
				<g>
					<g>
						<path class="st9" d="M234.6,255.6c1.6,0,1.6-2.5,0-2.5C233,253.1,233,255.6,234.6,255.6L234.6,255.6z"/>
					</g>
				</g>
			</g>
			<g>
				<g>
					<path class="st9" d="M236.3,281.3c1.6,0,1.6-2.5,0-2.5C234.7,278.8,234.7,281.3,236.3,281.3L236.3,281.3z"/>
				</g>
			</g>
			<g>
				<g>
					<path class="st9" d="M269.2,275.7c1.6,0,1.6-2.5,0-2.5C267.6,273.2,267.6,275.7,269.2,275.7L269.2,275.7z"/>
				</g>
			</g>
			<g>
				<g>
					<path class="st9" d="M302.2,305.9c1.6,0,1.6-2.5,0-2.5C300.6,303.4,300.6,305.9,302.2,305.9L302.2,305.9z"/>
				</g>
			</g>
			<g>
				<g>
					<path class="st9" d="M350.8,266.2c1.6,0,1.6-2.5,0-2.5C349.2,263.7,349.2,266.2,350.8,266.2L350.8,266.2z"/>
				</g>
			</g>
			<g>
				<g>
					<path class="st9" d="M399.3,184c3.2,0,3.2-5,0-5C396.1,178.9,396,184,399.3,184L399.3,184z"/>
				</g>
			</g>
			<g>
				<g>
					<path class="st9" d="M376.7,315.6c3.2,0,3.2-5,0-5C373.4,310.5,373.4,315.6,376.7,315.6L376.7,315.6z"/>
				</g>
			</g>
			<g>
				<g>
					<path class="st9" d="M320.9,329.8c3.2,0,3.2-5,0-5C317.7,324.8,317.7,329.8,320.9,329.8L320.9,329.8z"/>
				</g>
			</g>
			<g>
				<g>
					<path class="st9" d="M322.6,267.4c3.2,0,3.2-5,0-5C319.4,262.3,319.4,267.4,322.6,267.4L322.6,267.4z"/>
				</g>
			</g>
			<g>
				<g>
					<path class="st9" d="M251.4,212c3.2,0,3.2-5,0-5C248.1,207,248.1,212,251.4,212L251.4,212z"/>
				</g>
			</g>
			<g>
				<g>
					<path class="st9" d="M336.4,156.7c3.2,0,3.2-5,0-5C333.2,151.7,333.2,156.7,336.4,156.7L336.4,156.7z"/>
				</g>
			</g>
			<g>
				<g>
					<path class="st9" d="M479.3,286.2c3.2,0,3.2-5,0-5C476.1,281.2,476.1,286.2,479.3,286.2L479.3,286.2z"/>
				</g>
			</g>
			<g>
				<g>
					<path class="st9" d="M500.7,270.7c3.2,0,3.2-5,0-5C497.5,265.7,497.5,270.7,500.7,270.7L500.7,270.7z"/>
				</g>
			</g>
			<g>
				<g>
					<path class="st9" d="M504.9,216.2c3.2,0,3.2-5,0-5C501.7,211.2,501.7,216.2,504.9,216.2L504.9,216.2z"/>
				</g>
			</g>
			<g>
				<g>
					<path class="st9" d="M381.3,349.9c3.2,0,3.2-5,0-5C378,344.9,378,349.9,381.3,349.9L381.3,349.9z"/>
				</g>
			</g>
			<g>
				<g>
					<path class="st9" d="M264.8,311.4c3.2,0,3.2-5,0-5C261.5,306.3,261.5,311.4,264.8,311.4L264.8,311.4z"/>
				</g>
			</g>
			<g>
				<g>
					<path class="st9" d="M284.9,180.2c3.2,0,3.2-5,0-5C281.6,175.2,281.6,180.2,284.9,180.2L284.9,180.2z"/>
				</g>
			</g>
		</g>
	</g>
</g>
<g id="Luci_x5F_CERVELLO">
	<g class="st13">
		
			<image style="overflow:visible;" width="90" height="90" xlink:href="51DFA6B22B80C1C1.png"  transform="matrix(1 0 0 1 298.5353 189)">
		</image>
	</g>
	<g class="st13">
		
			<image style="overflow:visible;" width="88" height="89" xlink:href="51DFA6B22B80C1C3.png"  transform="matrix(1 0 0 1 263.5353 111)">
		</image>
	</g>
	<g class="st13">
		
			<image style="overflow:visible;" width="96" height="97" xlink:href="51DFA6B22B80C1C6.png"  transform="matrix(1 0 0 1 351.5353 134)">
		</image>
	</g>
	<g class="st13">
		
			<image style="overflow:visible;" width="96" height="96" xlink:href="51DFA6B22B80C1C7.png"  transform="matrix(1 0 0 1 186.5353 183)">
		</image>
	</g>
	<g class="st13">
		
			<image style="overflow:visible;" width="97" height="97" xlink:href="51DFA6B22B80C1C2.png"  transform="matrix(1 0 0 1 431.5353 236)">
		</image>
	</g>
	<g class="st14">
		
			<image style="overflow:visible;" width="128" height="127" xlink:href="51DFA6B22B80C1CD.png"  transform="matrix(1 0 0 1 279.5353 171)">
		</image>
	</g>
	<g class="st14">
		
			<image style="overflow:visible;" width="109" height="108" xlink:href="51DFA6B22B80C1CE.png"  transform="matrix(1 0 0 1 368.5353 235)">
		</image>
	</g>
	<g class="st14">
		
			<image style="overflow:visible;" width="108" height="109" xlink:href="51DFA6B22B80C1CF.png"  transform="matrix(1 0 0 1 303.5353 334)">
		</image>
	</g>
	<g class="st13">
		
			<image style="overflow:visible;" width="97" height="96" xlink:href="51DFA6B22B80C1C4.png"  transform="matrix(1 0 0 1 437.5353 151)">
		</image>
	</g>
	<g class="st13">
		
			<image style="overflow:visible;" width="97" height="96" xlink:href="D55317C0499C00FA.png"  transform="matrix(1 0 0 1 225.5353 285)">
		</image>
	</g>
	<g class="st13">
		
			<image style="overflow:visible;" width="86" height="85" xlink:href="D55317C0499C00FD.png"  transform="matrix(1 0 0 1 258.5353 263)">
		</image>
	</g>
	<g class="st13">
		
			<image style="overflow:visible;" width="98" height="98" xlink:href="D55317C0499C00FE.png"  transform="matrix(1 0 0 1 313.5353 97)">
		</image>
	</g>
	<g class="st13">
		
			<image style="overflow:visible;" width="86" height="85" xlink:href="D55317C0499C00FC.png"  transform="matrix(1 0 0 1 370.5353 223)">
		</image>
	</g>
</g>
<g id="Luci_x5F_SX" class="st15">
	<g id="Luci_SX" class="st16">
		<g class="st17">
			
				<image style="overflow:visible;" width="82" height="82" xlink:href="D55317C0499C00FB.png"  transform="matrix(1 0 0 1 24.5353 190)">
			</image>
		</g>
		<g class="st17">
			
				<image style="overflow:visible;" width="82" height="82" xlink:href="D55317C0499C00E5.png"  transform="matrix(1 0 0 1 113.5353 104)">
			</image>
		</g>
		<g class="st17">
			
				<image style="overflow:visible;" width="82" height="82" xlink:href="D55317C0499C00E6.png"  transform="matrix(1 0 0 1 117.5353 308)">
			</image>
		</g>
		<g class="st17">
			
				<image style="overflow:visible;" width="82" height="82" xlink:href="D55317C0499C00E4.png"  transform="matrix(1 0 0 1 168.5353 251)">
			</image>
		</g>
		<g class="st17">
			
				<image style="overflow:visible;" width="82" height="83" xlink:href="D55317C0499C00EA.png"  transform="matrix(1 0 0 1 171.5353 111)">
			</image>
		</g>
		<g class="st17">
			
				<image style="overflow:visible;" width="82" height="82" xlink:href="D55317C0499C00ED.png"  transform="matrix(1 0 0 1 -3.4647 107)">
			</image>
		</g>
		<g class="st17">
			
				<image style="overflow:visible;" width="82" height="83" xlink:href="D55317C0499C0101.png"  transform="matrix(1 0 0 1 183.5353 283)">
			</image>
		</g>
		<g class="st17">
			
				<image style="overflow:visible;" width="82" height="82" xlink:href="D55317C0499C0103.png"  transform="matrix(1 0 0 1 11.5353 298)">
			</image>
		</g>
	</g>
</g>
<g id="Luci_x5F_DX" class="st18">
	
		<image style="display:inline;overflow:visible;" width="339" height="346" xlink:href="D55317C0499C0100.png"  transform="matrix(1 0 0 1 416.5353 71)">
	</image>
</g>
</svg>
