<?xml version="1.0" encoding="UTF-8" standalone="no"?><!DOCTYPE svg PUBLIC "-//W3C//DTD SVG 1.1//EN" "http://www.w3.org/Graphics/SVG/1.1/DTD/svg11.dtd"><svg width="100%" height="100%" viewBox="0 0 32988 10417" version="1.1" xmlns="http://www.w3.org/2000/svg" xmlns:xlink="http://www.w3.org/1999/xlink" xml:space="preserve" xmlns:serif="http://www.serif.com/" style="fill-rule:evenodd;clip-rule:evenodd;stroke-linejoin:round;stroke-miterlimit:2;"><path d="M34519.1,586.379l-0,-40.162l-11832.1,-0l-1268.54,737.391c-3.489,-6.425 -8.722,-11.245 -12.215,-16.066c-22.684,-24.096 -54.091,-36.95 -92.479,-36.95c-34.895,-0 -64.561,11.246 -87.241,32.133l-1514.57,-584.775l-59.328,-14.458l-22.685,-8.034l5.237,4.821l-554.878,-126.917l1566.91,0l460.65,-403.233l13413,0l0,-40.162l-13434,-0l-460.655,403.233l-1723.95,0l-26.173,-6.425c-17.447,-35.342 -54.091,-61.046 -108.182,-61.046c-43.625,0 -76.776,17.671 -95.972,43.375l-666.544,-17.671l-1146.4,-332.55l0,-3.212c0,-57.838 -41.876,-115.671 -122.141,-115.671c-38.383,0 -69.798,12.854 -92.479,36.95c-19.196,20.883 -29.666,49.8 -29.666,78.721c-0,9.637 1.753,19.275 3.493,28.917l-1031.23,277.925c-19.191,-30.521 -54.091,-51.409 -102.949,-51.409c-38.388,0 -69.794,12.854 -92.483,36.95c-13.955,14.459 -22.685,32.134 -27.913,51.409l-1104.52,85.145c-8.722,-49.8 -48.858,-96.391 -120.397,-96.391c-38.392,-0 -69.798,12.854 -92.483,36.95c-10.466,9.641 -17.443,22.491 -22.68,35.345l-3453.14,0l-499.042,-483.562l-6.982,-6.425l-10062.8,-0l-0,40.162l10043.6,0l506.016,489.988l3470.6,-0l0,3.212c0,20.884 5.233,41.771 15.703,59.442l-85.501,59.442l-3683.47,-0l-415.285,-401.629l-6.977,-6.425l-9844.71,-0l0,40.162l9825.52,0l415.281,401.629l6.982,6.425l3645.08,0l-129.123,89.967l-3590.99,0l-415.286,-371.108l-6.981,-6.425l-9750.43,-0l0,40.162l9733.03,0l415.286,371.104l6.981,6.43l3364.15,-0c-3.489,3.212 -5.237,4.816 -8.722,8.033c-19.2,20.883 -29.666,49.8 -29.666,78.717c0,24.1 6.982,46.591 20.941,67.475l-8.726,6.425l12.21,-3.213c1.744,1.608 1.744,3.213 3.497,3.213l-12.214,12.854l-13495,-0l-0,40.162l13456.7,0l-291.4,305.238c-15.707,-6.425 -31.406,-9.638 -52.351,-9.638c-66.301,0 -106.433,40.163 -118.652,86.75l-1088.81,0l-211.135,-231.337l-11696,-0l0,40.162l11675.1,0l211.136,231.338l1106.26,-0c-0,8.033 1.744,14.458 3.489,22.491l-629.906,422.517c-19.196,-14.458 -43.62,-22.492 -75.031,-22.492c-38.388,0 -69.799,12.85 -92.483,36.95c-8.718,9.638 -15.699,19.275 -19.192,30.521l-813.119,0l-588.028,-398.417l-3.493,-1.604l-10776.4,0l0,40.163l10762.5,-0l589.777,400.025l816.612,-0l0,8.029c0,22.492 6.982,44.983 19.187,62.654l-561.85,629.758c-15.708,-6.429 -33.155,-11.245 -54.096,-11.245c-38.383,-0 -69.794,12.85 -92.474,36.95c-19.197,20.883 -29.667,49.8 -29.667,78.716l0,8.034l-1430.81,-0l-420.523,-285.959l-9596.89,0l-0,40.163l9582.93,-0l420.527,285.958l1456.98,0c3.497,8.034 8.73,16.067 13.959,24.1l-95.968,118.884l-3343.21,-0l-193.688,178.32l-7843.33,0l-0,40.163l7860.78,-0l193.684,-178.321l3294.36,0l-221.602,284.354l-2934.91,0l-211.14,194.388l-7979.39,-0l0,40.162l7998.58,0l211.127,-194.387l2884.31,-0l-235.561,292.383c-20.94,-17.671 -47.114,-28.917 -83.757,-28.917c-59.324,0 -97.712,32.13 -113.415,72.296l-10661.3,0l-0,40.163l10652.6,-0l0,3.212c0,57.834 41.872,115.667 122.137,115.667l5.237,-0l0,793.621c-29.662,8.033 -45.365,33.737 -45.365,59.441c0,27.313 17.447,54.621 50.598,61.05l78.52,965.517c-13.959,3.213 -26.173,9.638 -34.895,19.279c-8.726,9.638 -13.959,22.492 -15.707,36.95l-10811.4,0l-0,40.163l10821.8,-0c10.47,16.062 29.662,28.916 55.839,28.916l5.233,0l3.489,38.555l10.47,-25.705l403.071,743.821c-19.192,20.883 -29.662,49.8 -29.662,78.717l-0,8.033l-1102.78,0l-486.823,-449.825l-3.493,-3.212l-9677.17,-0l0,40.162l9659.77,0l486.824,449.825l3.489,3.213l1130.69,-0c17.451,36.95 54.095,67.475 111.67,67.475c47.119,-0 80.265,-20.884 101.21,-48.196l575.818,229.733c-1.749,8.034 -1.749,14.458 -1.749,22.492l0,8.033l-2233.47,0l-272.2,-250.617l-9562.04,0.001l0,40.162l9542.86,-0l272.204,250.617l2259.64,-0c17.452,36.95 54.096,67.47 111.675,67.47c8.726,0 19.192,-1.604 27.918,-3.212l169.255,395.204l-1870.53,0l-212.876,199.208l-10301.8,0l-0,40.163l10319.3,-0l212.876,-195.996l1870.52,0l153.552,358.254c-34.9,20.888 -54.091,59.442 -54.091,98c-0,57.834 41.876,115.667 122.141,115.667c50.602,-0 87.246,-24.096 106.442,-56.225l1015.53,440.183l-1607.05,0l-239.049,-220.091l-11900.2,-0l-0,40.162l11882.7,0l239.053,220.092l1706.51,-0l-0,-4.817l376.893,163.863c-3.489,11.245 -5.229,22.491 -5.229,35.345l-0,8.034l-14199.9,-0l-0,40.162l14210.4,0c17.452,36.95 54.095,67.471 111.671,67.471c38.387,0 69.802,-12.85 92.487,-36.95c19.188,-20.883 29.662,-49.8 29.662,-78.717l0,-4.82l1711.74,-300.421c10.466,48.196 50.598,89.966 118.653,89.966c10.465,0 20.936,-1.608 29.666,-3.212l183.209,677.95c-50.602,17.671 -76.776,62.654 -76.776,109.246c0,49.8 31.407,101.208 94.228,114.062l-0,957.484l1179.55,-793.621c19.191,16.066 47.114,27.312 82.008,27.312c38.388,0 69.795,-12.854 92.479,-36.95c19.197,-20.887 29.662,-49.804 29.662,-78.721c0,-38.554 -19.191,-77.112 -55.831,-99.604l240.789,-1098.86l16443.9,-0l0,-40.163l-16360.1,0c24.433,-22.491 38.392,-54.62 38.392,-86.754c-0,-30.521 -10.475,-57.833 -29.666,-78.716c-22.685,-24.1 -54.096,-36.95 -92.484,-36.95c-24.424,-0 -45.365,4.816 -62.812,14.458l-572.33,-828.963c12.219,-19.279 17.452,-40.166 17.452,-64.262c-0,-11.246 -1.745,-20.883 -3.493,-32.129l1976.97,-955.879c17.447,35.341 54.091,62.654 109.926,62.654c55.836,-0 92.479,-27.313 109.931,-64.263l1530.27,1294.85l6.981,4.821l1914.15,0l629.905,419.3l10786.9,0l0,-40.162l-10773,-0l-624.677,-414.479l-5.228,-3.217l-1912.4,-0l-1542.48,-1306.1l-0,-6.429c-0,-9.638 -1.744,-17.671 -3.498,-27.308l509.513,-59.442l1371.49,1092.43l6.977,4.817l1488.39,-0l741.584,543.004l5.229,4.821l10736.4,-0l-0,-40.163l-10720.6,0l-741.576,-543.004l-5.237,-4.821l-1486.65,0l-1334.84,-1063.51l633.394,-73.9c8.726,49.8 50.602,94.783 120.401,94.783c33.146,0 59.324,-9.641 78.52,-25.704l1039.96,873.946l6.982,4.821l1031.23,-0l813.119,594.408l5.237,4.821l10565.4,-0l0,-40.163l-10553.1,0l-813.123,-594.412l-5.242,-4.821l-1029.48,0l-1034.72,-870.729c8.726,-16.067 13.959,-33.738 15.703,-53.017l837.548,0c8.721,51.409 48.862,96.392 120.396,96.392c38.388,-0 69.799,-12.854 92.484,-36.95c6.981,-6.425 12.21,-14.458 17.447,-24.1l1612.28,-0l1374.97,901.258l5.237,3.213l9356.09,-0l-0,-40.163l-9342.13,0l-1374.97,-901.258l-5.237,-3.213l-1617.52,0c-0,-4.816 1.748,-9.637 1.748,-16.062c0,-12.854 -1.748,-25.704 -6.977,-38.558l298.373,-199.209l1535.51,0l1282.5,873.946l9226.96,0l-0,-36.95l-9211.31,0l-1277.26,-869.125l-5.238,-3.212l-1490.14,-0l430.988,-285.963c19.192,14.458 45.365,22.492 76.776,22.492c66.305,-0 106.438,-40.163 118.652,-86.75l11357.5,-9.642l-0,-40.162l-11355.8,9.637c-1.744,-25.704 -12.215,-49.8 -29.662,-67.471c-3.489,-4.821 -8.726,-8.033 -12.215,-11.246l226.835,-486.775l1694.29,0l1453.5,-878.766l8023.04,-0l0,-40.163l-8033.51,0l-1453.5,878.767l-1662.88,-0l118.652,-253.833l1462.22,-0l1409.87,-841.813l8160.84,0l0,-40.162l-8173.09,-0l-1411.62,840.208l-1430.81,-0l137.845,-295.6c10.47,3.212 22.684,4.821 34.894,4.821c66.306,-0 106.443,-40.167 118.653,-86.754l1012.04,-0l1380.21,-849.846l8330.12,-0l0,-40.167l-8342.34,0l-1380.21,849.85l-994.588,0c-5.238,-54.621 -45.365,-106.029 -122.146,-106.029c-6.977,-0 -13.954,-0 -20.936,1.604l-338.509,-787.192c22.685,-19.279 34.899,-48.195 38.388,-77.112l991.099,-0l1380.21,-1111.71l8790.75,0l0,-40.162l-8808.24,-0l-1380.22,1111.71l-977.136,0c-12.215,-46.591 -52.347,-86.754 -118.652,-86.754c-22.685,0 -43.626,4.821 -61.073,14.459l-443.203,-332.55l1497.12,-0l1345.31,-1100.46l8947.79,0l-0,-40.162l-8965.27,-0l-1345.32,1100.46l-1533.76,0l-212.876,-159.046l0,-4.816l1589.59,-0l1380.22,-1132.6l9085.67,-0l-0,-40.163l-9103.12,0l-1380.21,1132.59l-1577.39,-0c-13.959,-43.375 -52.347,-80.325 -116.908,-80.325c-5.233,-0 -12.21,-0 -17.452,1.608l-683.992,-671.525l1183.04,-697.229l11694.3,0l-0,-40.162l-11708.2,-0l-1202.23,706.866l-176.24,-173.504c1.753,-9.637 3.497,-17.671 3.497,-27.308c0,-8.034 0,-16.067 -1.744,-24.1l1266.79,-737.392l11819.9,0l-0.135,0l0.013,0Zm-10933.5,3331.92c-10.466,11.246 -19.192,25.704 -24.425,40.162l-916.067,-125.308l532.188,-718.112c15.708,6.425 34.9,11.241 55.84,11.241c10.466,0 19.192,-1.604 27.918,-3.212l336.765,783.983c-3.489,3.213 -6.982,6.425 -12.219,11.246Zm-635.138,1318.95c-1.744,1.608 -3.489,3.212 -5.237,6.425l-1313.9,-944.629l-0,-1.609l966.67,-435.366l3.493,27.312l10.466,-12.854l382.134,1331.8c-17.452,6.425 -31.41,16.067 -43.625,28.917Zm-1364.51,-3627.52l3.493,-1.608l677.015,663.492c-5.229,4.82 -10.471,9.641 -15.704,14.458l-1381.95,-488.379c-3.484,-20.888 -13.959,-40.163 -27.918,-56.229l29.662,-20.884l380.391,-271.504c17.447,9.642 38.383,14.458 62.812,14.458c40.128,0 69.794,-14.458 90.735,-35.341l169.254,167.079l12.215,14.458Zm1045.19,963.909l499.038,374.32c-10.466,17.671 -17.452,38.555 -17.452,61.046c0,30.525 12.215,61.05 34.899,81.934l-518.234,698.837l-202.41,-1339.84c1.745,-1.609 5.242,-4.821 6.982,-6.425c3.493,-3.217 6.977,-8.034 8.726,-11.246l172.748,130.125l-0,11.246l15.703,-0Zm-6063.53,6882.33c22.685,-4.817 41.881,-16.063 57.58,-32.129c19.196,-20.883 29.662,-49.8 29.662,-78.717l-0,-9.641l991.099,179.929c-1.74,6.429 -1.74,12.854 -1.74,19.279c0,12.854 1.74,27.312 6.977,40.162l-1083.58,729.359l0,-848.242Zm3139.06,-8718.58l970.163,988.008c-12.21,8.033 -22.685,17.671 -29.662,28.917l-2149.71,-130.125c-1.744,-12.855 -6.982,-25.705 -13.959,-36.95l1212.7,-851.455l10.466,1.605Zm1874.02,3574.5l-584.54,1556.72c-5.238,0 -10.471,-1.608 -15.703,-1.608c-12.215,0 -24.43,1.608 -34.9,4.821l-122.145,-187.963l-879.424,-1355.9c12.219,-9.641 19.196,-22.491 22.68,-36.95l539.175,6.425l1074.86,14.459Zm-8858.83,3656.44l368.167,-326.125l809.63,-719.721c5.238,0.001 8.726,1.609 13.959,1.609c10.475,-0 20.94,-1.609 27.922,-4.821l746.818,814.504c-19.201,16.067 -29.667,38.558 -34.904,61.05l-985.862,104.421l-928.287,98c-3.488,-11.246 -10.47,-20.883 -17.443,-28.917Zm4493.12,-753.458l-1432.56,332.55l-903.858,210.454c-19.192,-32.129 -54.091,-54.621 -104.693,-54.621c-17.448,0 -33.147,3.213 -47.11,8.029l-750.301,-816.108c1.744,-1.608 1.744,-3.212 3.488,-6.429l3238.52,310.058c-3.488,6.429 -3.488,11.246 -3.488,16.067Zm-4751.37,-1682.03l696.211,-1116.53c10.466,1.604 20.936,3.212 33.15,3.212c55.836,0 92.479,-28.916 109.931,-65.866l1450.01,747.029c-15.707,20.887 -24.429,46.592 -24.429,70.687l-2264.87,361.467Zm851.507,-1227.38l-0,-8.034l2435.87,-355.041c8.722,22.491 22.681,41.771 43.621,56.229l-867.214,1082.79c-19.192,-14.459 -45.365,-24.096 -76.771,-24.096c-34.904,-0 -62.822,11.246 -83.758,28.916l-1456.99,-750.245c3.489,-9.638 5.238,-20.884 5.238,-30.521Zm2458.55,-481.959c-19.196,20.888 -29.662,49.805 -29.662,78.721l-2437.62,355.042c-5.238,-14.458 -15.703,-27.313 -26.174,-38.558l1156.87,-1977.62c5.237,-0 10.466,1.608 17.447,1.608c22.681,-0 43.621,-4.821 59.324,-12.854l1285.99,1572.78c-10.466,6.425 -19.192,12.854 -26.173,20.883Zm-820.101,1286.83l877.685,-1095.64c10.47,3.212 20.936,4.816 33.146,4.816c10.475,0 20.945,-1.604 29.666,-3.212l87.246,501.233l104.694,599.233c-17.448,11.246 -29.666,27.309 -34.899,44.984l-1085.32,-17.675c0,-12.85 -5.233,-24.096 -12.215,-33.734Zm-1031.24,1683.63c-15.704,-3.213 -33.147,-0 -47.105,6.425l-1413.37,-1241.84l2268.36,-359.858c6.977,33.733 27.917,64.258 62.817,80.325l-870.707,1514.95Zm-1270.28,-3627.52c24.429,-0 45.37,-4.821 62.821,-14.463l427.496,1045.85c-31.406,11.246 -54.091,35.342 -64.557,62.654l-1331.36,-123.7c-0,-12.854 -1.745,-25.708 -6.978,-36.95l868.954,-939.816c13.959,4.821 27.918,6.429 43.621,6.429Zm3212.35,620.112c-15.699,0 -31.402,1.609 -43.621,6.43l-1285.98,-1577.61c26.177,-22.491 40.132,-54.62 40.132,-88.358c-0,-6.425 -0,-12.85 -1.744,-19.275l1603.56,-930.175c15.708,22.492 38.393,38.554 69.799,44.983l-347.235,2567.22c-10.471,-1.608 -22.685,-3.217 -34.904,-3.217Zm-1493.62,-1569.57c5.233,4.821 12.215,9.637 19.192,12.85l-1149.88,1966.38c-13.959,-4.817 -29.666,-8.029 -47.114,-8.029l-1.744,-0l-437.97,-1068.34c13.963,-19.279 22.685,-43.375 22.685,-69.079c-0,-11.246 -1.74,-20.883 -5.238,-32.129l800.909,-401.629l799.164,-400.025Zm1769.32,2885.31c-5.233,0 -8.726,0 -13.955,1.604l-193.688,-1102.07c33.155,-20.883 50.603,-54.62 54.096,-91.57l1647.18,-208.846c1.745,3.212 3.489,6.425 6.982,8.029l-1458.74,1400.89c-10.465,-4.82 -26.169,-8.033 -41.876,-8.033Zm-4398.89,-926.962l1329.62,123.704l0,4.816c0,36.95 17.443,72.296 48.849,94.788l-694.462,1113.32l-704.941,-1299.67c8.726,-9.638 15.708,-22.492 20.937,-36.95Zm4468.7,954.27c-1.744,-3.212 -5.237,-4.816 -8.726,-6.424l1456.99,-1400.88c8.726,4.821 19.192,8.034 31.402,8.034c5.242,-0 8.73,-0 13.967,-1.609l1214.44,1452.29l-2690.63,-20.883c-3.484,-11.246 -10.462,-22.492 -17.443,-30.525Zm1477.92,-1526.19c-19.192,-0 -36.644,6.425 -48.854,19.279c-10.47,11.246 -15.712,24.096 -15.712,38.554l-1640.2,208.85c-1.744,-8.033 -5.233,-14.458 -8.721,-20.887l2320.71,-2117.39c6.981,6.429 15.698,11.246 24.424,16.067l-631.649,1855.53Zm568.837,-1982.44c-1.745,6.425 -1.745,14.458 -1.745,22.488c0,24.1 6.978,49.804 22.685,69.083l-2318.96,2112.57c-8.725,-11.246 -20.94,-19.279 -34.903,-25.704l348.979,-2573.64l1.749,-0c62.813,-0 102.945,-36.95 116.904,-80.329l1744.9,443.4l120.397,32.133Zm-2100.85,-496.417c-0,6.425 1.744,12.855 3.488,19.28l-1600.07,926.962c-5.233,-8.033 -10.466,-16.067 -15.707,-22.492c-3.485,-3.212 -6.978,-6.429 -10.462,-9.641l94.219,-210.454l273.948,-610.475l961.438,-70.688l293.144,-22.492Zm-1785.03,4978.58l465.887,-812.896l13.959,-0c38.384,-0 69.794,-12.854 92.475,-36.95c17.452,-19.279 27.917,-43.375 29.666,-70.688l1078.34,17.671c0,4.821 1.749,9.642 3.493,14.459l-2081.66,1604.91c-1.739,-1.604 -1.739,-3.212 -3.484,-4.821l401.327,-711.687Zm4595.99,-934.992l-1216.19,-1453.9l2083.4,567.1l-0,4.821l-5.233,4.821l5.233,-0l-867.21,877.158Zm-1722.21,1967.98c-10.47,11.246 -19.191,25.705 -24.429,40.163l-3238.52,-311.663c-0,-8.033 -0,-14.458 -1.745,-22.491l2083.41,-1604.91c1.74,3.213 5.233,6.425 6.977,9.642c17.448,17.671 40.128,27.308 68.05,27.308c6.978,0 13.959,0 20.941,-1.604l1120.22,1837.85c-12.215,6.43 -24.429,14.459 -34.9,25.705Zm3437.44,-5216.38l-806.142,2302.14c-10.47,3.217 -19.192,8.033 -26.173,16.067c-1.749,1.608 -1.749,1.608 -3.489,3.212l-2092.13,-568.708l-0,-6.425c-0,-6.425 -1.744,-11.246 -3.489,-17.671l2882.56,-1780.03c12.214,20.887 27.917,38.558 48.858,51.412Zm-3283.89,5193.88c-17.448,-9.637 -38.388,-14.458 -62.817,-14.458c-12.215,0 -24.429,1.608 -34.899,4.821l-1120.22,-1836.25c29.662,-12.854 45.365,-38.558 50.603,-65.867l2694.11,19.279l-1228.41,1524.58l-298.373,367.891Zm3228.05,-5293.46c-0,9.638 1.749,19.275 3.497,28.917l-2884.31,1781.63c-1.744,-3.213 -3.497,-4.821 -5.237,-6.429c-3.489,-3.213 -6.977,-6.425 -10.466,-8.029l631.65,-1857.14c5.237,0 10.465,1.608 15.703,1.608c71.543,0 113.415,-48.195 120.396,-99.604l2132.27,130.125c-1.748,8.034 -3.497,19.279 -3.497,28.921Zm1694.3,658.671l-725.877,1792.88l-5.233,-3.212l1.74,3.212l-1631.48,-19.279c-1.744,-3.213 -3.484,-6.425 -5.233,-9.638l2325.94,-1778.42c10.475,8.033 24.434,12.85 40.137,14.458Zm-7689.75,-751.85l-130.867,292.387c-13.958,-4.82 -29.662,-8.033 -47.109,-8.033c-52.347,0 -87.246,24.096 -106.438,57.833l-1109.76,-562.283c1.749,-8.029 1.749,-16.062 1.749,-24.096l-0,-12.854l1619.26,-245.796l-226.843,502.842Zm-2100.85,1323.77c-0,32.129 12.21,64.262 36.643,85.146l-854.999,920.533c-10.47,-11.246 -24.429,-19.275 -38.388,-25.704l-73.287,-1086c45.365,-8.034 75.027,-38.559 87.246,-75.509l844.529,155.834c0,8.033 -1.744,17.671 -1.744,25.704Zm-83.762,2575.25c5.237,-4.821 6.982,-9.642 10.475,-16.067l1392.42,1220.95c-3.493,8.034 -5.237,17.671 -5.237,27.313l-1533.76,146.192c-8.726,-32.13 -31.411,-61.046 -68.05,-75.505l195.423,-1296.46c1.745,-1.608 5.238,-3.213 8.722,-6.425Zm3728.84,-4583.42c-10.462,12.854 -15.699,28.917 -19.187,46.592l-284.419,20.883l-938.752,69.079l492.056,-587.983c17.452,9.638 38.388,14.458 61.073,14.458c40.132,0 69.798,-14.458 90.73,-35.345l598.499,472.316Zm-3058.8,555.859c52.346,-0 87.25,-24.1 106.437,-57.838l1109.76,562.283c-1.748,8.034 -1.748,16.067 -1.748,24.096c-0,20.888 5.233,41.771 15.707,59.442l-1591.35,798.442c-6.977,-9.642 -15.703,-19.28 -26.169,-27.313l369.916,-1359.11l17.448,-0Zm1990.92,-689.2l-226.834,271.504l-29.662,-4.821l-1128.95,-197.6c1.748,-6.425 3.493,-12.854 3.493,-20.888l1645.43,-427.333c5.237,12.854 12.215,25.704 22.685,36.95l-286.163,342.188Zm-4165.06,4891.83l697.955,-1545.47c17.447,-1.604 33.155,-6.425 45.369,-12.85l696.211,1280.4c-17.452,3.212 -31.411,12.85 -40.137,25.704l-1395.91,265.075c-1.744,-6.425 -1.744,-9.642 -3.484,-12.854Zm3952.18,2027.43l-0,-9.642c-0,-8.033 -1.749,-17.67 -3.493,-25.704l162.277,-38.554l2165.41,-502.842c5.238,16.067 13.959,30.525 26.174,43.375l-411.797,477.138l-495.55,571.921c-17.443,-9.642 -38.383,-14.459 -62.812,-14.459c-31.411,0 -59.324,9.638 -80.265,27.309l-727.621,-295.6l-572.325,-232.942Zm2781.36,1625.8c-6.977,8.033 -12.214,16.067 -17.447,25.704l-1012.04,-184.75c-5.241,-12.854 -13.959,-25.704 -24.433,-35.342l141.337,-94.787l675.274,-448.217c17.448,38.554 54.092,69.079 111.676,69.079c5.232,0 10.465,0 17.447,-1.604l170.999,636.179c-26.178,4.821 -47.109,16.067 -62.817,33.738Zm1573.89,-4514.33l605.476,-612.084c10.47,9.638 26.178,14.459 43.621,14.459l5.237,-0l239.049,367.891l764.265,1175.97c-6.981,4.821 -13.959,9.642 -20.94,16.067c-1.745,1.604 -1.745,1.604 -3.489,3.212l-1886.23,-713.296l253.008,-252.22Zm-1736.17,3617.88c-22.685,4.821 -41.877,16.066 -55.84,32.129l-1062.64,-175.108c-5.237,-17.675 -12.218,-33.738 -26.177,-48.196l907.346,-1049.06c17.452,8.034 36.644,12.855 59.328,12.855l12.215,-0l165.766,1227.38Zm476.358,-8050.25l338.505,1026.57c-27.913,9.638 -47.114,28.917 -59.324,51.409l-1870.53,-477.138c0,-11.241 -1.744,-22.487 -5.233,-33.733l1589.6,-570.317l6.982,3.213Zm-4918.87,1084.4l-366.436,1351.08c-8.722,-3.212 -19.187,-6.425 -29.662,-8.033l-76.771,-192.779l-242.547,-607.267c40.137,-20.883 59.329,-61.046 59.329,-101.208c-0,-16.067 -3.485,-32.134 -10.466,-46.592l622.923,-419.3c12.215,9.637 27.922,19.279 43.63,24.096Zm-322.811,6443.75l1903.68,-200.813c3.484,30.525 20.936,61.046 48.854,80.325l-347.231,750.246c-8.731,-1.608 -19.196,-3.212 -29.667,-3.212c-36.639,-0 -66.305,12.85 -85.497,32.129l-1488.4,-647.429l0,-3.213c0,-3.212 0,-4.817 -1.744,-8.033Zm9471.3,-5671c0,27.308 10.475,56.229 29.667,77.112l-2320.71,1773.6l799.165,-2281.25c6.981,1.604 13.958,1.604 20.94,1.604c38.388,0 69.794,-12.85 92.479,-36.95c15.703,-17.671 26.173,-38.554 29.662,-62.654l1359.28,480.35c-6.977,16.067 -10.475,32.129 -10.475,48.196Zm-1024.25,-1050.66c-3.485,11.246 -5.233,20.884 -5.233,32.129c-0,27.313 10.47,54.621 27.917,77.113l-408.308,292.387l-3.484,3.213c-17.452,-8.033 -36.644,-12.854 -61.077,-12.854c-12.21,-0 -22.68,1.608 -33.151,3.216l-916.072,-931.783l1399.41,536.579Zm-1682.08,-498.021l-1052.17,738.996c-6.981,-6.425 -13.954,-11.246 -22.684,-14.458l190.195,-506.05l141.337,-377.533c36.644,-0 69.794,-12.855 90.735,-36.95c17.451,-19.28 27.917,-44.984 29.662,-72.296l755.543,173.504l-132.616,94.787Zm-865.465,-273.108c0,46.588 27.918,94.783 82.013,110.85l-328.048,875.55c-6.977,-1.604 -15.703,-1.604 -22.68,-1.604l-8.726,-0l-336.761,-1020.14l617.691,16.067c-3.489,6.425 -3.489,12.854 -3.489,19.279Zm-1931.6,-311.667l-408.303,766.313c-10.466,-1.608 -20.941,-3.217 -31.407,-3.217c-27.917,0 -52.346,6.429 -73.282,20.888l-605.481,-477.138c6.978,-14.458 10.47,-32.129 10.47,-48.196l0,-12.85l1039.95,-279.537c15.703,16.067 38.387,28.921 68.049,33.737Zm-3102.42,841.817l0,-12.85c41.872,-3.217 71.534,-20.887 90.735,-48.196l1069.62,186.354l-1547.71,236.159c-3.497,-8.034 -8.73,-16.067 -13.963,-22.492l322.806,-338.975l78.52,0Zm-1320.88,1076.37c8.722,-0 15.704,-0 24.425,-1.604l263.482,658.67l52.347,130.13c-27.917,3.212 -52.347,16.062 -71.547,35.341c-5.233,6.429 -10.466,12.854 -13.959,19.279l-275.688,-51.408l-575.818,-106.029l-0,-1.608c-0,-24.096 -6.978,-49.8 -22.681,-70.688l558.362,-626.542c17.452,9.642 36.644,14.459 61.077,14.459Zm-731.114,798.441l73.287,1076.37l-8.726,0c-38.387,0 -69.794,12.854 -92.479,36.95c-3.488,3.213 -5.232,6.425 -8.725,9.638l-631.654,-274.713c3.493,-11.246 5.241,-22.492 5.241,-33.737c0,-12.855 -1.748,-25.705 -5.241,-36.95l629.909,-787.196c10.47,4.821 24.429,8.033 38.388,9.641Zm-692.718,891.617c3.485,-3.212 6.978,-8.033 8.718,-11.246l197.172,86.754l432.737,187.963c-3.489,11.246 -5.237,24.096 -5.237,36.95c-0,27.308 10.47,56.225 27.922,77.112l-624.672,424.121l-62.817,41.767c-1.749,-1.604 -1.749,-1.604 -3.489,-3.213l0,-817.716c12.21,-6.425 20.941,-12.854 29.666,-22.492Zm1462.22,1752.71c1.74,8.033 3.485,14.458 6.978,22.491l-905.602,992.829c-12.215,-3.212 -24.429,-4.82 -38.388,-4.82c-13.959,-0 -26.174,1.608 -38.388,4.82l-408.304,-753.458l1383.7,-261.862Zm-860.236,1034.6l898.616,-986.4c6.985,1.605 13.967,3.213 20.944,4.821l-33.155,220.092l-158.784,1057.09l-6.977,0c-43.63,0 -76.776,17.671 -95.972,43.38l-581.052,-231.342c0,-4.817 1.749,-11.246 1.749,-16.063c0,-35.345 -15.708,-69.083 -45.369,-91.575Zm811.374,489.992c17.452,-19.279 27.918,-44.983 29.662,-72.296l15.703,-1.604l1530.27,-146.196c1.749,1.609 3.493,3.213 3.493,4.821l-1170.83,1041.03c-17.448,-9.642 -38.388,-16.067 -64.557,-16.067l-12.219,0l-343.738,-800.045c5.228,-3.213 8.721,-6.425 12.21,-9.638Zm2107.84,1561.53l347.226,-748.637c10.475,3.212 22.685,4.821 34.9,4.821c57.588,-0 95.967,-30.525 113.419,-69.079l261.738,106.029l1022.5,414.483c-5.228,9.638 -8.726,19.275 -12.21,28.917l-1727.44,303.629c-8.726,-16.063 -22.685,-30.521 -40.132,-40.163Zm2008.37,-224.912l764.265,126.917l272.204,44.983c-5.237,14.458 -8.726,28.917 -8.726,44.979l0,8.033l-382.13,253.83l-458.91,305.241c-10.471,-4.821 -24.429,-8.033 -38.388,-8.033l-186.702,-697.229c22.68,-20.884 36.643,-49.804 38.387,-78.721Zm1205.72,321.304c43.621,-19.279 66.306,-62.654 66.306,-104.425c-0,-30.521 -10.475,-57.833 -29.662,-78.717c-3.493,-3.212 -5.238,-6.425 -8.726,-8.033l373.408,-276.321c5.233,3.213 8.722,6.425 13.959,8.034l-242.542,1103.67l-172.743,-644.213Zm348.98,-565.496c-0,24.1 6.977,49.804 22.684,70.688l-380.39,281.141c-12.214,-4.82 -26.173,-6.425 -41.876,-8.033l-165.767,-1232.2c3.489,-1.604 5.238,-3.212 8.726,-3.212l574.066,828.962c-12.21,19.279 -17.443,40.167 -17.443,62.654Zm1010.29,-2975.27l539.17,827.359c-54.091,14.458 -83.753,62.654 -83.753,109.241l-1985.69,960.7l1530.27,-1897.3Zm582.795,824.146l-474.613,-727.754l-59.324,-89.967l460.65,173.505l1392.43,526.937c-1.748,3.217 -1.748,6.429 -3.497,9.642l-1230.15,144.587c-19.192,-20.887 -47.11,-35.346 -85.498,-36.95Zm-3201.88,-5046.08l57.579,-109.246l357.702,-671.525c41.881,-6.425 71.542,-28.917 87.246,-57.833l1080.09,313.271l-1549.47,555.854c-8.726,-12.85 -19.187,-22.492 -33.146,-30.521Zm-2622.58,-96.392l83.757,-57.837l13.959,-0l0,-9.638l258.241,-181.537c17.456,9.641 40.141,16.066 64.566,16.066c64.561,0 102.949,-36.95 116.908,-81.933l978.884,-75.504l-1516.32,393.596c1.749,-0 0,-1.609 0,-3.213Zm-2875.58,3863.68c15.698,-12.85 22.684,-30.521 22.684,-48.196c0,-6.425 -1.753,-11.245 -1.753,-17.67l696.215,-472.317c10.471,4.821 20.941,9.642 33.155,11.246l-673.53,1490.85l-76.771,-963.913Zm11518.1,-2300.53c8.722,-1.608 17.443,-3.213 26.169,-6.425l205.894,1362.33l-952.711,430.55l720.648,-1786.45Zm-1292.97,3426.7c-10.47,-9.637 -20.94,-19.279 -34.894,-24.096l574.065,-1527.8l424.007,1505.31c-27.918,4.816 -50.603,16.062 -68.046,35.341c-10.47,11.246 -19.2,25.704 -24.429,40.163l-853.255,-0c-3.489,-11.246 -8.726,-20.884 -17.448,-28.917Zm1069.62,-20.883c-19.192,-16.067 -47.114,-27.313 -80.265,-27.313l-430.988,-1532.62l1303.43,938.204c-8.721,16.066 -12.214,35.346 -12.214,54.621c-0,16.066 3.493,30.525 8.725,44.983l-788.689,522.121Zm900.365,-684.379c-6.982,-0 -13.959,-0 -20.941,1.608l-385.623,-1346.26l923.054,126.913c-0,4.821 -1.745,9.642 -1.745,14.458c0,30.525 12.215,59.442 33.151,81.934l-525.212,1122.96c-6.981,-1.608 -13.963,-1.608 -22.684,-1.608Zm-9345.66,-4334.38c-3.493,-3.213 -5.233,-6.425 -8.726,-8.034l20.936,0l-12.21,8.034Zm20802.6,-298.813l-3156.51,0l-0,-1.604l3156.51,-0l0,1.604Zm0,-456.25l-3156.51,0l-0,-1.608l3156.51,-0l0,1.608Zm0,8206.08l-3156.51,0l-0,-1.604l3156.51,0l0,1.604Zm0,-390.383l-3156.51,0l-0,-1.604l3156.51,-0l0,1.604Zm0,-213.667l-3156.51,0l-0,-1.608l3156.51,0l0,1.608Zm0,-178.325l-3156.51,0l-0,-1.604l3156.51,0l0,1.604Zm0,-620.116l-3156.51,-0l-0,-1.604l3156.51,-0l0,1.604Zm0,-324.517l-3156.51,0l-0,-1.604l3156.51,-0l0,1.604Zm0,-1272.36l-3156.51,3.216l-0,-1.608l3156.51,-3.213l0,1.605Zm0,-1476.39l-3156.51,0l-0,-1.608l3156.51,-0l0,1.608Zm0,-258.65l-3156.51,0l-0,-1.608l3156.51,-0l0,1.608Zm0,-424.121l-3156.51,0l-0,-1.608l3156.51,-0l0,1.608Zm0,-1269.15l-3156.51,0l-0,-1.608l3156.51,-0l0,1.608Zm0,-435.366l-3156.51,-0l-0,-1.609l3156.51,0l0,1.609Zm0,-236.159l-3156.51,0l-0,-1.608l3156.51,-0l0,1.608Zm0,-355.041l-3156.51,-0l-0,-1.605l3156.51,0l0,1.605Z" style="fill:#a1cae7;fill-rule:nonzero;"/></svg>