<?xml version="1.0" encoding="UTF-8" standalone="no"?><!DOCTYPE svg PUBLIC "-//W3C//DTD SVG 1.1//EN" "http://www.w3.org/Graphics/SVG/1.1/DTD/svg11.dtd"><svg width="100%" height="100%" viewBox="0 0 6601 6601" version="1.1" xmlns="http://www.w3.org/2000/svg" xmlns:xlink="http://www.w3.org/1999/xlink" xml:space="preserve" xmlns:serif="http://www.serif.com/" style="fill-rule:evenodd;clip-rule:evenodd;stroke-linejoin:round;stroke-miterlimit:2;"><g><path d="M1307.58,0c-1339.5,-440.952 -1889.81,169.541 -1307.58,1307.58l0,3985.12c0,722.209 585.417,1307.62 1307.58,1307.62l3985.08,0c722.125,0 1307.54,-585.416 1307.54,-1307.62l0,-3985.12c0,-597.606 -524.269,-1293.5 -1071.77,-1449.57c-114.116,-32.529 -111.219,141.984 -235.772,141.984l-3985.08,-0Z" style="fill:#0082c2;fill-rule:nonzero;"/><path d="M6600.25,5292.71l0,-3985.17c562.722,-1260.3 -723.403,-3630.33 -1068.25,-1284.71c93.375,1422.83 -52.125,5807.92 -5376.62,5888.04c220.625,410.25 653.792,689.333 1152.25,689.333l3985,0c722.208,0 1307.62,-585.375 1307.62,-1307.58" style="fill:#1f3b71;fill-rule:nonzero;"/></g></svg>