<?xml version="1.0" encoding="UTF-8" standalone="no"?><!DOCTYPE svg PUBLIC "-//W3C//DTD SVG 1.1//EN" "http://www.w3.org/Graphics/SVG/1.1/DTD/svg11.dtd"><svg width="100%" height="100%" viewBox="0 0 32988 10417" version="1.1" xmlns="http://www.w3.org/2000/svg" xmlns:xlink="http://www.w3.org/1999/xlink" xml:space="preserve" xmlns:serif="http://www.serif.com/" style="fill-rule:evenodd;clip-rule:evenodd;stroke-linejoin:round;stroke-miterlimit:2;"><g><g><path d="M4330.83,3117.61c-3890.21,201.387 -5904.25,3541.88 -5357.92,4975.92l1744.69,5736.42c546.325,1434.03 4144.54,2434.03 8034.75,2232.64l21471.5,-1112.85c3890.21,-201.392 6603,-1527.78 6051.96,-2961.81l-2618.55,-5178.91c-541.616,-1434.03 -6434.36,-6310.97 -10324.6,-6109.59l-19001.9,2418.2l-0.017,-0.026Z" style="fill:#ebeced;fill-rule:nonzero;"/></g><g><path d="M36280.6,11987.9l-2715.72,-8631.8c-485.096,-1270.83 -6832.5,-2601.12 -10195.2,-2656.68c688.675,1222.33 2874.58,8379.98 1877.15,10820c-1287.67,3150.01 -4209.26,2737.07 -20340,3663.57c1497.68,753.471 1161.02,1018.52 3845.55,877.896l21471.5,-1112.85c3894.92,-199.654 6603,-1524.3 6056.67,-2960.07" style="fill:#daddde;fill-rule:nonzero;"/></g></g></svg>