<?xml version="1.0" encoding="UTF-8" standalone="no"?><!DOCTYPE svg PUBLIC "-//W3C//DTD SVG 1.1//EN" "http://www.w3.org/Graphics/SVG/1.1/DTD/svg11.dtd"><svg width="100%" height="100%" viewBox="0 0 834 834" version="1.1" xmlns="http://www.w3.org/2000/svg" xmlns:xlink="http://www.w3.org/1999/xlink" xml:space="preserve" xmlns:serif="http://www.serif.com/" style="fill-rule:evenodd;clip-rule:evenodd;stroke-linejoin:round;stroke-miterlimit:2;"><path d="M173.205,403.721l-103.734,-59.726l-0,121.512l103.734,60.02l0,-121.806Z" style="fill:#1f3b71;fill-rule:nonzero;"/><path d="M172.576,533.471l-55.639,-32.07l0,65.316l55.639,32.07l0,-65.316Z" style="fill:#1f3b71;fill-rule:nonzero;"/><path d="M110.021,497.87l-31.434,-18.241l-0,36.777l31.434,18.241l0,-36.777Z" style="fill:#1f3b71;fill-rule:nonzero;"/><path d="M113.165,541.12l-17.289,-10.003l-0,20.301l17.289,10.003l-0,-20.301Z" style="fill:#1f3b71;fill-rule:nonzero;"/><path d="M190.18,403.721l103.734,-59.726l0,121.512l-103.734,60.02l-0,-121.806Z" style="fill:#1f3b71;fill-rule:nonzero;"/><path d="M301.773,341.347l53.439,-30.892l-0,62.962l-53.439,30.893l-0,-62.963Z" style="fill:#1f3b71;fill-rule:nonzero;"/><path d="M301.773,412.842l33.321,-19.418l-0,39.13l-33.321,19.419l-0,-39.131Z" style="fill:#1f3b71;fill-rule:nonzero;"/><path d="M338.237,387.539l15.403,-8.826l0,18.241l-15.403,8.827l0,-18.242Z" style="fill:#1f3b71;fill-rule:nonzero;"/><path d="M69.471,323.989l112.221,-65.022l112.222,65.022l-112.222,64.727l-112.221,-64.727Z" style="fill:#1f3b71;fill-rule:nonzero;"/><path d="M0,281.327l62.241,-35.894l62.555,35.894l-62.555,36.189l-62.241,-36.189Z" style="fill:#1f3b71;fill-rule:nonzero;"/><path d="M101.22,258.967l30.177,-17.653l30.492,17.653l-30.492,17.653l-30.177,-17.653Z" style="fill:#1f3b71;fill-rule:nonzero;"/><path d="M72.614,247.198l21.69,-12.651l21.69,12.651l-21.69,12.651l-21.69,-12.651Z" style="fill:#1f3b71;fill-rule:nonzero;"/><path d="M84.245,464.035l0.629,-13.533l34.578,-15.888c0.314,-0.294 1.257,-0.589 2.829,-1.177c1.257,-0.588 2.2,-0.883 2.829,-1.177c0.314,-0.294 1.257,-0.588 2.515,-1.177c1.257,-0.588 1.886,-1.177 2.515,-1.471c0.314,-0.294 0.943,-1.177 1.886,-1.765c0.628,-0.883 1.257,-1.471 1.571,-2.354c0.315,-0.882 0.629,-1.765 0.943,-2.942c0.315,-1.177 0.629,-2.354 0.629,-3.531c0.314,-3.824 -0.943,-7.649 -3.143,-11.474c-2.201,-3.825 -5.659,-7.061 -10.374,-9.709c-2.829,-1.471 -5.029,-2.354 -6.915,-2.354c-1.887,0 -3.458,0.294 -4.716,1.471c-0.943,1.177 -1.886,2.648 -2.514,4.119c-0.629,1.765 -0.943,3.531 -0.943,5.885l-0,3.236l-18.861,-10.298l-0,-3.236c0.314,-8.827 3.458,-14.122 8.801,-16.182c5.659,-2.059 14.146,0 25.463,6.179c10.687,5.884 18.86,12.357 24.519,19.712c5.343,7.356 8.173,15.005 7.858,22.655c0,2.942 -0.628,5.296 -1.571,7.649c-0.944,2.06 -2.201,3.825 -3.773,5.296c-1.571,1.471 -3.143,2.648 -4.4,3.531c-1.258,0.883 -3.144,1.765 -5.659,2.942l-34.578,12.357l47.466,25.303l-0.628,13.534l-66.956,-35.601Z" style="fill:#ebeced;fill-rule:nonzero;"/><path d="M241.418,487.573c-12.259,6.767 -21.375,9.709 -27.977,8.532c-6.286,-1.177 -9.744,-5.884 -9.744,-14.417l-0,-3.53l21.375,-11.769c0,2.354 0,4.119 0.315,5.59c0.314,1.471 0.628,2.943 1.257,4.119c0.629,1.471 1.572,2.06 2.515,2.648c1.257,0.295 2.829,0.295 4.715,0c1.886,-0.588 4.401,-1.471 7.23,-2.942c2.829,-1.471 5.344,-3.236 7.23,-5.002c1.886,-1.765 3.458,-3.53 4.715,-5.001c1.258,-1.766 1.886,-3.531 2.515,-5.59c0.629,-2.06 0.943,-3.825 1.257,-5.59c0.315,-1.766 0.315,-3.825 0.315,-5.885c-0,-5.884 -1.572,-9.415 -5.03,-10.886c-3.458,-1.177 -8.802,0 -16.66,4.413l-0,-14.71c7.858,-4.414 13.517,-8.533 16.66,-12.357c3.144,-4.119 5.03,-8.533 5.03,-14.123c-0,-4.707 -1.258,-7.944 -3.458,-9.121c-2.201,-1.176 -6.601,0 -12.574,3.237c-2.829,1.471 -5.344,3.236 -7.23,5.002c-1.886,1.765 -3.458,3.53 -4.715,5.001c-1.258,1.766 -1.886,3.531 -2.515,5.59c-0.629,2.06 -0.943,3.825 -1.257,5.59c-0.315,1.766 -0.315,3.825 -0.315,5.885l-21.375,11.768l-0,-3.53c-0,-8.238 3.143,-16.77 9.744,-25.009c6.602,-8.238 15.718,-15.887 27.977,-22.36c12.26,-6.767 21.69,-9.709 27.977,-8.532c6.287,1.177 9.745,5.884 9.745,14.416c-0,5.885 -1.886,11.475 -5.658,17.359c-3.772,5.884 -9.116,11.18 -15.718,16.476c6.916,-2.354 12.26,-2.354 16.032,0c3.772,2.354 5.344,6.767 5.344,13.534c-0,9.709 -3.144,18.83 -9.116,27.362c-5.973,8.827 -15.717,16.476 -28.606,23.832" style="fill:#ebeced;fill-rule:nonzero;"/><rect x="173.205" y="277.502" width="17.289" height="88.853" style="fill:#ebeced;"/><path d="M397.02,406.958l-16.975,-62.669l9.116,0l7.859,31.776c1.886,7.944 3.772,15.593 5.03,21.772l0.314,-0c0.943,-6.179 3.143,-13.828 5.344,-21.772l8.801,-31.776l9.117,0l8.173,31.776c1.886,7.355 3.772,15.005 4.715,21.478l0.314,-0c1.258,-6.767 3.144,-13.829 5.344,-21.772l8.802,-31.776l8.801,0l-18.86,62.668l-9.116,0l-8.488,-32.658c-2.2,-7.944 -3.458,-14.122 -4.401,-20.595l-0.314,0c-1.257,6.179 -2.829,12.357 -5.03,20.595l-9.43,32.658l-9.116,0l-0,0.295Z" style="fill:#1f3b71;fill-rule:nonzero;"/><path d="M497.297,380.184c-0,-5.296 -2.201,-13.24 -12.26,-13.24c-8.802,0 -12.574,7.65 -13.517,13.24l25.777,-0Zm-25.777,5.59c0.315,11.18 7.859,15.593 16.661,15.593c6.286,0 10.059,-0.882 13.202,-2.353l1.572,5.884c-3.144,1.177 -8.488,2.648 -16.032,2.648c-14.774,-0 -23.576,-9.121 -23.576,-22.655c0,-13.534 8.488,-24.42 22.633,-24.42c15.717,0 19.804,12.946 19.804,21.184c-0,1.765 -0.314,2.942 -0.314,3.825l-33.95,-0l0,0.294Z" style="fill:#1f3b71;fill-rule:nonzero;"/><path d="M525.273,389.01c0,0.883 0.315,2.06 0.315,2.942c1.572,5.591 6.915,9.71 13.202,9.71c9.116,-0 14.46,-7.062 14.46,-17.359c0,-9.121 -5.029,-16.77 -14.46,-16.77c-5.972,-0 -11.63,3.824 -13.202,10.003c-0.315,0.883 -0.629,2.059 -0.629,3.236l0,8.238l0.314,0Zm-9.116,17.948c0.315,-2.943 0.315,-7.65 0.315,-11.769l-0,-54.43l8.801,-0l0,28.245l0.315,-0c3.143,-5.002 8.802,-8.238 16.346,-8.238c11.945,-0 20.432,9.414 20.432,22.948c0,16.182 -10.687,24.126 -21.69,24.126c-6.915,0 -12.573,-2.648 -16.031,-8.532l-0.315,-0l-0.314,7.355l-7.859,0l0,0.295Z" style="fill:#1f3b71;fill-rule:nonzero;"/><path d="M582.17,400.779c1.572,0.294 4.087,0.294 7.23,0.294c8.802,0 17.289,-2.942 17.289,-12.063c0,-8.532 -7.858,-12.063 -17.289,-12.063l-7.23,0l0,23.832Zm0,-30.01l7.859,-0c9.116,-0 14.46,-4.413 14.46,-10.592c-0,-7.355 -5.973,-10.297 -14.774,-10.297c-4.087,-0 -6.287,0.294 -7.545,0.588l0,20.301Zm-8.801,-25.597c3.772,-0.883 9.744,-1.177 15.717,-1.177c8.802,0 14.145,1.471 18.546,4.413c3.458,2.354 5.659,6.179 5.659,11.181c-0,6.178 -4.401,11.474 -11.317,13.828l0,0.294c6.287,1.471 13.831,6.473 13.831,15.594c0,5.295 -2.2,9.414 -5.658,12.651c-4.715,4.119 -12.259,5.884 -23.262,5.884c-5.972,0 -10.687,-0.294 -13.516,-0.882l-0,-61.786Z" style="fill:#1f3b71;fill-rule:nonzero;"/><path d="M627.122,376.065c-0,-5.296 -0,-10.004 -0.315,-14.123l7.545,0l0.314,8.827l0.315,-0c2.2,-6.179 7.544,-10.003 13.202,-10.003c0.943,-0 1.572,-0 2.515,0.294l-0,7.649c-0.943,-0.294 -1.886,-0.294 -2.829,-0.294c-6.287,0 -10.688,4.413 -11.631,10.592c-0.314,1.177 -0.314,2.354 -0.314,3.825l-0,24.126l-8.802,-0l-0,-30.893Z" style="fill:#1f3b71;fill-rule:nonzero;"/><path d="M663.9,384.597c0,10.003 5.973,17.359 14.775,17.359c8.487,-0 14.774,-7.356 14.774,-17.359c0,-7.65 -4.086,-17.359 -14.46,-17.359c-10.688,-0.294 -15.089,8.827 -15.089,17.359m38.351,-0.588c-0,16.77 -12.26,23.831 -23.891,23.831c-12.888,0 -22.947,-8.826 -22.947,-23.243c0,-15.005 10.688,-23.831 23.89,-23.831c13.517,-0 22.948,9.414 22.948,23.243" style="fill:#1f3b71;fill-rule:nonzero;"/><path d="M721.74,382.538c1.258,-1.472 3.144,-3.531 4.401,-5.002l14.146,-15.594l10.687,0l-18.546,18.536l21.061,26.48l-10.688,-0l-16.66,-21.478l-4.401,4.707l0,17.065l-8.801,-0l-0,-66.199l8.801,0l0,41.485Z" style="fill:#1f3b71;fill-rule:nonzero;"/><path d="M790.268,380.184c-0,-5.296 -2.201,-13.24 -12.26,-13.24c-8.801,0 -12.574,7.65 -13.517,13.24l25.777,-0Zm-25.462,5.59c0.314,11.18 7.858,15.593 16.66,15.593c6.287,0 10.059,-0.882 13.203,-2.353l1.571,5.884c-3.143,1.177 -8.487,2.648 -16.031,2.648c-14.775,-0 -23.576,-9.121 -23.576,-22.655c-0,-13.534 8.487,-24.42 22.633,-24.42c15.717,0 19.804,12.946 19.804,21.184c-0,1.765 -0.315,2.942 -0.315,3.825l-33.949,-0l-0,0.294Z" style="fill:#1f3b71;fill-rule:nonzero;"/><path d="M809.757,376.065c0,-5.296 0,-10.004 -0.314,-14.123l7.544,0l0.315,8.827l0.314,-0c2.2,-6.179 7.544,-10.003 13.203,-10.003c0.943,-0 1.571,-0 2.514,0.294l0,7.649c-0.943,-0.294 -1.886,-0.294 -2.829,-0.294c-6.287,0 -10.688,4.413 -11.631,10.592c-0.314,1.177 -0.314,2.354 -0.314,3.825l0,24.126l-8.802,-0l0,-30.893Z" style="fill:#1f3b71;fill-rule:nonzero;"/></svg>