<?xml version="1.0" encoding="UTF-8" standalone="no"?><!DOCTYPE svg PUBLIC "-//W3C//DTD SVG 1.1//EN" "http://www.w3.org/Graphics/SVG/1.1/DTD/svg11.dtd"><svg width="100%" height="100%" viewBox="0 0 7917 5834" version="1.1" xmlns="http://www.w3.org/2000/svg" xmlns:xlink="http://www.w3.org/1999/xlink" xml:space="preserve" xmlns:serif="http://www.serif.com/" style="fill-rule:evenodd;clip-rule:evenodd;stroke-linejoin:round;stroke-miterlimit:2;"><path d="M1617.79,544.07c-1202.09,-58.548 -3574.33,1841.13 -3674.25,2545.43l-838.271,2661.97c-99.929,704.301 795.025,1322.5 1997.11,1381.05l6633.53,321.156c1202.09,58.548 2257.23,-465.802 2355.69,-1170.1l-1665.98,220.265c92.492,-651.891 1014.88,-4051.18 225.41,-4711.66c-63.467,-53.097 42.186,-834.603 -47.262,-838.96l-4985.97,-409.143Z" style="fill:#d3e4f5;fill-rule:nonzero;"/><path d="M8091.6,6283.56l100.96,-3365.68c88.172,-624.225 -1262.31,-1979.15 -1706.84,-1964.56c-23.664,831.833 -714.704,4687.14 -2538.53,6209.66c-1234.37,1030.45 -2024.43,170.905 -5605.87,29.115c310.073,417.587 -69.23,-100.069 761.062,-59.602l6633.53,321.155c1202.09,57.686 2257.23,-465.802 2355.69,-1170.1" style="fill:#b2d1ed;fill-rule:nonzero;"/></svg>