<?xml version="1.0" encoding="UTF-8" standalone="no"?><!DOCTYPE svg PUBLIC "-//W3C//DTD SVG 1.1//EN" "http://www.w3.org/Graphics/SVG/1.1/DTD/svg11.dtd"><svg width="100%" height="100%" viewBox="0 0 7917 3334" version="1.1" xmlns="http://www.w3.org/2000/svg" xmlns:xlink="http://www.w3.org/1999/xlink" xml:space="preserve" xmlns:serif="http://www.serif.com/" style="fill-rule:evenodd;clip-rule:evenodd;stroke-linejoin:round;stroke-miterlimit:2;"><path d="M1824.34,118.158c-937.402,-31.503 -1760.21,250.634 -1838.13,629.597l-427.446,2091.24c-77.926,378.963 619.969,711.597 1557.37,743.1l5172.9,172.804c937.402,31.503 1760.21,-250.634 1836.99,-629.597l-1299.15,118.518c72.127,-350.763 791.412,-2179.82 175.778,-2535.2c-49.493,-28.57 24.084,-390.774 -45.669,-393.118l-81.421,-60.741l-5051.21,-136.607Z" style="fill:#d3e4f5;fill-rule:nonzero;"/><path d="M8126.02,3125.3l-0,-2055.2c66.798,-326.305 -847.289,-780.913 -1221.82,-813.329c-10.3,-0.892 -20.724,-2.147 -30.126,-2.116c-0.628,0.002 -1.251,0.01 -1.869,0.024c-18.453,447.584 -555.804,2524.6 -1978.04,3343.81c-962.577,554.454 -1578.67,91.959 -4371.52,15.666c241.799,224.691 -53.986,-53.844 593.485,-32.07l5172.9,172.804c937.402,31.039 1760.21,-250.634 1836.99,-629.597" style="fill:#b2d1ed;fill-rule:nonzero;"/></svg>