<?xml version="1.0" encoding="UTF-8" standalone="no"?><!DOCTYPE svg PUBLIC "-//W3C//DTD SVG 1.1//EN" "http://www.w3.org/Graphics/SVG/1.1/DTD/svg11.dtd"><svg width="100%" height="100%" viewBox="0 0 32988 13892" version="1.1" xmlns="http://www.w3.org/2000/svg" xmlns:xlink="http://www.w3.org/1999/xlink" xml:space="preserve" xmlns:serif="http://www.serif.com/" style="fill-rule:evenodd;clip-rule:evenodd;stroke-linejoin:round;stroke-miterlimit:2;"><path d="M7601.42,492.325c-3905.84,-131.262 -7334.21,1044.31 -7658.88,2623.32l-1781.03,8713.5c-324.692,1579.01 2583.2,2964.99 6489.04,3096.25l21553.8,720.016c3905.84,131.263 7334.21,-1044.31 7654.12,-2623.32l-5413.12,493.825c300.529,-1461.51 3297.55,-9082.58 732.409,-10563.3c-206.221,-119.041 -804.638,623.722 -1095.28,613.955l-4569.55,-2631.76l-15911.4,-442.475l-0.05,0.017Z" style="fill:#d3e4f5;fill-rule:nonzero;"/><path d="M33858.4,13022.1l-0,-8563.33c278.325,-1359.6 -8686.7,-3380.08 -10247.2,-3515.15c-42.917,-3.717 -86.35,-8.946 -125.525,-8.817c-2.617,0.008 -5.213,0.042 -7.788,0.1c-76.887,1864.93 -149.981,11307.2 -6075.96,14720.5c-4010.74,2310.22 -3587.33,-278.551 -15224.2,-596.439c1007.5,936.213 -224.942,-224.35 2472.85,-133.625l21553.8,720.017c3905.84,129.329 7334.21,-1044.31 7654.12,-2623.32" style="fill:#b2d1ed;fill-rule:nonzero;"/></svg>