<?xml version="1.0" encoding="UTF-8" standalone="no"?><!DOCTYPE svg PUBLIC "-//W3C//DTD SVG 1.1//EN" "http://www.w3.org/Graphics/SVG/1.1/DTD/svg11.dtd"><svg width="100%" height="100%" viewBox="0 0 5000 3334" version="1.1" xmlns="http://www.w3.org/2000/svg" xmlns:xlink="http://www.w3.org/1999/xlink" xml:space="preserve" xmlns:serif="http://www.serif.com/" style="fill-rule:evenodd;clip-rule:evenodd;stroke-linejoin:round;stroke-miterlimit:2;"><g><path d="M3119.93,457.813c-154.633,-114.415 -338.802,95.345 -482.882,41.491c-117.569,-43.945 -197.95,-361.175 -373.804,-387.829c-299.592,-45.409 -2732.2,808.709 -2755.9,846.91c-84.661,136.427 -1315.87,2835.09 -1272.18,2822.35c93.593,322.541 991.692,-188.52 1658.14,-233.816l3793.76,229.798c666.451,-45.296 -435.51,-694.295 -529.91,-1016.84l658.036,-601.711c-82.299,-286.083 -253.157,-1373.24 -695.261,-1700.35Z" style="fill:#ebeced;fill-rule:nonzero;"/></g><g><path d="M4773.32,3887.48l-247.838,-409.059c-0,0 -189.88,-1081.49 -410.14,-1670.33c-173.453,-463.704 -369.551,-877.882 -546.649,-1065.21c-129.875,-137.377 -286.008,-270.994 -462.675,-367.555c-172.137,-94.085 -364.557,-164.29 -515.341,-202.821c-156.499,-39.993 -327.389,-61.077 -327.438,-61.033c35.353,65.649 238.357,595.182 297.379,789.003c246.008,807.858 353.699,1596.93 387.259,1805.92c79.79,496.885 123.827,924.402 139.659,1181.08c24.601,398.854 1634.5,-196.792 1685.78,0Z" style="fill:#daddde;fill-rule:nonzero;"/></g></svg>